<svg width="318" height="318" viewBox="0 0 318 318" fill="none" xmlns="http://www.w3.org/2000/svg">
<rect x="36" y="37" width="222" height="200" rx="5" fill="#E8CFCB"/>
<rect x="36" y="37" width="222" height="200" rx="5" fill="#E8CFCB"/>
<g clip-path="url(#clip0_1140_10)">
<path fill-rule="evenodd" clip-rule="evenodd" d="M85.2818 116.87C85.1292 116.462 84.5996 116.642 84.2522 116.431C84.1674 116.659 84.075 116.873 83.9619 117.135C83.7909 116.992 83.6096 116.872 83.316 116.632C83.4598 116.299 83.6139 115.942 83.7501 115.595C83.9699 115.657 84.1309 115.697 84.2919 115.736C84.9883 115.266 84.5242 114.627 84.6327 114.059C85.3795 113.979 85.109 115.018 85.7635 115.025C85.856 114.811 85.9408 114.583 86.0333 114.369C86.4396 114.475 86.8254 114.628 87.237 114.659C87.5285 114.682 87.856 114.558 88.2141 114.49C87.8988 114.935 87.6219 115.322 87.2988 115.753C87.171 115.731 86.941 115.693 86.7109 115.655C86.516 115.979 86.6459 116.218 86.9242 116.43C87.5609 116.447 87.9735 115.967 88.3727 115.804C88.7162 115.326 88.9931 114.938 89.27 114.551C89.1224 114.195 88.9645 113.863 88.8169 113.507C89.4851 113.07 89.3068 114.022 89.7469 113.891C90.1024 113.861 90.3456 113.71 90.4051 113.35C90.1776 113.274 89.9323 113.208 89.6717 113.113C89.6261 112.902 89.5984 112.68 89.5477 112.417C90.0742 112.53 90.5317 112.645 91.1349 112.771C90.9543 112.269 90.812 111.837 90.6467 111.363C91.1663 111.08 91.668 110.807 92.1876 110.523C92.4329 110.59 92.4329 110.59 92.2399 111.259C92.3927 111.539 92.5456 111.82 92.6985 112.1C93.3757 112.277 93.7707 111.68 94.3361 111.481C94.4286 111.267 94.5211 111.052 94.6162 110.8C94.8283 110.849 95.0583 110.887 95.296 110.939C96.6398 110.207 97.9836 109.474 99.3454 108.732C99.4302 108.504 99.515 108.276 99.6333 107.939C100.058 107.907 100.533 107.885 101.045 107.842C101.163 107.632 101.255 107.418 101.407 107.099C103.091 106.181 104.883 105.205 106.693 104.218C106.795 103.981 106.906 103.757 107.016 103.533C107.532 103.542 108.07 103.504 108.579 103.117C108.654 102.913 108.746 102.699 108.841 102.447C109.271 102.213 109.719 101.969 110.185 101.715C110.397 101.763 110.635 101.815 111.008 101.903C111.2 101.616 111.403 101.306 111.623 100.985C112.259 101.384 112.826 100.676 113.493 100.621C113.401 100.963 113.341 101.195 113.282 101.427C113.645 101.539 114.013 101.447 114.08 101.101C114.155 100.642 114.613 100.502 114.762 100.22C114.868 99.8172 114.301 99.4168 114.933 99.1268C115.124 99.3499 115.106 99.7421 115.522 99.8243C115.822 99.479 115.979 99.0843 115.847 98.6288C116.223 98.4237 116.599 98.2186 116.976 98.0135C117.061 97.7854 117.145 97.5573 117.22 97.3529C117.542 97.1771 117.847 97.0111 118.044 96.9037C118.456 96.934 118.747 96.9571 119.013 96.9759C119.244 96.6318 119.39 96.3884 119.554 96.1352C119.741 96.1791 119.902 96.2186 120.096 96.2765C120.196 96.0764 120.271 95.8721 120.373 95.6342C121.538 94.9994 122.738 94.3451 123.975 93.6713C124.187 93.7194 124.425 93.7717 124.662 93.8241C124.747 93.596 124.832 93.3678 124.917 93.1397C127.174 91.9092 129.432 90.6788 131.672 89.4581C131.718 89.2873 131.772 89.1305 131.826 88.9738C131.946 88.8536 132.041 88.7291 132.185 88.651C133.449 87.9436 134.729 87.2643 135.965 86.5904C136.185 86.6526 136.346 86.6921 136.558 86.7402C136.704 86.4968 136.858 86.2674 137.063 85.9191C137.329 85.9379 137.639 85.9512 138.068 85.9718C138.409 85.7862 138.839 85.5518 139.322 85.2882C139.443 85.0405 139.592 84.7593 139.764 84.3927C140.114 84.4383 140.439 84.4796 140.763 84.5209C141.262 84.4128 141.286 83.945 141.481 83.493C141.844 83.477 142.215 83.475 142.578 83.459C142.632 83.3022 142.686 83.1455 142.753 82.9271C142.958 82.9612 143.18 82.9855 143.418 83.0378C143.5 82.8475 143.585 82.6194 143.677 82.4053C143.907 82.4436 144.145 82.4959 144.365 82.5581C144.904 82.4822 144.829 81.9596 145.072 81.6814C145.302 81.7197 145.507 81.7538 145.729 81.7781C145.804 81.5737 145.85 81.4029 145.914 81.2224C146.559 80.8708 147.204 80.5192 147.814 80.1872C148.051 80.2396 148.194 80.2889 148.407 80.337C151.094 78.8722 153.8 77.3976 156.416 75.9718C157.132 75.9636 157.761 75.9664 158.407 75.9594C158.526 75.6221 158.657 75.2231 158.811 74.7388C159.008 74.7589 159.205 74.7789 159.479 74.8117C159.55 74.6452 159.651 74.4451 159.733 74.2548C160.017 74.2638 160.308 74.2869 160.702 74.327C160.843 74.0317 160.984 73.7365 161.115 73.4651C161.25 73.5004 161.411 73.5399 161.733 73.6191C163.072 72.9623 164.431 72.1305 165.842 71.4346C166.123 71.4815 166.353 71.5198 166.693 71.5892C166.857 71.336 167.039 71.0731 167.249 70.7766C167.456 70.7728 167.758 70.7721 168.085 70.7756C168.296 70.4791 168.508 70.1448 168.796 69.7336C169.069 69.7665 169.394 69.8078 169.839 69.8564C170.067 69.5502 170.351 69.1768 170.656 68.7558C170.879 68.7801 171.119 68.7947 171.538 68.839C172.936 68.0773 174.513 67.2179 175.946 66.4367C176.329 66.5006 176.577 66.5291 176.91 66.5845C177.123 66.2502 177.302 65.8976 177.546 65.6194C177.705 65.4418 177.986 65.3612 178.237 65.2245C178.449 65.2726 178.679 65.3109 178.986 65.362C182.103 63.6628 185.257 61.9441 188.41 60.2253C188.464 60.196 188.556 60.2369 188.651 60.2399C188.87 60.4295 189.097 60.6331 189.317 60.8227C189.514 60.7152 189.675 60.6273 189.819 60.5492C189.903 60.3211 189.988 60.093 190.063 59.8886C190.977 59.3906 191.872 58.9023 192.607 58.5019C193.239 58.4669 193.714 58.4441 194.19 58.4214C194.266 58.5616 194.361 58.6921 194.345 58.664C194.821 58.8962 195.196 59.0735 195.572 59.2508C196.258 58.4217 196.258 57.5673 196.653 56.8426C197.006 56.7229 197.438 56.8331 197.785 57.1714C198.478 57.2486 198.883 56.3726 199.688 56.5705C199.242 57.4142 198.795 58.2578 198.356 59.1155C198.203 59.09 197.965 59.0376 197.735 58.9993C197.665 59.3829 197.381 59.7563 197.442 59.996C197.727 60.6045 198.236 60.4726 198.561 60.6414C199.468 60.6014 199.618 59.6828 200.207 59.2709C200.595 59.5141 200.984 59.7573 201.405 60.0187C201.407 60.3633 201.429 60.7878 201.454 61.3019C201.182 61.4862 200.839 61.7096 200.478 61.9427C200.478 62.3251 200.04 62.6729 200.317 63.14C199.903 63.4024 199.205 63.4009 199.081 64.0687C199.899 63.8226 199.899 63.8226 200.317 63.14C200.906 62.8555 201.424 63.4646 201.956 63.2472C202.524 63.0104 202.91 63.2914 203.362 63.354C203.592 63.7747 203.821 64.1955 203.966 64.4619C203.963 65.0096 203.98 65.3822 203.974 65.8403C203.764 66.1368 203.487 66.5242 203.115 67.036C202.81 67.202 202.362 67.4462 201.932 67.6805C201.847 67.9087 201.763 68.1368 201.67 68.3509C201.484 68.3071 201.341 68.2577 201.095 68.1914C200.647 68.4355 200.146 68.7089 199.68 68.9628C199.536 69.2959 199.428 69.6094 199.312 69.9089C199.506 69.9668 199.667 70.0064 199.938 70.077C199.91 70.238 199.871 70.4228 199.832 70.7351C200.008 71.0577 200.23 71.4644 200.337 71.6607C200.649 72.7456 199.692 73.1217 199.473 73.914C198.918 74.2167 198.255 74.578 197.682 74.8905C197.594 75.1565 197.54 75.3133 197.442 75.603C196.564 76.0815 195.615 76.5991 194.719 77.0874C194.595 77.5003 194.505 77.8041 194.408 78.0938C194.517 78.1249 194.625 78.1937 194.678 78.1644C195.582 77.6902 196.47 77.1879 197.42 76.6703C197.53 76.4464 197.653 76.161 197.743 75.9847C198.309 75.6581 198.664 76.0105 199.119 76.0353C198.873 76.3513 198.663 76.6478 198.427 76.9401C198.672 77.0065 198.9 77.0826 199.186 77.1813C198.983 77.3643 198.802 77.4998 198.65 77.6914C198.555 77.8158 198.509 77.9866 198.422 78.1251C198.296 78.3209 198.13 78.4844 197.668 79.0451C197.624 79.3056 197.462 80.0308 197.366 80.5376C196.839 80.9343 196.335 80.9906 196.199 81.4651C196.871 81.7174 197.258 81.1061 197.772 80.8985C198.312 80.6952 198.712 80.2773 199.407 80.4441C199.864 80.5586 200.4 79.7935 201.036 80.1928C201.932 79.7045 202.828 79.2162 203.634 78.7767C204.358 78.7825 204.997 78.7615 205.695 78.7631C205.928 78.6361 206.215 78.4799 206.519 78.3139C206.566 78.1431 206.62 77.9863 206.692 77.8198C207.145 77.5 207.867 78.2706 208.053 77.46C208.95 77.6987 209.737 77.9064 210.795 78.1846C210.818 78.2267 211.001 78.5633 211.169 78.8718C210.803 79.4355 210.158 79.5321 209.702 79.8897C209.594 80.2033 209.486 80.5168 209.378 80.8303C209.436 81.3627 209.901 81.3637 210.282 81.4654C210.435 81.7459 210.588 82.0264 210.741 82.3069C210.682 82.5393 210.615 82.7577 210.542 83.0517C210.883 82.9936 211.197 82.9312 211.555 82.8634C211.665 83.0219 211.79 83.2085 211.889 83.3908C211.579 84.0148 210.911 84.0694 210.448 84.413C210.158 84.9894 210.638 85.2734 210.888 85.6466C211.453 85.575 212.018 85.3759 212.58 85.7246C212.794 86.1172 213.024 86.538 213.261 86.9727C213.237 87.3131 212.881 87.7255 213.304 88.0766C213.196 88.3901 213.088 88.7037 212.96 89.0648C212.691 89.2112 212.404 89.3675 212.118 89.5237C212.015 89.7616 211.93 89.9898 211.835 90.2417C211.118 90.6323 210.366 91.0425 209.613 91.4526C209.451 91.9229 209.282 92.3792 209.146 92.7263C208.887 92.9764 208.72 93.14 208.536 93.3132C208.865 93.9163 209.17 94.4772 209.514 95.1083C209.401 95.37 209.26 95.6653 209.088 96.0319C208.968 96.0246 208.756 95.9765 208.508 95.948C208.509 96.42 208.493 96.9018 208.477 97.3837C209.114 97.4005 209.552 96.9252 210.069 96.6798C210.532 96.4637 210.965 96.1915 211.412 95.9474C211.573 95.987 211.742 96.0406 212.039 96.1154C212.458 95.9049 212.975 95.6595 213.485 95.4001C213.646 95.4396 213.807 95.4792 214.052 95.5456C214.188 95.326 214.334 95.0826 214.539 94.7342C214.798 94.739 215.107 94.7523 215.554 94.7631C216.02 94.5092 216.612 94.1869 217.346 93.7865C217.413 93.4407 217.517 92.9479 217.599 92.5026C218.328 92.5603 218.793 92.8162 219.191 93.2905C219.531 93.105 219.889 92.9097 220.248 92.7144C220.302 92.5576 220.356 92.4009 220.423 92.1825C220.817 91.9677 221.265 91.7235 221.749 91.4598C222.541 91.5919 223.475 91.1737 224.249 91.6979C225.055 91.2584 225.808 90.8483 226.56 90.4381C226.92 90.5874 227.37 90.5604 227.769 90.9072C227.725 91.1677 227.686 91.48 227.626 91.8398C227.741 92.0502 227.894 92.3307 228.054 92.6252C228.274 92.6873 228.502 92.7634 228.747 92.8298C229.155 93.1529 228.774 93.5611 228.809 93.9239C228.97 93.9635 229.131 94.0031 229.35 94.0652C229.452 94.2097 229.664 94.3853 229.684 94.5926C229.788 95.3366 229.95 96.1032 229.565 96.9316C229.293 97.1159 228.958 97.3533 228.623 97.5906C228.63 97.7321 228.609 97.9072 228.634 98.0389C228.84 98.8 229.661 98.8984 230.164 99.352C230.335 99.4952 230.562 99.5714 230.761 99.6811C230.762 100.408 230.396 100.972 230.223 101.593C230.07 101.695 229.926 101.773 229.737 101.895C229.775 102.092 229.802 102.314 229.858 102.629C229.648 102.926 229.389 103.303 228.93 103.953C228.787 104.032 228.242 104.183 227.924 104.538C227.55 104.96 227.286 105.414 226.763 105.735C226.413 105.944 226.46 106.628 225.813 106.762C226.098 107.371 226.34 107.857 226.559 108.302C226.417 108.852 225.837 108.768 225.511 109.237C225.544 109.382 225.585 109.67 225.645 110.037C225.481 110.162 225.307 110.312 225.087 110.505C224.894 110.919 225.334 111.171 225.423 111.504C225.453 112.925 223.95 113.834 224.004 115.297C224.825 115.141 225.376 114.531 226.123 114.324C226.233 114.355 226.394 114.395 226.69 114.469C227.263 114.157 227.926 113.796 228.5 113.483C228.771 113.554 228.932 113.593 229.1 113.647C229.154 113.618 229.241 113.607 229.269 113.573C229.331 113.43 229.377 113.26 229.452 113.055C229.656 113.089 229.886 113.128 230.142 113.17C230.393 113.034 230.697 112.867 230.984 112.711C231.24 112.754 231.477 112.806 231.715 112.859C231.808 112.644 231.874 112.426 231.967 112.212C232.749 112.368 232.463 113.506 233.327 113.599C233.527 113.199 233.188 113.002 233.096 112.706C233.005 112.41 232.665 112.213 232.793 111.852C233.35 110.912 234.526 112.345 234.889 110.965C235.208 111.337 235.361 111.49 235.519 111.695C236.148 111.825 236.551 111.242 237.116 111.042C237.268 110.596 237.438 110.14 237.607 109.683C238.118 109.769 238.074 110.284 238.368 110.524C238.636 110.76 239.014 110.9 239.338 111.068C239.245 111.41 239.161 111.638 239.109 111.885C239.3 112.235 239.491 112.586 239.682 112.936C239.444 113.139 239.055 113.151 238.917 113.536C238.78 113.883 238.476 114.176 238.188 114.587C239.069 114.326 239.957 114.806 240.688 113.971C240.917 114.264 241.053 114.427 241.18 114.576C241.082 115.12 240.555 115.135 240.235 115.4C239.817 115.955 239.946 116.576 239.955 117.19C239.549 117.084 239.15 116.992 238.736 116.872C238.375 117.105 238.423 117.534 238.272 117.853C238.457 118.406 239.03 118.349 239.493 118.515C239.577 118.287 239.67 118.073 239.737 117.854C240.409 118.107 241.22 117.592 241.854 118.029C241.655 118.901 242.134 119.95 241.033 120.531C241.091 120.809 241.145 121.034 241.198 121.26C240.993 121.608 240.476 121.599 240.164 121.878C240.11 122.035 240.056 122.192 240.009 122.363C239.64 122.837 239.07 122.984 238.55 123.267C238.389 123.228 238.228 123.188 237.983 123.122C237.847 123.341 237.701 123.585 237.495 123.933C237.237 123.928 236.928 123.915 236.531 123.913C236.101 124.147 235.6 124.42 235.098 124.694C235.199 125.221 235.278 125.706 235.837 125.837C236.32 125.956 236.493 126.444 237.02 126.557C237.309 126.618 237.435 127.149 237.616 127.396C237.368 127.877 237.138 127.584 236.959 127.554C236.711 127.525 236.476 127.435 236.019 127.321C235.987 127.775 235.945 128.252 235.914 128.706C235.446 128.615 235.226 128.553 234.996 128.515C234.691 128.681 234.405 128.837 234.046 129.032C234.087 129.32 234.127 129.607 234.175 129.908C234.144 129.98 234.129 130.079 234.057 130.118C233.169 130.62 232.265 131.095 231.387 131.573C231.175 131.525 231.014 131.485 230.853 131.446C230.37 131.582 229.874 131.652 229.696 132.222C230.544 132.542 231.409 132.38 232.253 132.266C232.368 131.966 232.453 131.738 232.538 131.51C232.843 131.344 233.147 131.178 233.524 130.973C233.802 131.312 234.08 131.652 234.365 132.005C234.68 131.943 235.002 131.895 235.342 131.837C235.124 132.629 234.257 132.574 233.852 133.068C233.721 133.466 233.59 133.865 233.448 134.288C231.979 135.089 230.474 135.909 228.915 136.759C228.736 136.729 228.498 136.677 228.235 136.62C227.805 136.854 227.357 137.098 226.927 137.333C226.689 137.281 226.444 137.214 226.196 137.186C226.142 137.342 226.088 137.499 226.034 137.656C226.003 137.727 225.988 137.827 225.916 137.866C224.268 138.764 222.619 139.663 220.863 140.62C221.013 141.065 221.166 141.473 221.313 141.957C220.848 142.211 220.418 142.445 219.97 142.689C219.849 142.937 219.757 143.151 219.567 143.527C218.456 144.133 217.184 144.826 215.893 145.529C216.071 146.069 216.608 146.031 216.877 146.012C217.258 145.986 217.66 145.658 217.968 146.436C217.799 146.765 217.521 147.28 217.047 148.157C216.67 148.362 215.864 148.801 215.13 149.202C215.042 149.468 214.988 149.625 214.942 149.795C214.494 150.167 214.043 150.576 213.361 150.221C213.268 150.435 213.194 150.639 213.091 150.877C212.679 151.101 212.231 151.346 211.747 151.609C211.535 151.561 211.297 151.509 211.06 151.456C210.773 151.613 210.468 151.779 210.182 151.935C210.097 152.163 210.02 152.405 209.937 152.596C209.006 153.103 208.11 153.592 207.214 154.08C207.027 154.036 206.866 153.997 206.705 153.957C206.12 154.076 205.572 154.265 205.443 155.009C205.031 155.234 204.583 155.478 204.045 155.771C203.917 155.749 203.687 155.711 203.414 155.678C202.892 155.872 202.319 156.057 202.251 156.785C201.516 157.185 200.764 157.596 200.011 158.006C199.998 158.195 199.913 158.423 199.828 158.651C199.667 158.611 199.506 158.572 199.338 158.518C198.732 158.558 198.289 158.981 197.805 159.245C197.712 159.459 197.62 159.673 197.545 159.877C197.113 159.767 196.707 159.661 196.267 159.537C195.855 159.761 195.407 160.006 194.888 160.289C194.683 160.51 194.833 161.083 194.019 161.126C193.994 161.122 193.756 161.069 193.518 161.017C193.232 161.173 192.927 161.339 192.623 161.505C192.491 161.904 192.353 162.289 192.198 162.773C191.822 162.978 191.374 163.223 190.801 163.535C190.724 163.522 190.476 163.494 190.151 163.452C189.578 163.765 188.933 164.116 188.306 164.458C188.239 164.677 188.185 164.833 188.131 164.99C186.429 165.918 184.709 166.855 183.06 167.754C182.815 167.687 182.654 167.648 182.493 167.608C182.401 167.822 182.316 168.051 182.231 168.279C180.278 169.343 178.325 170.408 176.354 171.482C176.318 171.629 176.264 171.786 176.228 171.933C176.107 172.053 176.01 172.215 175.885 172.283C174.62 172.991 173.34 173.67 172.014 174.393C171.787 174.189 171.568 174 171.323 173.806C170.849 174.173 170.712 174.903 170.039 174.905C169.949 175.209 169.895 175.366 169.821 175.57C169.616 175.536 169.386 175.498 169.131 175.455C168.88 175.592 168.575 175.758 168.253 175.934C168.137 176.106 168.052 176.334 167.96 176.548C167.588 176.932 167.187 176.751 166.817 176.625C166.494 176.801 166.19 176.967 165.885 177.133C165.484 176.951 165.098 176.925 164.714 177.244C164.358 177.529 163.987 177.403 163.653 177.258C163.555 177.548 163.501 177.705 163.426 177.909C163.014 178.134 162.566 178.378 162.118 178.622C162.016 178.86 161.931 179.088 161.818 179.35C161.406 179.574 160.958 179.819 160.474 180.082C160.27 180.048 160.032 179.996 159.787 179.929C159.052 180.33 158.299 180.74 157.547 181.15C157.462 181.378 157.37 181.592 157.285 181.821C157.116 181.767 156.955 181.727 156.717 181.675C155.374 182.407 153.958 183.179 152.543 183.95C152.499 184.083 152.453 184.254 152.368 184.482C151.974 184.697 151.526 184.941 150.988 185.234C150.868 185.227 150.638 185.189 150.382 185.146C150.236 185.389 150.09 185.633 149.885 185.981C149.586 185.944 149.269 185.917 148.9 185.881C145.944 187.492 142.934 189.133 139.942 190.764C139.704 190.711 139.466 190.659 139.236 190.621C139.151 190.849 139.067 191.077 138.941 191.4C138.647 191.415 138.327 191.426 137.782 191.45C136.976 191.889 135.919 192.465 134.951 192.993C134.711 192.978 134.547 192.976 134.384 192.974C134.22 192.973 134.074 192.961 133.791 192.952C133.662 193.186 133.506 193.453 133.29 193.825C131.301 194.909 129.205 196.052 127.055 197.224C126.861 197.166 126.623 197.113 126.36 197.057C125.625 197.457 124.873 197.867 124.138 198.268C123.883 198.225 123.637 198.159 123.425 198.111C123.264 198.198 123.12 198.277 122.977 198.355C122.923 198.511 122.877 198.682 122.823 198.839C122.792 198.91 122.758 199.02 122.705 199.049C121.2 199.869 119.695 200.689 118.243 201.48C118.024 201.418 117.863 201.379 117.592 201.308C117.018 201.621 116.355 201.982 115.782 202.294C115.189 202.145 115.216 201.639 114.95 201.365C114.25 201.147 114.103 201.645 113.913 202.276C113.479 202.076 113.052 201.891 112.717 201.746C111.642 202.332 110.746 202.82 109.85 203.308C109.613 203.256 109.383 203.217 109.178 203.183C109.058 203.431 108.98 203.673 108.847 203.855C108.763 203.956 108.563 203.973 108.333 204.063C108.205 203.914 108.044 203.747 107.853 203.524C107.608 203.457 107.286 203.378 106.913 203.29C106.644 203.437 106.357 203.593 106.035 203.769C105.738 203.694 105.416 203.615 105.017 203.523C104.877 203.308 104.732 203.042 104.531 202.715C104.61 202.435 104.683 202.141 104.775 201.8C104.906 201.783 105.021 201.738 105.141 201.746C105.686 201.722 106.246 201.726 106.783 201.688C106.913 201.671 107.029 201.499 107.157 201.393C107.162 201.317 107.188 201.194 107.188 201.194C106.638 201.039 106.071 200.893 105.8 200.823C104.959 200.899 104.404 200.947 103.805 201C103.491 200.808 103.103 200.565 102.6 200.238C102.562 200.168 102.447 199.958 102.332 199.748C102.547 199.63 102.78 199.504 103.013 199.377C103.404 199.454 103.785 199.684 104.167 199.275C104.275 198.962 104.383 198.648 104.473 198.345C104.414 198.195 104.345 198.068 104.287 197.918C103.821 197.917 103.354 197.827 102.909 197.906C102.446 197.994 101.921 198.098 101.777 198.686C101.968 199.037 102.159 199.387 102.35 199.738C102.194 199.75 101.946 199.849 101.89 199.789C101.624 199.515 101.423 199.188 101.204 198.871C100.677 198.885 100.96 199.404 100.399 199.655C100.356 199.661 100.036 199.671 99.4916 199.695C99.1333 199.89 98.542 200.213 97.8611 200.584C97.5902 200.513 97.2861 200.424 96.9718 200.359C96.7596 200.311 96.5193 200.297 96.2687 200.306C95.967 200.306 95.6447 200.355 95.2816 200.371C95.2379 200.504 95.1531 200.732 95.0682 200.96C94.6203 201.204 94.1724 201.448 93.7244 201.692C93.5634 201.653 93.4203 201.604 93.0983 201.524C92.5149 201.733 91.8876 202.202 91.2299 202.488C90.9743 202.446 90.7213 202.365 90.4886 202.365C90.3505 202.367 90.1866 202.493 89.9819 202.586C89.77 202.411 89.5608 202.197 89.3233 202.018C89.0859 201.838 88.81 201.715 88.5852 201.601C88.794 200.705 89.75 200.839 90.1168 200.275C90.2424 200.08 90.1684 200.029 89.9307 199.977C89.21 199.806 88.5098 199.587 87.8505 199.4C87.4563 199.615 87.1696 199.772 86.8292 199.957C86.6096 199.768 86.3901 199.578 86.1629 199.374C85.8483 199.437 85.5516 199.489 85.1935 199.557C85.2733 199.277 85.3326 199.045 85.3995 198.826C85.1721 198.75 84.9241 198.722 84.7172 198.598C84.5359 198.478 84.4213 198.268 84.2784 198.091C83.9201 198.287 83.6334 198.443 83.3109 198.619C82.9965 198.554 82.6745 198.474 82.3524 198.395C82.2818 197.924 82.3874 197.521 82.8227 197.211C83.342 197.055 83.7684 197.369 84.341 197.439C84.789 197.195 85.2907 196.921 85.7923 196.648C85.7697 196.478 85.7546 196.323 85.7472 196.181C85.8956 196.155 86.0439 196.129 86.1999 196.116C86.8533 196.761 86.9356 197.807 87.814 198.438C87.9017 198.045 87.9662 197.737 88.0744 197.296C87.9292 197.029 87.7075 196.623 87.4553 196.16C87.2893 196.068 87.0313 195.936 86.7988 195.808C86.8968 195.391 87.3111 195.383 87.5007 195.134C87.7176 195.362 87.8653 195.718 88.0989 195.209C87.92 195.179 87.7411 195.149 87.5007 195.134C87.3964 194.9 87.2435 194.62 87.0906 194.339C87.1931 194.229 87.288 194.104 87.4571 193.903C87.2125 193.454 86.9603 192.992 86.6163 192.36C87.0382 192.367 87.2964 192.372 87.547 192.363C87.5351 191.914 87.5487 191.47 87.5344 190.932C87.1276 191.081 86.6773 191.236 86.1656 191.406C86.0483 191.233 85.9054 191.056 85.7958 190.898C85.9119 190.343 86.4769 190.399 86.8281 189.935C86.841 189.873 86.9437 189.635 87.0286 189.407C87.3924 189.009 87.7856 189.304 88.164 189.316C88.7732 188.984 89.3824 188.652 89.9737 188.33C90.1971 187.844 89.7578 187.592 89.6536 187.231C89.9181 186.65 90.175 186.055 90.4805 185.379C90.4626 185.389 90.606 185.311 90.762 185.299C90.9256 185.3 91.084 185.378 91.2706 185.422C91.363 185.208 91.4376 185.003 91.5224 184.775C91.7524 184.813 91.9901 184.866 92.2099 184.928C92.6758 184.674 93.1237 184.43 93.5358 184.205C93.6641 183.972 93.7489 183.743 93.8825 183.434C94.1766 183.419 94.4962 183.409 94.8772 183.383C95.1233 183.067 95.4105 182.656 95.7232 182.249C95.0178 182.106 94.6076 182.675 94.0677 182.879C93.6052 182.712 93.1293 182.862 92.6075 182.929C92.5158 182.76 92.4088 182.564 92.3171 182.396C92.6121 181.871 93.1442 181.781 93.5589 181.519C93.9199 181.286 94.3114 181.109 94.6698 180.913C94.801 180.514 94.9321 180.115 95.0941 179.645C95.7033 179.313 96.3483 178.961 96.9934 178.61C97.1799 178.654 97.323 178.703 97.484 178.743C97.7712 178.331 98.066 177.934 98.3456 177.509C97.8264 177.537 97.3687 177.55 96.8752 177.583C96.8212 177.74 96.7364 177.968 96.6542 178.158C95.8658 178.588 95.1312 178.988 94.3966 179.389C94.21 179.345 94.049 179.305 93.7781 179.235C92.7568 179.791 91.6459 180.397 90.4992 181.022C90.2899 180.808 90.1547 180.645 89.9455 180.432C89.322 180.226 89.1856 180.701 89.0107 181.233C88.7985 181.185 88.5761 181.16 88.3205 181.118C88.0517 181.264 87.7651 181.42 87.4605 181.586C87.2228 181.534 86.9672 181.491 86.7218 181.425C86.4352 181.581 86.1306 181.747 85.826 181.913C85.7411 182.142 85.6563 182.37 85.538 182.707C84.5509 182.772 83.5383 182.833 82.7327 182.89C82.222 182.55 81.8338 182.307 81.4559 182.04C81.396 181.29 81.9495 180.643 81.9895 179.821C81.3552 179.893 80.7004 180.014 80.0253 180.054C79.3246 180.091 78.9654 179.432 78.2064 179.19C77.786 178.419 77.2968 177.521 76.8535 176.708C76.5826 176.637 76.4216 176.598 76.1839 176.545C76.215 176.347 76.264 176.138 76.3156 175.892C76.1042 175.461 75.8801 174.965 75.6255 174.412C76.1657 174.082 76.6521 173.78 77.1564 173.469C77.5128 172.929 76.4933 172.593 76.947 172.019C77.601 172.281 77.5255 172.995 78.0592 173.377C78.0847 173.381 78.2789 173.439 78.412 173.385C78.8035 173.208 79.1595 172.923 79.5561 172.798C79.8375 172.717 80.1901 172.852 80.4868 172.8C80.7221 172.762 80.9424 172.569 81.2111 172.423C81.3165 172.147 81.4245 171.834 81.5401 171.534C81.3823 171.202 80.9933 171.341 80.6716 171.135C80.1904 171.36 79.6811 171.62 79.1641 171.865C78.8421 171.786 78.5201 171.707 78.1648 171.609C78.828 171.121 78.9471 170.401 79.1836 169.726C79.6334 169.827 80.1088 169.931 80.6174 170.054C80.572 169.715 80.5317 169.428 80.4889 169.051C80.7983 169.065 81.0642 169.083 81.3659 169.083C81.6966 168.666 82.0528 168.253 82.4577 167.76C82.333 167.446 82.1675 167.1 82.0199 166.743C82.141 166.241 82.706 166.297 82.8009 166.172C83.0883 165.634 83.2859 165.271 83.3654 165.119C83.1239 164.377 82.5969 164.519 82.2164 164.29C81.8626 164.792 81.5011 165.28 81.137 165.806C80.6102 165.82 79.9889 165.831 79.255 165.849C78.7892 166.103 78.18 166.435 77.5887 166.757C77.351 166.705 77.1133 166.653 76.8756 166.6C76.6427 166.727 76.4098 166.854 76.1589 166.991C75.5017 167.022 74.8266 167.062 74.1439 167.089C74.0899 167.246 74.0359 167.402 73.9792 167.597C73.5671 167.821 73.1192 168.066 72.6175 168.339C72.4641 168.314 72.2264 168.261 71.9453 168.214C71.6944 168.351 71.3898 168.517 71.0494 168.703C70.7532 168.5 70.4493 168.284 70.1352 168.091C69.9739 168.179 69.8306 168.257 69.6514 168.355C69.3473 168.266 69.0356 168.163 68.7059 168.07C68.6152 167.392 69.5198 167.644 69.6699 166.726C69.6699 166.726 69.6836 166.282 69.6846 165.772C69.1712 165.47 68.4674 165.799 67.8821 165.663C67.3812 165.554 66.9242 165.185 66.4185 164.896C66.3934 164.637 66.4603 164.419 66.5093 164.21C66.3077 164.011 65.8395 164.175 65.7456 163.79C66.0457 163.317 66.0457 163.317 65.4772 162.444C65.1883 162.384 64.8919 162.309 64.4932 162.217C64.5667 162.522 64.6124 162.734 64.658 162.945C64.9289 163.016 65.1563 163.092 65.4016 163.159C65.5163 163.369 65.6309 163.579 65.7456 163.79C65.5127 163.917 65.2977 164.034 65.0826 164.151C64.845 164.099 64.6073 164.046 64.3619 163.98C64.0573 164.146 63.7706 164.302 63.3585 164.527C63.1928 164.308 63.027 164.089 62.823 163.8C63.2659 163.504 63.609 163.281 64.0058 163.028C63.9678 162.83 63.9222 162.619 63.793 161.998C63.793 161.998 64.1946 161.925 64.4559 161.637C64.4077 161.463 64.293 161.253 64.273 161.045C64.263 160.942 64.391 160.835 64.4679 160.721C64.9407 160.863 64.9065 161.355 65.1795 161.643C65.8389 161.829 66.2262 161.218 66.9682 160.959C67.2696 161.085 67.7142 161.262 68.2328 161.488C68.3265 160.637 67.8927 160.182 67.5638 159.706C67.3772 159.663 67.2341 159.613 67.022 159.565C67.071 159.356 67.12 159.148 67.169 158.939C66.8959 158.652 66.6114 159.025 66.3352 159.03C66.1281 159.034 65.9083 158.972 65.7038 158.937C65.6369 159.156 65.5829 159.313 65.5289 159.469C65.4011 159.448 65.2272 159.47 65.1455 159.405C65.0409 159.299 65.0003 159.139 64.9188 158.947C65.1238 158.726 65.3288 158.505 65.5696 158.265C65.4349 157.847 65.3002 157.429 65.0993 156.848C65.5695 157.028 65.8633 157.141 66.2235 157.29C66.1901 157.399 66.1487 157.622 66.0997 157.83C66.7686 158.375 67.5728 157.719 68.4514 158.222C68.2555 157.692 68.1741 157.5 68.1003 157.322C67.6607 157.198 67.262 157.106 66.7969 156.977C66.6364 156.683 66.4606 156.36 66.2924 156.052C66.3361 155.919 66.344 155.805 66.3978 155.776C67.071 155.391 67.7416 155.044 68.4224 154.673C68.4298 154.814 68.5113 155.006 68.4523 155.111C68.2805 155.35 68.05 155.567 67.8552 155.764C67.9546 155.946 68.031 156.086 68.1228 156.255C68.4962 156.215 68.8516 156.185 69.6675 156.104C69.2828 156.678 69.0059 157.065 68.7469 157.443C69.212 157.571 69.5161 157.66 69.9633 157.798C70.1514 157.077 70.3292 156.38 70.4503 155.878C70.7578 155.546 70.9167 155.369 71.0653 155.215C70.7466 154.716 70.648 154.151 70.104 153.792C69.9143 154.041 69.7681 154.285 69.6296 154.542C69.3173 154.694 69.0306 154.85 68.8448 154.424C69.1678 153.993 69.5087 153.553 69.8317 153.122C69.5738 152.99 69.3081 152.844 69.0604 152.688C68.994 152.651 68.984 152.548 68.9457 152.477C68.9599 151.778 69.9056 151.936 70.0884 151.291C70.2351 150.792 70.6527 150.365 70.9707 149.882C70.8587 149.634 70.7875 149.418 70.6908 149.198C70.6323 149.048 70.5814 148.912 70.5305 148.776C70.8074 148.389 71.0664 148.011 71.4381 147.499C71.5815 147.421 71.8861 147.255 72.1728 147.099C72.2576 146.871 72.3424 146.642 72.4375 146.39C73.19 145.98 73.9426 145.57 74.5338 145.248C74.9364 144.665 75.2518 144.22 75.7313 143.522C76.5913 143.053 77.6843 142.458 78.7235 141.891C78.8109 141.625 78.8649 141.468 78.9318 141.25C79.6306 140.869 80.3652 140.469 81.1178 140.059C81.2205 139.821 81.3309 139.597 81.4542 139.311C81.8765 139.063 82.3809 138.752 82.8032 138.503C82.8804 138.261 82.9344 138.105 82.9987 137.924C83.572 137.611 84.1633 137.289 84.7725 136.957C84.8752 136.719 84.9601 136.491 85.0552 136.239C85.3239 136.093 85.6285 135.927 85.9152 135.77C86.0772 135.3 86.2468 134.844 86.4062 134.411C86.8162 133.97 87.2117 134.354 87.7258 134.274C88.1258 133.729 88.5642 133.126 88.9847 132.533C89.1789 132.591 89.3399 132.631 89.5265 132.674C89.6189 132.46 89.6935 132.256 89.7962 132.018C90.5308 131.618 91.2834 131.207 92.018 130.807C92.1028 130.579 92.1876 130.351 92.2724 130.123C93.0966 129.673 93.9208 129.224 94.745 128.775C94.8599 128.858 94.9925 129.059 95.0718 129.034C95.3712 128.943 95.3255 128.732 95.193 128.531C95.375 128.268 95.5315 128.001 95.7444 127.666C95.9594 127.549 96.264 127.383 96.5507 127.227C96.7817 126.755 96.3424 126.504 96.223 126.114C95.7065 126.105 95.1721 126.105 94.561 126.092C94.1847 126.297 93.7368 126.541 93.3068 126.776C93.1202 126.732 92.9592 126.692 92.7394 126.63C92.6111 126.864 92.4573 127.093 92.27 127.432C91.9427 127.428 91.5464 127.426 91.1066 127.429C90.9142 127.716 90.6937 128.036 90.4732 128.357C89.8487 128.661 89.3638 128.197 88.8065 128.155C88.5019 128.321 88.2152 128.478 87.821 128.693C87.0499 128.131 86.9599 127.07 86.2989 126.412C85.9208 126.272 85.6976 126.63 85.3983 126.721C85.1993 126.483 85.2359 126.081 84.7579 126.015C84.6757 126.205 84.5935 126.395 84.5037 126.571C84.0357 126.608 83.5856 126.635 83.1252 126.686C82.9057 126.497 82.6862 126.307 82.4922 126.122C82.2772 126.239 82.1339 126.317 81.9726 126.405C81.6585 126.212 81.3546 125.996 81.0329 125.789C80.9664 125.753 80.8718 125.75 80.7619 125.719C80.8289 125.5 80.8702 125.278 80.9474 125.035C80.8862 124.923 80.8098 124.783 80.7257 124.629C80.5059 124.567 80.2785 124.49 80.0587 124.428C80.1256 124.21 80.1849 123.978 80.2339 123.769C79.802 123.659 79.4212 123.557 79.1247 123.482C79.2843 122.922 79.4619 122.353 79.6215 121.793C79.7237 121.81 79.8847 121.849 80.0278 121.899C80.0739 121.855 80.1712 121.82 80.1738 121.783C80.1492 121.268 80.117 120.74 80.0874 120.174C79.8856 120.102 79.6684 120.003 79.2826 119.849C79.1935 119.643 78.9487 119.322 78.9136 118.959C78.8911 118.662 79.1372 118.346 78.8897 118.062C78.6117 117.723 78.6635 117.349 78.7947 116.95C78.8719 116.708 78.4505 116.446 78.827 116.114C78.9878 116.281 79.1486 116.448 79.317 116.629C80.0332 116.493 80.8609 116.861 81.6192 116.12C81.9718 116.255 82.3499 116.395 82.7613 116.552C82.7916 116.736 82.8193 116.957 82.8623 117.207C82.3358 117.093 81.886 116.993 81.4285 116.879C81.2128 117.378 81.6521 117.63 81.7868 118.048C81.156 118.937 81.8034 120.039 81.1445 120.963C81.5121 121.253 81.8568 121.502 82.1912 121.774C82.7027 121.732 83.1454 121.564 83.4149 121.035C83.1875 120.959 82.9856 120.887 82.7658 120.825C82.7924 120.319 83.3344 120.333 83.6034 120.059C83.7981 119.862 83.9035 119.586 84.0497 119.343C84.2695 119.405 84.4305 119.444 84.566 119.48C84.9422 119.275 85.2826 119.089 85.5872 118.923C85.8346 117.97 84.4198 118.359 84.5673 117.478C84.6523 117.122 85.0921 117.119 85.2818 116.87C85.4987 117.098 85.6387 117.44 85.88 116.944C85.7011 116.915 85.5222 116.885 85.2818 116.87ZM78.3279 177.196C77.9996 177.702 77.9996 177.702 78.5025 178.156C78.9022 177.738 78.3912 177.525 78.2331 177.32C78.5379 177.027 78.9013 176.883 78.3903 176.671C78.3439 176.842 78.2976 177.012 78.3279 177.196ZM235.921 114.477C235.637 114.213 235.49 113.857 235.256 114.367C235.435 114.396 235.614 114.426 235.806 114.394C236.311 114.683 236.311 114.683 236.803 114.178C236.39 113.803 236.131 114.308 235.921 114.477ZM212.46 147.928C212.345 147.845 212.213 147.645 212.115 147.68C211.816 147.77 211.862 147.982 211.994 148.182C211.753 148.423 211.181 148.353 211.272 148.903C211.962 148.763 211.962 148.763 211.994 148.182C212.155 148.094 212.299 148.016 212.46 147.928C212.966 148.217 212.966 148.217 213.458 147.712C213.052 147.351 212.793 147.856 212.46 147.928ZM89.6502 125.567C89.1721 125.5 87.717 125.602 87.428 125.669C87.32 125.982 87.212 126.296 87.0808 126.695C87.4133 126.623 87.7024 126.556 87.9991 126.504C88.4363 126.538 88.8345 126.885 89.313 126.697C89.4313 126.36 89.5214 126.056 89.6502 125.567ZM78.0973 174.811C78.7108 174.914 79.3242 175.016 79.9274 175.142C80.0971 174.686 79.7039 174.391 79.4743 174.097C79.1114 173.986 78.7997 173.883 78.5391 173.788C78.3599 173.886 78.2165 173.964 78.0195 174.072C78.0395 174.279 78.0596 174.486 78.0973 174.811ZM82.7936 123.647C82.0163 123.671 81.7896 123.212 81.4167 122.997C81.077 122.8 80.7373 122.603 80.3235 122.356C80.2841 122.923 80.6185 123.196 80.7126 123.453C81.2184 123.742 81.65 123.979 82.0561 124.213C82.2303 124.063 82.3481 123.981 82.7936 123.647ZM195.47 81.28C194.951 81.3083 194.458 81.3408 193.946 81.3831C193.864 81.7009 193.766 81.9906 193.694 82.2846C194.213 82.2564 194.681 82.2196 195.182 82.2011C195.259 81.9589 195.36 81.6314 195.47 81.28ZM198.181 156.311C198.452 156.637 198.594 156.813 198.771 157.008C198.945 156.732 199.088 156.526 199.25 156.311C199.735 156.519 200.191 156.544 200.299 156.103C199.959 155.906 199.619 155.709 199.387 155.581C198.936 155.863 198.675 156.024 198.181 156.311ZM100.48 108.896C99.2804 109.295 99.288 109.309 99.126 109.78C99.6528 109.765 100.047 109.55 100.48 108.896ZM91.4396 115.206C91.6154 115.528 91.6357 115.608 91.6918 115.669C91.7888 115.761 91.9216 115.834 92.0263 115.941C92.1032 115.826 92.1954 115.74 92.2468 115.621C92.3392 115.407 92.3806 115.184 92.5091 114.823C92.1305 114.938 91.8644 115.047 91.4396 115.206ZM94.3965 184.718C94.7574 185.85 94.7574 185.85 95.2404 185.968C95.2491 185.472 95.0503 185.108 94.3965 184.718ZM91.019 189.906C90.7154 189.562 90.3241 189.612 89.9791 189.491C89.8095 189.947 89.9623 190.228 90.4812 190.327C90.663 190.191 90.8448 190.056 91.019 189.906ZM91.3142 111.309C91.6571 112.45 91.6751 112.44 92.1581 112.559C92.1744 112.077 91.968 111.698 91.3142 111.309ZM80.5898 119.519C80.7292 118.879 80.4998 118.458 79.8943 118.242C79.7473 118.868 79.9843 119.303 80.5898 119.519ZM214.603 146.487C214.13 146.345 213.826 146.511 213.689 146.986C214.162 147.128 214.467 146.962 214.603 146.487ZM72.4758 149.062C72.5654 149.013 72.6653 148.94 72.7548 148.892C72.6913 148.69 72.6201 148.474 72.5208 148.291C72.4978 148.249 72.3368 148.21 72.301 148.229C72.2088 148.316 72.0678 148.484 72.0984 148.54C72.1875 148.746 72.3585 148.889 72.4758 149.062ZM68.9485 159.006C69.5134 159.062 69.8613 159.018 69.7958 158.472C69.4227 158.384 69.1795 158.535 68.9485 159.006ZM128.568 92.0776C128.468 92.0227 128.361 91.9539 128.261 91.899C128.23 91.9704 128.171 92.0753 128.194 92.1174C128.266 92.2058 128.391 92.2649 128.49 92.3198C128.514 92.2344 128.544 92.163 128.568 92.0776ZM118.236 98.3637C118.302 98.2728 118.379 98.1581 118.438 98.0532C118.362 98.0404 118.254 97.9715 118.226 98.0051C118.134 98.0917 118.075 98.1967 117.99 98.2973C118.057 98.3339 118.133 98.3467 118.236 98.3637ZM111.639 102.123C111.572 102.214 111.496 102.328 111.437 102.433C111.513 102.446 111.62 102.515 111.649 102.481C111.741 102.395 111.8 102.29 111.884 102.189C111.818 102.153 111.741 102.14 111.639 102.123ZM202.689 65.1034C202.666 65.1888 202.635 65.2602 202.612 65.3456C202.742 65.3291 202.87 65.3504 202.985 65.3058C203.029 65.3003 203.047 65.1631 203.06 65.1015C202.94 65.0942 202.819 65.0869 202.689 65.1034ZM73.576 147.371C73.5992 147.285 73.63 147.214 73.6532 147.129C73.5227 147.145 73.3949 147.124 73.2798 147.168C73.2363 147.174 73.2361 147.301 73.2052 147.373C73.3254 147.38 73.4635 147.377 73.576 147.371ZM86.1539 163.071C86.1231 163.143 86.0641 163.248 86.087 163.29C86.1584 163.378 86.2836 163.437 86.3832 163.492C86.414 163.421 86.473 163.316 86.4501 163.274C86.3787 163.185 86.2535 163.126 86.1539 163.071ZM83.5473 167.584C83.4477 167.53 83.3404 167.461 83.2408 167.406C83.21 167.477 83.151 167.582 83.1739 167.624C83.2453 167.713 83.3629 167.758 83.4701 167.827C83.4933 167.741 83.5241 167.67 83.5473 167.584ZM79.9387 170.643C79.8391 170.588 79.7318 170.519 79.6322 170.464C79.6014 170.535 79.5424 170.64 79.5653 170.682C79.6367 170.771 79.7619 170.83 79.8615 170.885C79.8847 170.799 79.9155 170.728 79.9387 170.643ZM82.6442 169.168C82.5446 169.113 82.4373 169.044 82.3377 168.989C82.3069 169.061 82.2479 169.166 82.2708 169.208C82.3422 169.296 82.4674 169.355 82.567 169.41C82.5902 169.325 82.621 169.253 82.6442 169.168ZM226.066 92.0899C226.15 92.1167 226.227 92.1295 226.311 92.1563C226.312 92.0288 226.337 91.9056 226.302 91.7977C226.287 91.7696 226.159 91.7483 226.082 91.7356C226.074 91.849 226.074 91.9765 226.066 92.0899ZM102.229 175.211C102.162 175.302 102.085 175.416 102.026 175.521C102.103 175.534 102.21 175.603 102.238 175.569C102.331 175.483 102.39 175.378 102.474 175.277C102.408 175.24 102.331 175.228 102.229 175.211ZM93.1768 187.384C93.0925 187.357 93.0158 187.345 92.9315 187.318C92.9312 187.445 92.9054 187.568 92.941 187.676C92.9639 187.718 93.0841 187.726 93.1608 187.738C93.1687 187.625 93.1689 187.498 93.1768 187.384ZM88.9087 191.62C88.9319 191.535 88.9627 191.464 88.9859 191.378C88.8555 191.395 88.7277 191.373 88.6125 191.418C88.5691 191.423 88.5688 191.551 88.538 191.622C88.6581 191.63 88.7962 191.627 88.9087 191.62ZM233.861 112.617C233.927 112.526 234.004 112.411 234.063 112.306C233.987 112.293 233.879 112.225 233.851 112.258C233.759 112.345 233.7 112.45 233.615 112.55C233.7 112.577 233.776 112.59 233.861 112.617ZM234.432 114.943C234.516 114.97 234.593 114.983 234.677 115.01C234.677 114.882 234.703 114.759 234.667 114.651C234.644 114.609 234.524 114.602 234.448 114.589C234.44 114.702 234.432 114.816 234.432 114.943ZM210.765 149.125C210.688 149.112 210.581 149.043 210.553 149.077C210.461 149.164 210.384 149.278 210.299 149.379C210.376 149.392 210.483 149.461 210.511 149.427C210.629 149.345 210.688 149.24 210.765 149.125ZM197.641 156.642C197.574 156.733 197.497 156.847 197.438 156.952C197.515 156.965 197.622 157.034 197.651 157C197.743 156.914 197.802 156.809 197.886 156.708C197.802 156.681 197.743 156.659 197.641 156.642Z" fill="#E0C4C1"/>
</g>
<path d="M78.0913 118.386C87.3328 123.728 97.047 128.219 107.093 131.822C108.217 132.225 108.956 130.419 107.895 129.877C101.884 126.809 95.8725 123.74 89.8623 120.672C88.6322 120.044 87.6945 121.72 88.7975 122.507C90.2199 123.522 91.7883 124.265 93.4665 124.758C94.7068 125.122 95.1571 123.486 94.268 122.813C89.8841 119.493 85.226 116.557 80.3377 114.035C79.1295 113.412 78.0572 115.239 79.2729 115.87C92.1176 122.548 104.963 129.225 117.808 135.903C119.016 136.53 120.087 134.699 118.873 134.068C106.028 127.39 93.1825 120.713 80.3377 114.035C79.9828 114.647 79.6278 115.259 79.2729 115.87C84.1603 118.394 88.8178 121.327 93.2032 124.648C93.4709 124 93.7386 123.352 94.0047 122.703C92.4992 122.261 91.1384 121.58 89.8632 120.67C89.5083 121.282 89.1533 121.894 88.7984 122.505C94.8086 125.573 100.82 128.643 106.831 131.711C107.098 131.063 107.366 130.415 107.632 129.766C97.762 126.226 88.2342 121.794 79.1563 116.547C77.9746 115.867 76.9082 117.702 78.0913 118.386Z" fill="#D3A4A1"/>
<path d="M127.571 142.132C119.988 137.853 112.107 134.134 103.993 130.976C102.72 130.481 102.199 132.531 103.454 133.028C110.556 135.843 117.658 138.657 124.76 141.47C124.941 140.785 125.119 140.102 125.299 139.417C120.797 138.242 116.839 135.721 113.355 132.692C113.012 133.282 112.671 133.871 112.328 134.461C118.243 136.493 123.95 139.058 129.405 142.118C129.76 141.507 130.114 140.895 130.469 140.283C126.118 138.112 121.765 135.94 117.412 133.77C117.057 134.382 116.702 134.994 116.348 135.605C122.009 138.183 127.672 140.761 133.333 143.339C133.6 142.691 133.868 142.043 134.134 141.394C128.911 139.407 123.894 136.921 119.132 133.999C119.129 134.613 119.125 135.226 119.122 135.84C120.3 135.247 122.01 136.166 123.11 136.588C124.822 137.245 126.501 137.995 128.125 138.845C131.313 140.513 134.228 142.582 136.766 145.137C138.897 147.281 141.788 149.708 141.444 153.02C141.366 153.775 141.217 154.581 140.989 155.306C140.831 155.807 140.744 155.932 140.266 156.135C139.924 156.282 139.569 156.397 139.231 156.559C137.828 157.237 136.694 158.364 135.898 159.693C135.193 160.87 136.996 161.899 137.734 160.757C138.967 158.85 140.532 157.181 142.377 155.851C141.849 155.545 141.32 155.238 140.793 154.932C140.994 157.308 139.623 159.685 137.331 160.5C137.764 160.931 138.197 161.364 138.63 161.795C139.483 159.148 141.383 157.043 143.874 155.833C143.451 155.272 143.029 154.713 142.606 154.153C140.607 156.697 138.202 158.838 135.421 160.497C135.904 160.63 136.385 160.764 136.868 160.897C136.751 160.629 136.217 159.43 136.837 159.491C138.048 159.613 138.244 157.697 137.104 157.404C135.46 156.981 135.837 154.767 136.094 153.553C136.381 152.203 136.696 150.832 136.393 149.452C136.124 148.231 135.361 147.214 134.183 146.763C133.083 146.342 131.811 146.507 130.99 147.397C130.292 148.153 130.945 149.47 132.006 149.18C133.627 148.736 133.622 152.35 133.888 153.205C134.15 154.046 134.625 154.823 135.334 155.356C135.954 155.824 136.986 156.215 137.735 155.813C139.045 155.108 139.576 153.055 139.503 151.698C139.411 150.024 138.614 148.543 137.219 147.611C136.483 147.119 135.356 147.945 135.662 148.801C136.548 151.28 137.027 153.845 137.067 156.477C137.084 157.568 138.476 157.864 139.046 157.005C140.752 154.438 141.92 151.551 142.476 148.519C142.685 147.373 141.178 146.652 140.531 147.717C139.41 149.567 138.59 151.573 138.093 153.676C138.778 153.857 139.461 154.035 140.146 154.215C140.625 150.746 136.731 148.632 134.333 146.938C130.86 144.486 127.22 142.282 123.447 140.326C122.222 139.69 121.276 141.38 122.383 142.161C127.005 145.422 132.3 147.662 137.859 148.71C139.003 148.926 139.731 147.405 138.661 146.765C133.927 143.939 128.916 141.612 123.709 139.793C122.401 139.336 121.934 141.349 123.171 141.846C126.799 143.307 130.312 145.039 133.699 146.999C133.966 146.351 134.234 145.703 134.5 145.054C133.632 144.771 132.839 144.387 132.066 143.904C131.799 144.552 131.531 145.2 131.265 145.849C132.386 146.267 133.449 146.859 134.388 147.602C134.817 147.048 135.247 146.494 135.678 145.94C134.119 145.236 133.301 143.562 133.806 141.906C133.212 142.064 132.617 142.222 132.023 142.38C134.353 145.353 136.682 148.326 139.013 151.299C139.442 150.745 139.872 150.191 140.304 149.638C136.15 147.739 132.078 145.671 128.099 143.428C124.393 141.338 120.705 139.119 116.539 138.076C115.399 137.79 114.666 139.434 115.738 140.021C121.669 143.27 127.472 146.745 133.136 150.442C133.404 149.794 133.671 149.146 133.937 148.497C125.486 146.296 118.229 141.29 110.803 136.904C103.563 132.628 95.8357 129.215 88.7323 124.705C84.7194 122.158 80.9756 119.221 77.8169 115.653C77.6551 116.242 77.494 116.833 77.3322 117.422C79.4841 116.68 81.731 118.476 83.4787 119.509C86.0028 121 88.5278 122.489 91.0519 123.98C96.1506 126.992 101.252 130.003 106.35 133.014C109.228 134.713 112.107 136.414 114.985 138.112C116.165 138.809 117.2 137.008 116.05 136.277C108.185 131.28 99.5802 127.49 90.5869 125.05C89.4704 124.747 88.6627 126.499 89.7854 126.995C98.4739 130.82 106.884 135.248 114.955 140.247C115.309 139.635 115.664 139.023 116.019 138.412C113.288 137.046 110.687 135.455 108.229 133.642C107.874 134.254 107.519 134.865 107.164 135.477C108.339 136.073 109.668 135.121 109.455 133.801C109.244 132.504 107.619 131.512 106.728 130.694C106.65 131.25 106.571 131.806 106.495 132.36C107.375 131.718 108.511 132.412 109.343 132.841C110.842 133.615 112.333 134.404 113.82 135.198C116.746 136.758 119.652 138.352 122.542 139.976C122.897 139.365 123.252 138.753 123.607 138.141C119.249 135.723 114.995 133.13 110.85 130.363C110.583 131.012 110.315 131.66 110.049 132.309C113.348 133.338 116.646 134.368 119.947 135.398C120.127 134.714 120.305 134.03 120.486 133.346C109.381 130.169 98.2746 126.992 87.1698 123.815C85.641 123.378 84.0973 122.977 82.5809 122.493C81.515 122.153 79.8581 121.394 80.2503 119.992C79.7306 120.208 79.2109 120.424 78.6904 120.641C83.0095 122.583 86.9368 125.231 90.3299 128.533C90.6724 127.943 91.0141 127.354 91.3566 126.764C88.2464 125.754 86.0824 123.198 84.1316 120.705C82.0819 118.083 80.1437 115.399 77.4533 113.384C76.3633 112.567 75.3067 114.409 76.3885 115.219C81.7473 119.234 84.0403 126.619 90.8153 128.817C91.8203 129.142 92.5742 127.758 91.842 127.047C88.3197 123.62 84.2352 120.822 79.7519 118.808C79.1261 118.527 78.3944 118.738 78.192 119.456C77.4112 122.254 80.0436 123.953 82.3379 124.642C85.3648 125.552 88.4187 126.384 91.4569 127.253C97.5051 128.984 103.553 130.712 109.601 132.443C113.048 133.429 116.494 134.415 119.941 135.401C121.257 135.778 121.782 133.754 120.48 133.348C117.181 132.319 113.883 131.289 110.582 130.259C109.39 129.886 108.824 131.565 109.78 132.204C113.926 134.969 118.179 137.564 122.537 139.982C123.729 140.643 124.795 138.816 123.602 138.146C120.306 136.294 116.989 134.481 113.648 132.712C112.159 131.924 110.678 131.034 109.114 130.403C107.932 129.925 106.537 129.719 105.442 130.518C104.924 130.897 104.655 131.677 105.209 132.184C105.637 132.578 106.067 132.97 106.495 133.364C106.69 133.542 106.889 133.717 107.08 133.899C107.135 133.952 107.19 134.004 107.244 134.056C107.506 134.423 107.833 134.285 108.223 133.645C106.984 133.018 106.072 134.68 107.158 135.48C109.617 137.291 112.217 138.884 114.949 140.25C116.163 140.856 117.184 139.139 116.014 138.415C107.942 133.417 99.5321 128.989 90.8445 125.162C90.5768 125.81 90.3092 126.458 90.043 127.107C98.8664 129.502 107.264 133.215 114.98 138.117C115.335 137.506 115.69 136.894 116.045 136.282C105.442 130.022 94.8391 123.76 84.2343 117.498C82.0281 116.196 79.4539 114.453 76.7805 115.375C76.0114 115.64 75.7435 116.521 76.2958 117.144C81.993 123.577 89.5103 127.902 97.0281 131.863C100.895 133.901 104.799 135.875 108.582 138.068C112.339 140.246 115.993 142.593 119.776 144.727C124.085 147.157 128.588 149.3 133.394 150.551C134.58 150.859 135.184 149.251 134.195 148.606C128.531 144.909 122.729 141.434 116.797 138.184C116.53 138.832 116.262 139.481 115.996 140.129C120.094 141.156 123.688 143.389 127.336 145.436C131.216 147.614 135.189 149.624 139.234 151.474C140.347 151.983 141.271 150.768 140.525 149.813C138.194 146.84 135.865 143.868 133.535 140.894C133.005 140.219 131.963 140.672 131.751 141.368C130.995 143.848 132.232 146.702 134.611 147.776C135.599 148.223 136.917 146.921 135.902 146.115C134.639 145.114 133.313 144.359 131.804 143.797C130.645 143.366 130.026 145.13 131.002 145.742C131.933 146.322 132.921 146.769 133.962 147.109C135.113 147.485 135.785 145.757 134.763 145.164C131.21 143.108 127.517 141.328 123.709 139.793C123.529 140.477 123.351 141.161 123.171 141.846C128.2 143.603 133.021 145.87 137.596 148.6C137.864 147.952 138.131 147.304 138.397 146.655C133.001 145.636 127.934 143.489 123.447 140.323C123.092 140.935 122.737 141.547 122.382 142.159C125.638 143.847 128.796 145.718 131.832 147.779C133.307 148.78 134.781 149.806 136.177 150.915C136.951 151.53 138.25 152.537 138.093 153.674C137.912 154.986 139.822 155.579 140.145 154.213C140.6 152.28 141.337 150.479 142.365 148.78C141.717 148.512 141.069 148.244 140.42 147.978C139.895 150.846 138.821 153.51 137.208 155.939C137.868 156.115 138.526 156.291 139.186 156.467C139.143 153.664 138.653 150.894 137.709 148.253C137.191 148.65 136.671 149.047 136.152 149.443C137.696 150.474 137.784 152.894 136.466 154.131C136.713 154.029 136.96 153.928 137.207 153.827C135.489 153.901 135.673 150.53 135.271 149.447C134.696 147.897 133.167 146.661 131.462 147.127C131.8 147.721 132.14 148.315 132.478 148.91C133.148 148.184 134.066 149.054 134.282 149.746C134.643 150.904 134.208 152.174 133.979 153.313C133.504 155.674 133.777 158.74 136.565 159.456C136.654 158.76 136.743 158.065 136.832 157.368C135.836 157.267 134.964 157.959 134.614 158.859C134.201 159.916 134.599 160.963 135.024 161.943C135.249 162.462 136.02 162.613 136.47 162.343C139.4 160.596 141.985 158.349 144.094 155.668C144.819 154.747 143.971 153.432 142.827 153.988C139.823 155.449 137.599 158.09 136.578 161.258C136.345 161.985 137.137 162.815 137.877 162.554C141.02 161.438 143.202 158.301 142.916 154.929C142.856 154.222 142.035 153.502 141.332 154.01C139.169 155.568 137.35 157.456 135.901 159.696C136.512 160.051 137.124 160.406 137.736 160.761C138.492 159.497 139.573 158.666 140.938 158.142C142.421 157.573 142.869 156.642 143.209 155.143C143.514 153.8 143.734 152.413 143.505 151.04C143.285 149.724 142.619 148.586 141.812 147.545C137.887 142.483 132.709 138.537 126.898 135.893C125.312 135.171 123.684 134.492 122.029 133.945C120.707 133.507 119.357 133.353 118.078 133.997C117.334 134.371 117.415 135.436 118.069 135.838C122.996 138.862 128.195 141.396 133.598 143.449C134.704 143.871 135.488 142.001 134.399 141.504C128.738 138.927 123.075 136.349 117.414 133.771C116.193 133.216 115.113 134.989 116.349 135.606C120.701 137.777 125.054 139.95 129.406 142.119C130.617 142.724 131.672 140.958 130.471 140.284C124.855 137.132 118.961 134.501 112.869 132.409C111.895 132.076 111.062 133.501 111.842 134.179C115.615 137.46 119.883 140.198 124.762 141.471C126.117 141.824 126.537 139.909 125.301 139.418C118.199 136.604 111.097 133.789 103.994 130.977C103.814 131.661 103.636 132.345 103.455 133.029C111.392 136.117 119.092 139.782 126.508 143.968C127.695 144.638 128.763 142.805 127.571 142.132Z" fill="#D3A4A1"/>
<path d="M177.528 166.144C184.161 169.474 190.84 172.711 197.561 175.857C197.829 175.209 198.097 174.561 198.363 173.912C191.44 171.518 185.074 167.851 178.753 164.206C178.485 164.854 178.217 165.502 177.951 166.151C184.08 167.799 190.067 169.985 195.462 173.377C196.618 174.103 197.682 172.267 196.526 171.542C190.981 168.057 184.789 165.792 178.49 164.098C177.337 163.789 176.646 165.44 177.689 166.043C184.179 169.785 190.718 173.509 197.825 175.966C198.942 176.353 199.714 174.532 198.626 174.021C191.905 170.876 185.227 167.637 178.593 164.309C177.378 163.7 176.304 165.53 177.528 166.144Z" fill="#D3A4A1"/>
<path d="M225.308 190.86C224.863 191.871 224.372 192.872 223.977 193.904C223.693 194.647 223.594 195.565 224.13 196.227C224.759 197.003 225.581 196.699 226.368 196.397C227.354 196.019 228.315 195.606 229.201 195.024C228.683 194.626 228.168 194.228 227.65 193.832C227.33 195.38 227.111 196.949 227.012 198.527C226.959 199.377 226.942 200.228 226.961 201.079C226.975 201.746 226.934 202.507 227.256 203.115C227.555 203.681 228.11 204.046 228.765 203.98C229.504 203.908 229.927 203.377 230.362 202.834C231.503 201.413 232.643 199.991 233.783 198.572C233.181 198.321 232.58 198.07 231.979 197.817C232.011 199.382 231.864 200.907 231.519 202.432C231.368 203.105 231.846 203.754 232.548 203.763C233.871 203.78 233.874 204.909 234.203 205.878C234.365 206.356 234.612 206.776 235.018 207.085C235.242 207.256 235.481 207.364 235.743 207.463C235.864 207.508 236.383 207.723 236.306 207.62C236.791 207.139 237.276 206.659 237.761 206.179C236.983 205.645 236.66 204.595 236.269 203.78C235.844 202.895 235.38 202.031 234.877 201.19C233.878 199.514 232.724 197.935 231.465 196.448C231.083 195.997 230.364 196.073 229.965 196.434C229.095 197.217 228.227 198.002 227.358 198.785C227.914 198.862 228.469 198.941 229.024 199.018C228.365 197.957 227.618 196.959 226.788 196.026C226.296 195.475 225.483 195.702 225.112 196.237C224.601 196.973 224.091 197.71 223.581 198.446C224.229 198.713 224.877 198.981 225.526 199.247C225.819 198.223 226.218 197.257 226.758 196.338C227.283 195.443 228.058 194.717 228.568 193.827C229.371 192.426 228.651 190.404 226.828 190.583C225.203 190.742 223.871 192.635 223.076 193.89C222.12 195.396 221.829 197.128 222.535 198.789C223.069 200.046 224.909 198.985 224.381 197.743C223.984 196.809 224.407 195.75 224.911 194.955C225.238 194.44 225.637 193.978 226.045 193.526C226.216 193.337 226.391 193.122 226.591 192.958C226.615 192.937 227.031 192.704 227.036 192.68C226.962 192.65 226.885 192.62 226.811 192.589C226.745 192.759 226.653 192.914 226.531 193.054C226.374 193.265 226.193 193.461 226.029 193.668C225.661 194.137 225.314 194.621 225.004 195.132C224.331 196.246 223.83 197.46 223.47 198.71C223.123 199.918 224.76 200.457 225.415 199.512C225.926 198.776 226.435 198.039 226.946 197.303C226.388 197.374 225.83 197.445 225.271 197.515C225.983 198.314 226.612 199.158 227.176 200.067C227.547 200.667 228.321 200.771 228.842 200.3C229.711 199.517 230.579 198.733 231.449 197.949C230.948 197.945 230.449 197.939 229.948 197.935C231.292 199.522 232.478 201.227 233.494 203.042C234.448 204.751 235.015 206.864 236.694 208.015C237.531 208.588 238.775 207.419 238.15 206.574C237.934 206.283 237.736 206.025 237.415 205.839C237.13 205.674 236.651 205.655 236.405 205.459C236.007 205.14 236.031 204.296 235.836 203.817C235.291 202.464 233.973 201.659 232.537 201.641C232.88 202.085 233.224 202.528 233.565 202.971C233.948 201.276 234.131 199.548 234.095 197.81C234.077 196.984 232.893 196.306 232.29 197.056C231.48 198.064 230.672 199.073 229.862 200.081C229.494 200.54 229.128 201 228.758 201.456C228.663 201.58 228.564 201.701 228.461 201.819C228.21 202.058 228.428 202.127 229.114 202.026C229.197 201.942 229.085 201.343 229.082 201.229C229.021 198.92 229.232 196.626 229.699 194.366C229.869 193.537 228.957 192.642 228.148 193.174C227.639 193.509 227.11 193.797 226.554 194.044C226.312 194.151 226.065 194.249 225.818 194.343C225.389 194.507 224.82 194.449 225.479 194.821C225.995 195.112 225.824 195.033 225.944 194.653C226.031 194.381 226.175 194.112 226.289 193.852C226.572 193.209 226.856 192.564 227.14 191.921C227.688 190.69 225.86 189.61 225.308 190.86Z" fill="#D3A4A1"/>
<path d="M243.92 213.983C243.623 211.687 242.706 209.17 241.197 206.504C238.392 201.548 234.557 197.796 233.684 197.063C233.16 196.624 232.522 196.557 231.842 196.849C231.833 195.825 231.665 194.955 231.266 194.491C231.045 194.234 230.613 193.975 229.811 194.205C229.58 194.271 229.335 194.372 229.083 194.504C229.491 192.98 229.652 191.209 228.663 190.237C228.011 189.595 227.087 189.654 225.998 190.383C225.965 190.074 225.912 189.773 225.841 189.481C225.533 188.235 224.868 187.191 223.863 186.375C222.437 185.218 177.694 162.32 175.651 161.276C175.485 161.161 175.299 161.047 175.089 160.933C174.706 160.727 173.898 160.273 172.78 159.642C167.862 156.877 157.627 151.12 149.766 147.379C146.474 145.812 142.77 144.051 138.817 142.177C139.203 141.299 140.014 140.588 141.235 140.062C148.385 136.978 153.141 137.624 155.17 137.9L155.335 137.922C157.818 138.254 160.757 139.101 163.349 139.849C167.739 141.114 171.206 142.114 171.681 140.591C171.985 139.616 171.765 138.121 171.093 136.588C170.447 135.116 169.498 133.883 168.619 133.372C168.607 133.365 168.594 133.358 168.582 133.351C167.624 132.815 161.118 132.007 155.094 131.443C151.864 131.141 148.821 130.913 146.525 130.801C142.547 130.606 142.242 130.824 142.126 130.906C141.99 131.003 141.909 131.133 141.889 131.291C141.82 131.8 142.411 132.522 143.094 133.356C143.922 134.368 144.861 135.516 144.69 136.353C144.518 137.195 144.203 137.632 144.072 137.707C144.053 137.647 144.024 137.471 144.126 137.039C144.291 136.332 143.969 135.372 143.222 134.34C142.584 133.461 141.711 132.637 140.94 132.19C140.692 132.046 140.464 131.947 140.261 131.894C139.481 131.691 136.74 132.312 132.113 133.741C129.058 134.683 126.145 135.683 125.526 135.898C125.156 135.724 124.788 135.552 124.417 135.377C124.3 135.318 124.182 135.257 124.058 135.194C119.16 132.681 107.693 126.796 97.3305 121.773C91.5171 118.954 86.8457 116.791 83.4434 115.345C77.8762 112.975 76.7595 112.969 76.4132 113.175C76.1663 112.698 75.8335 112.381 75.4377 112.249C73.387 111.566 65.1082 110.988 61.8383 116.828C61.2029 117.962 61.2494 119.827 61.9666 122.078C62.4956 123.739 63.3445 125.439 64.3608 126.869C65.3406 128.249 66.4081 129.288 67.4695 129.903C67.6087 129.984 67.7483 130.057 67.8861 130.123C69.275 130.783 77.9536 134.985 88.9412 140.301C110.037 150.511 138.931 164.496 140.343 165.099C140.695 165.25 141.128 165.188 141.569 165.023C141.96 165.24 142.755 165.632 144.392 166.389C146.241 167.245 148.889 168.438 152.483 170.037C159.154 173.002 168.122 176.932 176.797 180.732C190.687 186.82 205.054 193.113 209.422 195.21C215.081 197.925 219.008 199.063 220.511 198.424C221.351 198.949 229.05 203.771 232.681 206.465C232.964 206.674 233.267 206.897 233.587 207.13C235.654 208.638 238.225 210.516 240.039 212.692C242.159 215.239 242.692 217.545 241.665 219.742L241.959 219.879C242.537 218.643 242.645 217.344 242.278 216.017C241.967 214.884 241.297 213.696 240.288 212.485C238.449 210.278 235.859 208.386 233.778 206.868C233.457 206.635 233.157 206.414 232.873 206.204C231.927 205.502 230.708 204.658 229.405 203.783C229.473 203.796 229.535 203.795 229.588 203.787C230.158 203.705 230.624 202.767 230.914 201.995C231.4 200.703 231.789 198.813 231.83 197.208C232.336 196.951 232.928 196.861 233.466 197.312C234.33 198.039 238.125 201.751 240.906 206.664C243.204 210.722 245.252 216.536 241.965 221.179L242.23 221.368C243.719 219.28 244.284 216.795 243.92 213.983ZM227.837 196.951C227.406 197.889 226.904 198.777 226.426 199.454C225.877 200.231 225.586 200.4 225.514 200.401C225.239 200.217 225.138 199.919 225.203 199.491C225.391 198.251 226.988 196.311 228.52 195.232C228.275 195.967 228.003 196.592 227.837 196.951ZM194.365 171.639C194.553 171.752 194.738 171.87 194.916 171.989C195.784 172.646 196.365 173.239 196.716 173.72C196.728 173.815 196.69 173.857 196.674 173.876C196.416 174.166 195.128 174.15 193.146 173.583C192.091 172.969 191.25 172.172 191.273 171.153C191.28 170.881 191.383 170.735 191.611 170.681C192.096 170.564 193.085 170.896 194.216 171.553C194.264 171.58 194.314 171.61 194.365 171.639ZM196.917 174.093C196.924 174.084 196.931 174.076 196.938 174.066C197.129 174.41 197.176 174.67 197.107 174.825C197.017 175.03 196.653 175.048 196.158 174.873C195.679 174.703 195.087 174.495 194.482 174.238C195.657 174.464 196.587 174.461 196.917 174.093ZM192.137 170.254C192.24 170.308 192.341 170.363 192.441 170.416C192.106 170.332 191.789 170.3 191.534 170.362C191.166 170.451 190.958 170.729 190.948 171.144C190.931 171.913 191.3 172.606 192.074 173.243C191.686 173.11 191.276 172.956 190.851 172.783C188.981 172.025 185.525 170.175 182.446 168.282C181.485 167.692 180.618 167.132 179.861 166.615C179.974 166.66 180.086 166.703 180.196 166.742C181.207 167.106 182.498 167.383 183.09 167.064C183.289 166.956 183.581 166.686 183.305 166.08C183.178 165.802 182.885 165.501 182.499 165.204C185.797 166.925 189.566 168.896 192.137 170.254ZM183.005 166.217C183.198 166.635 183.011 166.735 182.933 166.778C182.529 166.995 181.474 166.858 180.304 166.436C179.101 166.002 178.117 165.393 177.798 164.882C177.501 164.405 177.344 163.952 177.194 163.514C177.157 163.411 177.123 163.309 177.086 163.206C177.761 163.272 178.823 163.602 179.952 164.115C181.53 164.831 182.757 165.675 183.005 166.217ZM177.309 164.676C176.797 164.216 176.485 163.847 176.403 163.588C176.321 163.341 176.418 163.28 176.514 163.242C176.575 163.218 176.648 163.203 176.736 163.197C176.787 163.335 176.837 163.474 176.885 163.619C177.002 163.961 177.123 164.309 177.309 164.676ZM178.932 163.347C178.209 163.085 177.492 162.891 176.956 162.871C176.844 162.605 176.71 162.346 176.519 162.092C177.119 162.403 177.949 162.836 178.932 163.347ZM140.184 132.21C140.358 132.255 140.56 132.344 140.782 132.473C142.195 133.292 144.134 135.591 143.814 136.967C143.678 137.55 143.712 137.891 143.915 138.009C143.996 138.056 144.095 138.058 144.192 138.014C144.513 137.869 144.852 137.215 145.013 136.42C145.214 135.431 144.224 134.22 143.349 133.153C142.767 132.441 142.165 131.705 142.214 131.337C142.223 131.268 142.254 131.217 142.317 131.172C142.395 131.117 142.924 130.952 146.511 131.128C148.801 131.24 151.839 131.468 155.064 131.769C162.149 132.431 167.642 133.2 168.423 133.637C168.433 133.643 168.444 133.649 168.455 133.655C170.143 134.635 172 138.474 171.371 140.495C170.991 141.713 167.324 140.657 163.44 139.536C160.838 138.786 157.887 137.935 155.381 137.599L155.218 137.578C154.206 137.44 152.514 137.211 150.135 137.4C147.245 137.631 144.208 138.426 141.11 139.764C139.812 140.324 138.945 141.088 138.525 142.038C134.526 140.143 130.28 138.135 125.951 136.098C129.828 134.762 138.793 131.848 140.184 132.21ZM138.332 142.607C137.633 145.492 140.6 149.105 142.375 151.263C142.918 151.924 143.43 152.546 143.458 152.727C143.802 154.928 143.833 157.577 139.798 161.181C138.541 162.303 135.858 161.609 134.441 160.787C134.279 160.693 134.138 160.599 134.021 160.508C133.963 160.463 133.953 160.428 133.95 160.402C133.931 160.236 134.203 159.911 134.49 159.569C135.056 158.893 135.912 157.871 136.067 156.418C136.25 154.707 135.411 152.768 133.573 150.651C133.355 150.4 132.709 149.966 131.597 149.321C126.304 146.25 111.328 138.957 99.2947 133.097C90.6546 128.889 83.1925 125.254 81.3114 124.163C81.1508 124.07 81.0333 123.998 80.9613 123.946C79.1867 122.671 77.6007 118.974 76.9183 116.021C76.9274 115.481 76.8963 114.974 76.8263 114.521C77.1998 114.617 77.7866 114.8 78.7059 115.139C80.1295 115.662 82.1494 116.483 84.7086 117.575C89.2744 119.525 95.7134 122.411 103.849 126.152C110.366 129.151 117.399 132.432 124.278 135.667C124.703 135.885 125.075 136.076 125.389 136.236L125.45 136.267L125.512 136.246C129.953 138.336 134.312 140.397 138.408 142.338C138.38 142.428 138.355 142.518 138.332 142.607ZM76.2359 114.421C76.255 114.42 76.278 114.419 76.3087 114.423C76.3679 114.923 76.4673 115.477 76.6014 116.06C76.5639 118.091 75.9399 120.621 74.6746 122.598C73.6707 124.166 72.6598 125.415 71.7757 126.382C72.2117 125.778 72.6689 125.103 73.1134 124.376C74.6483 121.861 76.4333 118.101 76.2359 114.421ZM76.5679 113.49C76.5676 113.469 76.5718 113.465 76.5859 113.455C76.6791 113.397 77.0713 113.32 78.6774 113.839C79.8066 114.204 81.3692 114.812 83.325 115.644C86.7218 117.089 91.3886 119.249 97.1974 122.066C103.594 125.166 110.412 128.596 115.846 131.357C111.73 129.435 107.658 127.547 103.772 125.76C95.6086 122.007 89.1672 119.122 84.6235 117.186C82.0735 116.099 80.0694 115.29 78.6703 114.781C77.7407 114.442 77.1473 114.263 76.7639 114.174C76.7196 113.968 76.6665 113.778 76.6054 113.601C76.5939 113.568 76.5817 113.536 76.5694 113.505C76.5681 113.5 76.5677 113.493 76.5679 113.49ZM141.594 164.666C141.585 164.66 141.578 164.656 141.568 164.651C141.648 164.566 141.766 164.444 141.897 164.31C142.762 163.424 144.565 161.579 146.104 159.19C148.027 156.207 148.849 153.437 148.546 150.958C148.417 149.898 148.574 149.373 148.749 149.246C148.783 149.221 148.834 149.197 148.922 149.236C149.196 149.362 149.51 149.939 149.578 150.796C149.987 155.905 145.872 161.743 142.745 163.993C142.327 164.294 141.939 164.52 141.594 164.666ZM220.614 198.104L220.537 198.055L220.456 198.096C220.017 198.316 219.018 198.441 216.745 197.797C214.838 197.257 212.425 196.288 209.569 194.917C205.195 192.819 191.467 186.804 176.932 180.435C161.902 173.85 145.027 166.455 141.95 164.86C142.299 164.688 142.639 164.468 142.934 164.255C144.619 163.043 146.413 160.963 147.735 158.69C148.857 156.76 150.145 153.817 149.902 150.771C149.83 149.875 149.49 149.14 149.057 148.94C148.881 148.859 148.703 148.874 148.556 148.982C148.212 149.233 148.096 149.948 148.223 150.997C148.682 154.755 146.475 159.157 141.663 164.082C141.38 164.372 141.253 164.504 141.205 164.575C141.177 164.618 141.169 164.67 141.183 164.719C141.189 164.741 141.195 164.761 141.227 164.794C140.924 164.877 140.669 164.883 140.479 164.802C139.071 164.201 110.184 150.219 89.0901 140.009C78.1033 134.691 69.4239 130.492 68.0334 129.83C65.4018 128.577 63.2081 124.882 62.2842 121.979C61.6048 119.845 61.5492 118.024 62.1311 116.986C63.8253 113.96 66.8905 112.828 69.1625 112.41C71.8624 111.914 74.3864 112.236 75.3433 112.556C75.41 112.579 75.4748 112.608 75.5375 112.644C75.825 112.811 76.0677 113.126 76.2446 113.568C76.2485 113.734 76.259 113.909 76.2736 114.096C76.1091 114.09 76.0545 114.128 76.0115 114.156C75.9379 114.205 75.9006 114.284 75.9055 114.371C76.1252 117.998 74.3471 121.735 72.8159 124.23C71.7253 126.007 70.6016 127.426 69.8618 128.264C69.7143 128.395 69.5843 128.51 69.472 128.608C69.0112 129.011 68.9014 129.109 68.9112 129.244C68.9148 129.301 68.945 129.351 68.9921 129.383C69.0279 129.405 69.1006 129.435 69.1992 129.378C69.3216 129.308 69.6443 128.998 70.0873 128.499C71.1562 127.541 73.0644 125.711 74.9467 122.77C76.0392 121.063 76.6644 118.946 76.8564 117.069C77.0535 117.772 77.2907 118.494 77.5602 119.192C78.0984 120.59 79.2312 123.101 80.7723 124.208C80.8541 124.268 80.9777 124.344 81.149 124.443C83.0408 125.541 90.5083 129.176 99.1546 133.388C111.184 139.245 126.152 146.536 131.435 149.601C132.762 150.371 133.196 150.712 133.327 150.862C135.103 152.907 135.916 154.764 135.743 156.381C135.598 157.736 134.814 158.673 134.24 159.358C133.865 159.807 133.593 160.132 133.626 160.435C133.64 160.562 133.705 160.673 133.82 160.762C133.948 160.863 134.102 160.964 134.277 161.066C134.901 161.428 135.978 161.871 137.124 162.029C137.997 162.149 139.208 162.141 140.014 161.421C141.877 159.756 143.043 158.153 143.576 156.522C144.056 155.053 143.948 153.754 143.779 152.674C143.739 152.418 143.375 151.968 142.625 151.055C141.775 150.019 140.607 148.6 139.74 147.093C138.729 145.34 138.362 143.855 138.647 142.681C138.664 142.613 138.683 142.545 138.703 142.479C142.648 144.349 146.344 146.107 149.626 147.67C157.475 151.406 167.704 157.159 172.619 159.923C173.738 160.552 174.548 161.007 174.934 161.215C175.92 161.746 176.336 162.29 176.603 162.883C176.525 162.895 176.453 162.912 176.39 162.937C176.081 163.056 175.972 163.33 176.088 163.686C176.466 164.849 180.123 167.237 182.269 168.556C185.361 170.456 188.838 172.318 190.723 173.081C191.477 173.385 192.26 173.66 193.009 173.877C193.91 174.395 194.996 174.807 196.046 175.178C197.028 175.525 197.321 175.137 197.402 174.955C197.544 174.628 197.406 174.152 197.019 173.596C197.001 173.528 196.972 173.452 196.928 173.372C196.668 172.891 195.881 172.242 195.078 171.705C194.946 171.606 194.805 171.504 194.655 171.399C207.745 178.143 222.865 185.984 223.657 186.625C225.06 187.762 225.588 189.211 225.691 190.598C225.446 190.785 225.195 191.003 224.935 191.253C223.836 192.316 222.688 193.917 221.938 195.432C221.527 196.264 220.943 197.661 221.198 198.469C220.84 198.243 220.628 198.112 220.614 198.104ZM221.629 198.589C221.273 198.202 221.505 197.049 222.233 195.579C222.967 194.095 224.09 192.529 225.165 191.488C225.324 191.333 225.509 191.165 225.713 191.001C225.727 191.696 225.641 192.365 225.517 192.96C225.239 194.285 224.676 195.649 223.93 196.804C223.274 197.818 222.552 198.535 222.041 198.675C221.864 198.723 221.729 198.696 221.629 198.589ZM222.049 199.006C222.075 199.001 222.101 198.995 222.128 198.987C222.72 198.823 223.495 198.073 224.203 196.979C224.969 195.792 225.549 194.387 225.835 193.024C226.001 192.231 226.065 191.473 226.028 190.757C226.813 190.194 227.76 189.801 228.436 190.465C229.378 191.392 229.13 193.211 228.678 194.735C226.966 195.802 225.099 198.01 224.882 199.437C224.776 200.138 225.074 200.495 225.343 200.672C225.581 200.829 225.915 200.626 226.393 200.036C227.127 199.126 228.219 197.224 228.878 195.2C228.906 195.116 228.931 195.031 228.958 194.945C229.288 194.747 229.607 194.599 229.903 194.515C230.413 194.368 230.79 194.431 231.022 194.7C231.379 195.116 231.53 195.977 231.523 197.011C231.272 197.158 231.016 197.353 230.761 197.595C229.975 198.339 229.275 199.452 228.887 200.568C228.457 201.806 228.478 202.83 228.944 203.45C228.952 203.461 228.96 203.472 228.968 203.483C226.436 201.793 223.678 200.035 222.049 199.006ZM230.619 201.881C230.264 202.828 229.865 203.42 229.552 203.466C229.51 203.472 229.379 203.49 229.203 203.257C228.335 202.103 229.476 199.264 230.984 197.833C231.129 197.696 231.309 197.541 231.513 197.404C231.45 198.856 231.113 200.567 230.619 201.881Z" fill="#191919"/>
<defs>
<clipPath id="clip0_1140_10">
<rect width="97.4295" height="181.613" fill="white" transform="translate(91.6265 219.462) rotate(-118.592)"/>
</clipPath>
</defs>
</svg>
