<svg width="262" height="200" viewBox="0 0 262 200" fill="none" xmlns="http://www.w3.org/2000/svg">
<rect x="7" width="222" height="200" rx="5" fill="#E8CFCB"/>
<g clip-path="url(#clip0_1140_11)">
<path fill-rule="evenodd" clip-rule="evenodd" d="M45.6554 78.8703C45.5027 78.4623 44.9731 78.6419 44.6258 78.431C44.5409 78.6591 44.4485 78.8732 44.3355 79.1349C44.1644 78.9917 43.9831 78.8722 43.6895 78.632C43.8334 78.299 43.9875 77.9421 44.1237 77.595C44.3434 77.6572 44.5045 77.6967 44.6655 77.7363C45.3619 77.2658 44.8977 76.6274 45.0062 76.059C45.753 75.9794 45.4825 77.0181 46.1371 77.0252C46.2295 76.8111 46.3144 76.5829 46.4068 76.3688C46.8132 76.4748 47.199 76.6283 47.6106 76.6586C47.902 76.6817 48.2296 76.5578 48.5877 76.4899C48.2723 76.9346 47.9954 77.322 47.6724 77.7527C47.5446 77.7315 47.3145 77.6931 47.0845 77.6548C46.8895 77.9793 47.0195 78.2178 47.2978 78.4299C47.9344 78.4467 48.347 77.9672 48.7462 77.8042C49.0898 77.3259 49.3667 76.9385 49.6436 76.5511C49.4959 76.195 49.338 75.8626 49.1904 75.5065C49.8586 75.0696 49.6804 76.0217 50.1204 75.891C50.4759 75.8609 50.7191 75.7102 50.7786 75.3503C50.5512 75.2742 50.3058 75.2078 50.0452 75.1134C49.9996 74.9018 49.9719 74.6804 49.9213 74.417C50.4478 74.5302 50.9053 74.6447 51.5084 74.7707C51.3279 74.2688 51.1855 73.837 51.0202 73.3632C51.5398 73.08 52.0415 72.8066 52.5611 72.5234C52.8065 72.5898 52.8065 72.5898 52.6134 73.2589C52.7663 73.5394 52.9192 73.8199 53.072 74.1003C53.7493 74.2769 54.1442 73.6797 54.7097 73.4806C54.8021 73.2665 54.8946 73.0524 54.9897 72.8005C55.2018 72.8486 55.4319 72.8869 55.6696 72.9393C57.0134 72.2069 58.3572 71.4744 59.7189 70.7322C59.8037 70.5041 59.8885 70.276 60.0068 69.9387C60.4313 69.9074 60.907 69.8846 61.4184 69.8423C61.5365 69.6325 61.6289 69.4184 61.7804 69.0993C63.4646 68.1814 65.2564 67.2048 67.066 66.2185C67.1688 65.9806 67.2792 65.7567 67.3895 65.5328C67.906 65.5424 68.4431 65.5044 68.9526 65.1175C69.0272 64.9131 69.1196 64.699 69.2147 64.4471C69.6448 64.2127 70.0927 63.9686 70.5585 63.7147C70.7707 63.7628 71.0084 63.8151 71.3815 63.9028C71.5738 63.6161 71.7764 63.3056 71.997 62.9853C72.6329 63.3845 73.1993 62.6756 73.8668 62.621C73.7741 62.9626 73.7148 63.195 73.6555 63.4274C74.0184 63.5388 74.3868 63.4472 74.4539 63.1014C74.529 62.6421 74.9869 62.5016 75.1358 62.2204C75.2414 61.8172 74.6745 61.4168 75.3067 61.1268C75.498 61.3499 75.4793 61.7421 75.896 61.8243C76.1958 61.479 76.3525 61.0843 76.2205 60.6288C76.5967 60.4237 76.973 60.2186 77.3493 60.0135C77.4341 59.7854 77.5189 59.5573 77.5934 59.3529C77.916 59.1771 78.2205 59.0111 78.4176 58.9037C78.8293 58.934 79.1207 58.9571 79.3866 58.9759C79.6174 58.6318 79.7636 58.3884 79.9277 58.1352C80.1143 58.1791 80.2753 58.2186 80.4695 58.2765C80.5696 58.0764 80.6442 57.8721 80.7469 57.6342C81.9115 56.9994 83.112 56.3451 84.3483 55.6713C84.5604 55.7194 84.7981 55.7717 85.0358 55.8241C85.1207 55.596 85.2055 55.3678 85.2903 55.1397C87.5479 53.9092 89.8055 52.6788 92.0452 51.4581C92.0915 51.2873 92.1455 51.1305 92.1995 50.9738C92.3199 50.8536 92.4148 50.7291 92.5581 50.651C93.8226 49.9436 95.1024 49.2643 96.3387 48.5904C96.5585 48.6526 96.7195 48.6921 96.9316 48.7402C97.0778 48.4968 97.2317 48.2674 97.4369 47.9191C97.7028 47.9379 98.0122 47.9512 98.4417 47.9718C98.7821 47.7862 99.2121 47.5518 99.6959 47.2882C99.8166 47.0405 99.9654 46.7593 100.137 46.3927C100.488 46.4383 100.812 46.4796 101.137 46.5209C101.636 46.4128 101.66 45.945 101.855 45.493C102.218 45.477 102.589 45.475 102.952 45.459C103.006 45.3022 103.06 45.1455 103.127 44.9271C103.331 44.9612 103.554 44.9855 103.791 45.0378C103.874 44.8475 103.958 44.6194 104.051 44.4053C104.281 44.4436 104.519 44.4959 104.738 44.5581C105.278 44.4822 105.202 43.9596 105.446 43.6814C105.676 43.7197 105.88 43.7538 106.103 43.7781C106.177 43.5737 106.224 43.4029 106.288 43.2224C106.933 42.8708 107.578 42.5192 108.187 42.1872C108.425 42.2396 108.568 42.2889 108.78 42.337C111.468 40.8722 114.173 39.3976 116.789 37.9718C117.505 37.9636 118.134 37.9664 118.781 37.9594C118.899 37.6221 119.03 37.2231 119.185 36.7388C119.382 36.7589 119.579 36.7789 119.852 36.8117C119.924 36.6452 120.024 36.4451 120.106 36.2548C120.39 36.2638 120.682 36.2869 121.075 36.327C121.216 36.0317 121.358 35.7365 121.489 35.4651C121.624 35.5004 121.785 35.5399 122.107 35.6191C123.446 34.9623 124.805 34.1305 126.215 33.4346C126.496 33.4815 126.726 33.5198 127.066 33.5892C127.23 33.336 127.412 33.0731 127.623 32.7766C127.83 32.7728 128.132 32.7721 128.459 32.7756C128.669 32.4791 128.882 32.1448 129.169 31.7336C129.443 31.7665 129.767 31.8078 130.212 31.8564C130.44 31.5502 130.725 31.1768 131.03 30.7558C131.252 30.7801 131.493 30.7947 131.912 30.839C133.309 30.0773 134.886 29.2179 136.32 28.4367C136.703 28.5006 136.951 28.5291 137.283 28.5845C137.496 28.2502 137.676 27.8976 137.919 27.6194C138.078 27.4418 138.36 27.3612 138.61 27.2245C138.822 27.2726 139.053 27.3109 139.359 27.362C142.477 25.6628 145.63 23.9441 148.784 22.2253C148.838 22.196 148.93 22.2369 149.024 22.2399C149.244 22.4295 149.471 22.6331 149.69 22.8227C149.887 22.7152 150.049 22.6273 150.192 22.5492C150.277 22.3211 150.362 22.093 150.436 21.8886C151.35 21.3906 152.246 20.9023 152.981 20.5019C153.612 20.4669 154.088 20.4441 154.563 20.4214C154.64 20.5616 154.734 20.6921 154.719 20.664C155.194 20.8962 155.57 21.0735 155.945 21.2508C156.632 20.4217 156.631 19.5673 157.026 18.8426C157.379 18.7229 157.811 18.8331 158.158 19.1714C158.851 19.2486 159.257 18.3726 160.062 18.5705C159.615 19.4142 159.169 20.2578 158.73 21.1155C158.577 21.09 158.339 21.0376 158.109 20.9993C158.039 21.3829 157.754 21.7563 157.815 21.996C158.101 22.6045 158.61 22.4726 158.934 22.6414C159.842 22.6014 159.992 21.6828 160.581 21.2709C160.969 21.5141 161.357 21.7573 161.779 22.0187C161.78 22.3633 161.803 22.7878 161.827 23.3019C161.556 23.4862 161.213 23.7096 160.852 23.9427C160.851 24.3251 160.413 24.6729 160.691 25.14C160.276 25.4024 159.578 25.4009 159.454 26.0687C160.273 25.8226 160.273 25.8226 160.691 25.14C161.28 24.8555 161.797 25.4646 162.33 25.2472C162.898 25.0104 163.283 25.2914 163.736 25.354C163.965 25.7747 164.194 26.1955 164.34 26.4619C164.336 27.0096 164.353 27.3822 164.347 27.8403C164.137 28.1368 163.86 28.5242 163.488 29.036C163.184 29.202 162.736 29.4462 162.306 29.6805C162.221 29.9087 162.136 30.1368 162.044 30.3509C161.857 30.3071 161.714 30.2577 161.469 30.1914C161.021 30.4355 160.519 30.7089 160.053 30.9628C159.909 31.2959 159.801 31.6094 159.686 31.9089C159.88 31.9668 160.041 32.0064 160.312 32.077C160.283 32.238 160.245 32.4228 160.206 32.7351C160.382 33.0577 160.603 33.4644 160.71 33.6607C161.023 34.7456 160.066 35.1217 159.847 35.914C159.291 36.2167 158.628 36.578 158.055 36.8905C157.968 37.1565 157.914 37.3133 157.816 37.603C156.938 38.0815 155.988 38.5991 155.092 39.0874C154.969 39.5003 154.879 39.8041 154.781 40.0938C154.891 40.1249 154.998 40.1937 155.052 40.1644C155.956 39.6902 156.844 39.1879 157.793 38.6703C157.904 38.4464 158.027 38.161 158.117 37.9847C158.683 37.6581 159.037 38.0105 159.492 38.0353C159.246 38.3513 159.036 38.6478 158.8 38.9401C159.046 39.0065 159.273 39.0826 159.559 39.1813C159.357 39.3643 159.175 39.4998 159.024 39.6914C158.929 39.8158 158.883 39.9866 158.795 40.1251C158.67 40.3209 158.503 40.4844 158.042 41.0451C157.998 41.3056 157.835 42.0308 157.74 42.5376C157.212 42.9343 156.709 42.9906 156.572 43.4651C157.244 43.7174 157.631 43.1061 158.146 42.8985C158.686 42.6952 159.085 42.2773 159.78 42.4441C160.238 42.5586 160.774 41.7935 161.41 42.1928C162.306 41.7045 163.201 41.2162 164.008 40.7767C164.731 40.7825 165.371 40.7615 166.069 40.7631C166.302 40.6361 166.588 40.4799 166.893 40.3139C166.939 40.1431 166.993 39.9863 167.065 39.8198C167.518 39.5 168.24 40.2706 168.426 39.46C169.323 39.6987 170.11 39.9064 171.168 40.1846C171.191 40.2267 171.375 40.5633 171.543 40.8718C171.176 41.4355 170.532 41.5321 170.076 41.8897C169.968 42.2033 169.86 42.5168 169.752 42.8303C169.81 43.3627 170.275 43.3637 170.656 43.4654C170.809 43.7459 170.961 44.0264 171.114 44.3069C171.055 44.5393 170.988 44.7577 170.916 45.0517C171.256 44.9936 171.571 44.9312 171.929 44.8634C172.039 45.0219 172.163 45.2085 172.263 45.3908C171.952 46.0148 171.285 46.0694 170.821 46.413C170.531 46.9894 171.011 47.2734 171.261 47.6466C171.827 47.575 172.392 47.3759 172.954 47.7246C173.168 48.1172 173.397 48.538 173.634 48.9727C173.61 49.3131 173.254 49.7255 173.678 50.0766C173.57 50.3901 173.462 50.7037 173.333 51.0648C173.065 51.2112 172.778 51.3675 172.491 51.5237C172.389 51.7616 172.304 51.9898 172.209 52.2417C171.492 52.6323 170.739 53.0425 169.987 53.4526C169.825 53.9229 169.655 54.3792 169.519 54.7263C169.26 54.9764 169.094 55.14 168.909 55.3132C169.238 55.9163 169.544 56.4772 169.888 57.1083C169.775 57.37 169.634 57.6653 169.462 58.0319C169.341 58.0246 169.129 57.9765 168.881 57.948C168.883 58.42 168.867 58.9018 168.85 59.3837C169.487 59.4005 169.925 58.9252 170.442 58.6798C170.905 58.4637 171.338 58.1915 171.786 57.9474C171.947 57.987 172.116 58.0406 172.412 58.1154C172.832 57.9049 173.349 57.6595 173.858 57.4001C174.019 57.4396 174.18 57.4792 174.426 57.5456C174.561 57.326 174.708 57.0826 174.913 56.7342C175.171 56.739 175.481 56.7523 175.928 56.7631C176.394 56.5092 176.985 56.1869 177.72 55.7865C177.787 55.4407 177.89 54.9479 177.973 54.5026C178.701 54.5603 179.166 54.8162 179.564 55.2905C179.905 55.105 180.263 54.9097 180.621 54.7144C180.675 54.5576 180.729 54.4009 180.796 54.1825C181.19 53.9677 181.638 53.7235 182.122 53.4598C182.915 53.5919 183.849 53.1737 184.622 53.6979C185.429 53.2584 186.181 52.8483 186.934 52.4381C187.294 52.5874 187.744 52.5604 188.142 52.9072C188.098 53.1677 188.059 53.48 188 53.8398C188.114 54.0502 188.267 54.3307 188.428 54.6252C188.648 54.6873 188.875 54.7634 189.12 54.8298C189.529 55.1529 189.147 55.5611 189.182 55.9239C189.343 55.9635 189.504 56.0031 189.724 56.0652C189.826 56.2097 190.038 56.3853 190.058 56.5926C190.161 57.3366 190.323 58.1032 189.938 58.9316C189.667 59.1159 189.332 59.3533 188.996 59.5906C189.004 59.7321 188.983 59.9072 189.008 60.0389C189.214 60.8 190.034 60.8984 190.537 61.352C190.708 61.4952 190.936 61.5714 191.135 61.6811C191.136 62.4081 190.769 62.9717 190.597 63.5933C190.443 63.6952 190.3 63.7733 190.11 63.8948C190.148 64.0924 190.176 64.3137 190.232 64.629C190.021 64.9255 189.762 65.3032 189.303 65.9535C189.16 66.0316 188.615 66.1831 188.297 66.5382C187.923 66.9604 187.659 67.4136 187.137 67.7346C186.786 67.944 186.833 68.6276 186.186 68.7621C186.471 69.3706 186.713 69.8572 186.932 70.3017C186.791 70.8519 186.21 70.768 185.885 71.2365C185.918 71.3823 185.958 71.6695 186.019 72.0366C185.855 72.1623 185.681 72.3118 185.46 72.5047C185.268 72.9188 185.707 73.1705 185.796 73.5041C185.827 74.9245 184.324 75.8345 184.377 77.297C185.198 77.1405 185.749 76.531 186.496 76.324C186.606 76.355 186.767 76.3946 187.064 76.4695C187.637 76.157 188.3 75.7957 188.873 75.4832C189.144 75.5538 189.305 75.5934 189.474 75.647C189.528 75.6177 189.615 75.6067 189.643 75.5731C189.704 75.4304 189.751 75.2596 189.825 75.0552C190.03 75.0893 190.26 75.1276 190.515 75.1702C190.766 75.0335 191.071 74.8675 191.358 74.7112C191.613 74.7538 191.851 74.8062 192.089 74.8585C192.181 74.6444 192.248 74.4261 192.34 74.2119C193.123 74.3678 192.837 75.5059 193.701 75.5989C193.901 75.1987 193.561 75.0018 193.47 74.7061C193.378 74.4103 193.038 74.2135 193.167 73.8524C193.724 72.9123 194.9 74.3451 195.263 72.9647C195.582 73.3366 195.735 73.4897 195.893 73.6945C196.522 73.8248 196.924 73.2416 197.49 73.0425C197.642 72.596 197.811 72.1397 197.981 71.6835C198.492 71.7686 198.448 72.284 198.741 72.5242C199.009 72.7601 199.387 72.8996 199.712 73.0684C199.619 73.41 199.534 73.6381 199.483 73.8845C199.674 74.2351 199.865 74.5858 200.056 74.9364C199.818 75.1389 199.429 75.1507 199.29 75.5356C199.154 75.8827 198.849 76.1761 198.562 76.5873C199.442 76.3259 200.331 76.8056 201.061 75.9709C201.291 76.2642 201.426 76.427 201.554 76.5757C201.455 77.1204 200.929 77.1346 200.609 77.4001C200.191 77.9553 200.32 78.5761 200.329 79.1896C199.923 79.0837 199.524 78.9917 199.11 78.8717C198.749 79.1049 198.797 79.5336 198.645 79.8526C198.831 80.4063 199.404 80.3488 199.866 80.5151C199.951 80.2869 200.043 80.0728 200.11 79.8545C200.782 80.1067 201.594 79.5916 202.227 80.0286C202.029 80.9009 202.507 81.9497 201.407 82.5313C201.465 82.8088 201.518 83.0345 201.571 83.2601C201.366 83.6084 200.85 83.5989 200.537 83.8783C200.483 84.0351 200.429 84.1919 200.383 84.3627C200.014 84.8367 199.443 84.9839 198.924 85.2671C198.763 85.2275 198.602 85.188 198.356 85.1216C198.22 85.3412 198.074 85.5846 197.869 85.9329C197.611 85.9282 197.301 85.9149 196.905 85.9126C196.475 86.147 195.973 86.4204 195.472 86.6938C195.573 87.2207 195.651 87.7056 196.211 87.8371C196.694 87.9558 196.867 88.4436 197.393 88.5569C197.682 88.6177 197.809 89.1489 197.99 89.3958C197.741 89.8771 197.511 89.5839 197.333 89.5541C197.085 89.5255 196.85 89.4353 196.392 89.3209C196.361 89.7746 196.319 90.2522 196.287 90.706C195.819 90.6153 195.6 90.5532 195.37 90.5148C195.065 90.6808 194.778 90.8371 194.42 91.0324C194.46 91.3196 194.501 91.6069 194.549 91.9082C194.518 91.9795 194.502 92.0789 194.431 92.118C193.542 92.6203 192.639 93.0946 191.761 93.5731C191.549 93.525 191.388 93.4854 191.227 93.4458C190.743 93.582 190.247 93.6524 190.07 94.2221C190.918 94.5419 191.782 94.3799 192.626 94.2655C192.742 93.966 192.827 93.7379 192.912 93.5098C193.216 93.3438 193.521 93.1778 193.897 92.9727C194.175 93.3123 194.453 93.6519 194.739 94.0055C195.054 93.9431 195.376 93.8948 195.716 93.8367C195.497 94.6291 194.63 94.5739 194.225 95.0675C194.094 95.4664 193.963 95.8653 193.822 96.2881C192.352 97.0888 190.847 97.9091 189.289 98.7587C189.11 98.7289 188.872 98.6766 188.609 98.62C188.179 98.8543 187.731 99.0985 187.301 99.3329C187.063 99.2805 186.818 99.2141 186.57 99.1856C186.516 99.3423 186.462 99.4991 186.408 99.6559C186.377 99.7272 186.361 99.8266 186.29 99.8657C184.641 100.764 182.993 101.663 181.237 102.62C181.387 103.065 181.54 103.473 181.687 103.957C181.221 104.211 180.791 104.445 180.343 104.689C180.223 104.937 180.13 105.151 179.94 105.527C178.829 106.133 177.557 106.826 176.267 107.529C176.445 108.069 176.982 108.031 177.251 108.012C177.632 107.986 178.034 107.658 178.341 108.436C178.172 108.765 177.895 109.28 177.42 110.157C177.044 110.362 176.238 110.801 175.503 111.202C175.416 111.468 175.362 111.625 175.315 111.795C174.867 112.167 174.416 112.576 173.734 112.221C173.642 112.435 173.567 112.639 173.465 112.877C173.052 113.101 172.604 113.346 172.121 113.609C171.909 113.561 171.671 113.509 171.433 113.456C171.146 113.613 170.842 113.779 170.555 113.935C170.47 114.163 170.393 114.405 170.311 114.596C169.379 115.103 168.483 115.592 167.588 116.08C167.401 116.036 167.24 115.997 167.079 115.957C166.493 116.076 165.946 116.265 165.816 117.009C165.404 117.234 164.956 117.478 164.419 117.771C164.291 117.749 164.061 117.711 163.787 117.678C163.265 117.872 162.692 118.057 162.624 118.785C161.89 119.185 161.137 119.596 160.385 120.006C160.372 120.195 160.287 120.423 160.202 120.651C160.041 120.611 159.88 120.572 159.711 120.518C159.105 120.558 158.662 120.981 158.178 121.245C158.086 121.459 157.993 121.673 157.919 121.877C157.487 121.767 157.081 121.661 156.641 121.537C156.229 121.761 155.781 122.006 155.261 122.289C155.056 122.51 155.206 123.083 154.393 123.126C154.367 123.122 154.13 123.069 153.892 123.017C153.605 123.173 153.301 123.339 152.996 123.505C152.865 123.904 152.726 124.289 152.572 124.773C152.196 124.978 151.748 125.223 151.174 125.535C151.098 125.522 150.85 125.494 150.525 125.452C149.952 125.765 149.307 126.116 148.679 126.458C148.613 126.677 148.559 126.833 148.505 126.99C146.802 127.918 145.082 128.855 143.434 129.754C143.189 129.687 143.028 129.648 142.867 129.608C142.774 129.822 142.689 130.051 142.604 130.279C140.651 131.343 138.698 132.408 136.728 133.482C136.691 133.629 136.637 133.786 136.601 133.933C136.481 134.053 136.383 134.215 136.258 134.283C134.994 134.991 133.714 135.67 132.388 136.393C132.161 136.189 131.941 136 131.696 135.806C131.222 136.173 131.085 136.903 130.413 136.905C130.323 137.209 130.269 137.366 130.194 137.57C129.99 137.536 129.76 137.498 129.504 137.455C129.253 137.592 128.949 137.758 128.626 137.934C128.511 138.106 128.426 138.334 128.334 138.548C127.962 138.932 127.561 138.751 127.19 138.625C126.868 138.801 126.563 138.967 126.259 139.133C125.858 138.951 125.472 138.925 125.087 139.244C124.731 139.529 124.361 139.403 124.026 139.258C123.929 139.548 123.875 139.705 123.8 139.909C123.388 140.134 122.94 140.378 122.492 140.622C122.389 140.86 122.304 141.088 122.191 141.35C121.779 141.574 121.331 141.819 120.848 142.082C120.643 142.048 120.405 141.996 120.16 141.929C119.426 142.33 118.673 142.74 117.92 143.15C117.836 143.378 117.743 143.592 117.658 143.821C117.49 143.767 117.329 143.727 117.091 143.675C115.747 144.407 114.332 145.179 112.916 145.95C112.873 146.083 112.826 146.254 112.741 146.482C112.347 146.697 111.899 146.941 111.362 147.234C111.242 147.227 111.011 147.189 110.756 147.146C110.61 147.389 110.463 147.633 110.258 147.981C109.959 147.944 109.642 147.917 109.274 147.881C106.318 149.492 103.307 151.133 100.315 152.764C100.078 152.711 99.8399 152.659 99.6098 152.621C99.525 152.849 99.4402 153.077 99.3143 153.4C99.0202 153.415 98.7006 153.426 98.1559 153.45C97.3496 153.889 96.2925 154.465 95.3249 154.993C95.0846 154.978 94.921 154.976 94.7573 154.974C94.5937 154.973 94.448 154.961 94.1642 154.952C94.0359 155.186 93.8794 155.453 93.6639 155.825C91.675 156.909 89.5787 158.052 87.4286 159.224C87.2344 159.166 86.9967 159.113 86.7334 159.057C85.9988 159.457 85.2463 159.867 84.5117 160.268C84.2561 160.225 84.0107 160.159 83.7986 160.111C83.6373 160.198 83.494 160.277 83.3507 160.355C83.2967 160.511 83.2503 160.682 83.1963 160.839C83.1655 160.91 83.132 161.02 83.0783 161.049C81.5732 161.869 80.0681 162.689 78.6168 163.48C78.3971 163.418 78.2361 163.379 77.9652 163.308C77.3918 163.621 76.7288 163.982 76.1555 164.294C75.5626 164.145 75.5891 163.639 75.3237 163.365C74.6235 163.147 74.4768 163.645 74.2864 164.276C73.8521 164.076 73.4255 163.891 73.0908 163.746C72.0157 164.332 71.1199 164.82 70.224 165.308C69.9863 165.256 69.7563 165.217 69.5518 165.183C69.4311 165.431 69.3539 165.673 69.2206 165.855C69.136 165.956 68.9366 165.973 68.7063 166.063C68.5787 165.914 68.418 165.747 68.2266 165.524C67.9813 165.457 67.6593 165.378 67.2861 165.29C67.0174 165.437 66.7307 165.593 66.4082 165.769C66.1117 165.694 65.7897 165.615 65.391 165.523C65.2508 165.308 65.1055 165.042 64.9042 164.715C64.984 164.435 65.0561 164.141 65.1488 163.8C65.2793 163.783 65.3944 163.738 65.5146 163.746C66.0593 163.722 66.6192 163.726 67.1562 163.688C67.2867 163.671 67.4021 163.499 67.5301 163.393C67.5354 163.317 67.5612 163.194 67.5612 163.194C67.0118 163.039 66.4444 162.893 66.1735 162.823C65.3321 162.899 64.7772 162.947 64.1787 163C63.8646 162.808 63.4764 162.565 62.9733 162.238C62.9351 162.168 62.8205 161.958 62.7058 161.748C62.9208 161.63 63.1538 161.504 63.3867 161.377C63.7777 161.454 64.1583 161.684 64.5401 161.275C64.6481 160.962 64.7561 160.648 64.8461 160.345C64.7876 160.195 64.7188 160.068 64.6603 159.918C64.1949 159.917 63.7272 159.827 63.2821 159.906C62.8192 159.994 62.2948 160.098 62.1505 160.686C62.3416 161.037 62.5326 161.387 62.7237 161.738C62.5677 161.75 62.3195 161.849 62.2634 161.789C61.998 161.515 61.7966 161.188 61.5773 160.871C61.0506 160.885 61.3334 161.404 60.773 161.655C60.7295 161.661 60.4098 161.671 59.8652 161.695C59.5068 161.89 58.9155 162.213 58.2347 162.584C57.9638 162.513 57.6597 162.424 57.3453 162.359C57.1332 162.311 56.8928 162.297 56.6422 162.306C56.3405 162.306 56.0183 162.355 55.6551 162.371C55.6114 162.504 55.5266 162.732 55.4418 162.96C54.9938 163.204 54.5459 163.448 54.098 163.692C53.937 163.653 53.7939 163.604 53.4718 163.524C52.8885 163.733 52.2611 164.202 51.6034 164.488C51.3478 164.446 51.0948 164.365 50.8621 164.365C50.7241 164.367 50.5602 164.493 50.3554 164.586C50.1436 164.411 49.9343 164.197 49.6969 164.018C49.4594 163.838 49.1835 163.715 48.9587 163.601C49.1676 162.705 50.1236 162.839 50.4903 162.275C50.616 162.08 50.5419 162.029 50.3042 161.977C49.5835 161.806 48.8833 161.587 48.224 161.4C47.8298 161.615 47.5431 161.772 47.2027 161.957C46.9832 161.768 46.7637 161.578 46.5365 161.374C46.2219 161.437 45.9251 161.489 45.567 161.557C45.6469 161.277 45.7061 161.045 45.773 160.826C45.5456 160.75 45.2976 160.722 45.0908 160.598C44.9094 160.478 44.7948 160.268 44.6519 160.091C44.2936 160.287 44.0069 160.443 43.6844 160.619C43.37 160.554 43.048 160.474 42.726 160.395C42.6553 159.924 42.7609 159.521 43.1962 159.211C43.7155 159.055 44.142 159.369 44.7146 159.439C45.1625 159.195 45.6642 158.921 46.1659 158.648C46.1432 158.478 46.1282 158.323 46.1208 158.181C46.2691 158.155 46.4175 158.129 46.5735 158.116C47.2268 158.761 47.3091 159.807 48.1875 160.438C48.2752 160.045 48.3397 159.737 48.448 159.296C48.3027 159.029 48.0811 158.623 47.8288 158.16C47.6628 158.068 47.4048 157.936 47.1724 157.808C47.2704 157.391 47.6846 157.383 47.8743 157.134C48.0912 157.362 48.2388 157.718 48.4725 157.209C48.2935 157.179 48.1146 157.149 47.8743 157.134C47.7699 156.9 47.617 156.62 47.4642 156.339C47.5666 156.229 47.6615 156.104 47.8306 155.903C47.586 155.454 47.3338 154.992 46.9898 154.36C47.4117 154.367 47.67 154.372 47.9206 154.363C47.9086 153.914 47.9223 153.47 47.908 152.932C47.5011 153.081 47.0508 153.236 46.5391 153.406C46.4218 153.233 46.279 153.056 46.1693 152.898C46.2855 152.343 46.8504 152.399 47.2016 151.935C47.2145 151.873 47.3173 151.635 47.4021 151.407C47.766 151.009 48.1592 151.304 48.5376 151.316C49.1468 150.984 49.7559 150.652 50.3472 150.33C50.5706 149.844 50.1313 149.592 50.0272 149.231C50.2917 148.65 50.5485 148.055 50.8541 147.379C50.8362 147.389 50.9795 147.311 51.1355 147.299C51.2991 147.3 51.4575 147.378 51.6441 147.422C51.7366 147.208 51.8111 147.003 51.8959 146.775C52.126 146.813 52.3637 146.866 52.5834 146.928C53.0493 146.674 53.4972 146.43 53.9093 146.205C54.0376 145.972 54.1225 145.743 54.256 145.434C54.5501 145.419 54.8697 145.409 55.2508 145.383C55.4968 145.067 55.784 144.656 56.0967 144.249C55.3913 144.106 54.9811 144.675 54.4412 144.879C53.9787 144.712 53.5028 144.862 52.9811 144.929C52.8894 144.76 52.7823 144.564 52.6906 144.396C52.9857 143.871 53.5177 143.781 53.9324 143.519C54.2934 143.286 54.685 143.109 55.0433 142.913C55.1745 142.514 55.3057 142.115 55.4677 141.645C56.0768 141.313 56.7219 140.961 57.3669 140.61C57.5535 140.654 57.6966 140.703 57.8576 140.743C58.1448 140.331 58.4396 139.934 58.7191 139.509C58.2 139.537 57.7423 139.55 57.2487 139.583C57.1947 139.74 57.1099 139.968 57.0277 140.158C56.2393 140.588 55.5047 140.988 54.7701 141.389C54.5835 141.345 54.4225 141.305 54.1516 141.235C53.1303 141.791 52.0195 142.397 50.8727 143.022C50.6635 142.808 50.5283 142.645 50.319 142.432C49.6955 142.226 49.5591 142.701 49.3842 143.233C49.1721 143.185 48.9497 143.16 48.694 143.118C48.4253 143.264 48.1386 143.42 47.834 143.586C47.5963 143.534 47.3407 143.491 47.0954 143.425C46.8087 143.581 46.5041 143.747 46.1995 143.913C46.1147 144.142 46.0299 144.37 45.9116 144.707C44.9245 144.772 43.9118 144.833 43.1063 144.89C42.5955 144.55 42.2074 144.307 41.8294 144.04C41.7695 143.29 42.3231 142.643 42.363 141.821C41.7288 141.893 41.074 142.014 40.3988 142.054C39.6982 142.091 39.3389 141.432 38.58 141.19C38.1596 140.419 37.6704 139.521 37.227 138.708C36.9561 138.637 36.7951 138.598 36.5574 138.545C36.5885 138.347 36.6375 138.138 36.6891 137.892C36.4777 137.461 36.2537 136.965 35.999 136.412C36.5392 136.082 37.0256 135.78 37.5299 135.469C37.8864 134.929 36.8668 134.593 37.3205 134.019C37.9746 134.281 37.899 134.995 38.4327 135.377C38.4583 135.381 38.6525 135.439 38.7855 135.385C39.1771 135.208 39.533 134.923 39.9296 134.798C40.211 134.717 40.5636 134.852 40.8603 134.8C41.0956 134.762 41.3159 134.569 41.5847 134.423C41.69 134.147 41.798 133.834 41.9137 133.534C41.7558 133.202 41.3669 133.341 41.0451 133.135C40.564 133.36 40.0546 133.62 39.5377 133.865C39.2156 133.786 38.8936 133.707 38.5384 133.609C39.2016 133.121 39.3206 132.401 39.5571 131.726C40.007 131.827 40.4823 131.931 40.9909 132.054C40.9456 131.715 40.9052 131.428 40.8625 131.051C41.1718 131.065 41.4377 131.083 41.7394 131.083C42.0701 130.666 42.4263 130.253 42.8313 129.76C42.7066 129.446 42.541 129.1 42.3934 128.743C42.5146 128.241 43.0795 128.297 43.1744 128.172C43.4618 127.634 43.6594 127.271 43.739 127.119C43.4975 126.377 42.9705 126.519 42.5899 126.29C42.2361 126.792 41.8746 127.28 41.5105 127.806C40.9838 127.82 40.3624 127.831 39.6285 127.849C39.1627 128.103 38.5535 128.435 37.9622 128.757C37.7245 128.705 37.4868 128.653 37.2491 128.6C37.0162 128.727 36.7833 128.854 36.5324 128.991C35.8753 129.022 35.2001 129.062 34.5174 129.089C34.4634 129.246 34.4094 129.402 34.3528 129.597C33.9407 129.821 33.4927 130.066 32.991 130.339C32.8377 130.314 32.6 130.261 32.3188 130.214C32.068 130.351 31.7634 130.517 31.4229 130.703C31.1267 130.5 30.8229 130.284 30.5087 130.091C30.3475 130.179 30.2041 130.257 30.025 130.355C29.7209 130.266 29.4091 130.163 29.0795 130.07C28.9887 129.392 29.8934 129.644 30.0435 128.726C30.0435 128.726 30.0571 128.282 30.0581 127.772C29.5447 127.47 28.8409 127.799 28.2557 127.663C27.7547 127.554 27.2977 127.185 26.792 126.896C26.7669 126.637 26.8338 126.419 26.8828 126.21C26.6812 126.011 26.213 126.175 26.1191 125.79C26.4192 125.317 26.4192 125.317 25.8507 124.444C25.5619 124.384 25.2654 124.309 24.8667 124.217C24.9403 124.522 24.9859 124.734 25.0315 124.945C25.3024 125.016 25.5298 125.092 25.7752 125.159C25.8898 125.369 26.0045 125.579 26.1191 125.79C25.8862 125.917 25.6712 126.034 25.4562 126.151C25.2185 126.099 24.9808 126.046 24.7355 125.98C24.4309 126.146 24.1442 126.302 23.7321 126.527C23.5663 126.308 23.4005 126.089 23.1965 125.8C23.6395 125.504 23.9825 125.281 24.3793 125.028C24.3414 124.83 24.2957 124.619 24.1665 123.998C24.1665 123.998 24.5681 123.925 24.8295 123.637C24.7812 123.463 24.6666 123.253 24.6465 123.045C24.6365 122.942 24.7645 122.835 24.8415 122.721C25.3142 122.863 25.28 123.355 25.5531 123.643C26.2124 123.829 26.5997 123.218 27.3417 122.959C27.6432 123.085 28.0877 123.262 28.6064 123.488C28.7001 122.637 28.2663 122.182 27.9373 121.706C27.7508 121.663 27.6077 121.613 27.3955 121.565C27.4445 121.356 27.4935 121.148 27.5425 120.939C27.2695 120.652 26.9849 121.025 26.7088 121.03C26.5016 121.034 26.2819 120.972 26.0774 120.937C26.0105 121.156 25.9565 121.313 25.9025 121.469C25.7747 121.448 25.6007 121.47 25.5191 121.405C25.4144 121.299 25.3738 121.139 25.2924 120.947C25.4974 120.726 25.7023 120.505 25.9432 120.265C25.8084 119.847 25.6737 119.429 25.4729 118.848C25.943 119.028 26.2368 119.141 26.5971 119.29C26.5636 119.399 26.5223 119.622 26.4733 119.83C27.1421 120.375 27.9463 119.719 28.8249 120.222C28.629 119.692 28.5476 119.5 28.4738 119.322C28.0342 119.198 27.6355 119.106 27.1704 118.977C27.0099 118.683 26.8341 118.36 26.6659 118.052C26.7097 117.919 26.7175 117.805 26.7713 117.776C27.4445 117.391 28.1151 117.044 28.796 116.673C28.8034 116.814 28.8848 117.006 28.8258 117.111C28.654 117.35 28.4235 117.567 28.2288 117.764C28.3281 117.946 28.4046 118.086 28.4963 118.255C28.8697 118.215 29.2252 118.185 30.041 118.104C29.6563 118.678 29.3794 119.065 29.1205 119.443C29.5856 119.571 29.8897 119.66 30.3369 119.798C30.5249 119.077 30.7027 118.38 30.8238 117.878C31.1313 117.546 31.2902 117.369 31.4388 117.215C31.1201 116.716 31.0215 116.151 30.4776 115.792C30.2879 116.041 30.1417 116.285 30.0031 116.542C29.6909 116.694 29.4042 116.85 29.2183 116.424C29.5414 115.993 29.8823 115.553 30.2053 115.122C29.9473 114.99 29.6816 114.844 29.4339 114.688C29.3675 114.651 29.3575 114.548 29.3193 114.477C29.3334 113.778 30.2792 113.936 30.462 113.291C30.6087 112.792 31.0263 112.365 31.3443 111.882C31.2322 111.634 31.1611 111.418 31.0643 111.198C31.0058 111.048 30.9549 110.912 30.9041 110.776C31.181 110.389 31.4399 110.011 31.8117 109.499C31.955 109.421 32.2596 109.255 32.5463 109.099C32.6311 108.871 32.7159 108.642 32.811 108.39C33.5636 107.98 34.3161 107.57 34.9074 107.248C35.3099 106.665 35.6253 106.22 36.1048 105.522C36.9648 105.053 38.0578 104.458 39.097 103.891C39.1845 103.625 39.2385 103.468 39.3054 103.25C40.0041 102.869 40.7388 102.469 41.4913 102.059C41.594 101.821 41.7044 101.597 41.8277 101.311C42.2501 101.063 42.7544 100.752 43.1768 100.503C43.2539 100.261 43.3079 100.105 43.3722 99.9239C43.9456 99.6114 44.5368 99.2892 45.146 98.9572C45.2488 98.7193 45.3336 98.4911 45.4287 98.2392C45.6975 98.0927 46.002 97.9267 46.2887 97.7705C46.4507 97.3002 46.6204 96.8439 46.7797 96.4114C47.1897 95.9697 47.5853 96.3544 48.0994 96.2743C48.4993 95.7289 48.9377 95.1261 49.3582 94.5331C49.5524 94.591 49.7134 94.6306 49.9 94.6744C49.9925 94.4603 50.067 94.2559 50.1697 94.018C50.9044 93.6177 51.6569 93.2075 52.3915 92.8071C52.4763 92.579 52.5611 92.3508 52.646 92.1227C53.4702 91.6735 54.2944 91.2243 55.1186 90.7751C55.2335 90.858 55.366 91.0586 55.4454 91.0335C55.7447 90.9431 55.6991 90.7315 55.5665 90.5309C55.7486 90.268 55.905 90.0008 56.1179 89.6665C56.3329 89.5493 56.6375 89.3833 56.9242 89.227C57.1552 88.7555 56.7159 88.5038 56.5965 88.1141C56.08 88.1046 55.5456 88.1048 54.9345 88.0922C54.5583 88.2973 54.1103 88.5415 53.6803 88.7758C53.4938 88.732 53.3327 88.6924 53.113 88.6303C52.9847 88.8639 52.8308 89.0933 52.6435 89.4319C52.3162 89.4284 51.9199 89.4261 51.4801 89.4293C51.2878 89.716 51.0673 90.0363 50.8467 90.3566C50.2223 90.6606 49.7373 90.1973 49.18 90.1554C48.8754 90.3214 48.5887 90.4777 48.1945 90.6925C47.4234 90.1305 47.3334 89.07 46.6725 88.4116C46.2943 88.2721 46.0712 88.6302 45.7718 88.7205C45.5728 88.4834 45.6094 88.0814 45.1314 88.0146C45.0492 88.2049 44.967 88.3952 44.8772 88.5715C44.4092 88.6083 43.9591 88.6353 43.4988 88.6861C43.2793 88.4965 43.0597 88.3069 42.8658 88.1216C42.6507 88.2388 42.5074 88.3169 42.3461 88.4048C42.032 88.2122 41.7282 87.9958 41.4064 87.7892C41.34 87.7526 41.2454 87.7496 41.1355 87.7186C41.2024 87.5002 41.2437 87.2776 41.3209 87.0354C41.2598 86.9232 41.1833 86.783 41.0992 86.6287C40.8795 86.5666 40.652 86.4905 40.4323 86.4283C40.4992 86.21 40.5584 85.9776 40.6074 85.769C40.1755 85.6588 39.7947 85.5571 39.4983 85.4822C39.6579 84.9222 39.8354 84.3525 39.995 83.7926C40.0973 83.8096 40.2583 83.8492 40.4014 83.8985C40.4475 83.8552 40.5447 83.8204 40.5473 83.7826C40.5228 83.2685 40.4905 82.7403 40.461 82.1744C40.2591 82.1025 40.0419 82.0025 39.6561 81.849C39.567 81.6429 39.3222 81.3216 39.2871 80.9587C39.2647 80.6617 39.5107 80.3457 39.2633 80.0622C38.9852 79.7226 39.0371 79.3487 39.1683 78.9498C39.2454 78.7076 38.824 78.4462 39.2006 78.1136C39.3613 78.2807 39.5221 78.4477 39.6905 78.6288C40.4067 78.4931 41.2344 78.8605 41.9927 78.1198C42.3453 78.2551 42.7235 78.3946 43.1348 78.5524C43.1652 78.7359 43.1929 78.9573 43.2358 79.2067C42.7093 79.0935 42.2595 78.9931 41.802 78.8786C41.5863 79.3782 42.0256 79.6299 42.1603 80.0476C41.5296 80.9371 42.1769 82.0395 41.518 82.9625C41.8856 83.2533 42.2303 83.502 42.5648 83.7745C43.0762 83.7322 43.5189 83.5636 43.7884 83.0348C43.561 82.9586 43.3591 82.8867 43.1394 82.8246C43.1659 82.319 43.708 82.3328 43.977 82.0589C44.1717 81.8618 44.277 81.5861 44.4232 81.3427C44.643 81.4048 44.804 81.4444 44.9395 81.4797C45.3158 81.2746 45.6562 81.0891 45.9608 80.923C46.2081 79.9697 44.7933 80.3588 44.9408 79.478C45.0259 79.1224 45.4657 79.1192 45.6554 78.8703C45.8723 79.0977 46.0122 79.4398 46.2535 78.9444C46.0746 78.9146 45.8957 78.8848 45.6554 78.8703ZM38.7015 139.196C38.3732 139.702 38.3732 139.702 38.876 140.156C39.2757 139.738 38.7647 139.525 38.6066 139.32C38.9114 139.027 39.2748 138.883 38.7638 138.671C38.7175 138.842 38.6711 139.012 38.7015 139.196ZM196.294 76.4773C196.011 76.2133 195.863 75.8572 195.63 76.3665C195.809 76.3964 195.987 76.4262 196.179 76.3944C196.685 76.6826 196.685 76.6826 197.177 76.1781C196.763 75.8031 196.504 76.3082 196.294 76.4773ZM172.834 109.928C172.719 109.845 172.586 109.645 172.489 109.68C172.189 109.77 172.235 109.982 172.368 110.182C172.127 110.423 171.554 110.353 171.645 110.903C172.336 110.763 172.336 110.763 172.368 110.182C172.529 110.094 172.672 110.016 172.834 109.928C173.339 110.217 173.339 110.217 173.831 109.712C173.425 109.351 173.166 109.856 172.834 109.928ZM50.0237 87.5673C49.5457 87.5004 48.0906 87.6023 47.8015 87.6689C47.6935 87.9824 47.5855 88.2959 47.4543 88.6948C47.7869 88.6227 48.0759 88.5561 48.3727 88.5036C48.8098 88.5382 49.208 88.885 49.6865 88.697C49.8048 88.3597 49.8949 88.0559 50.0237 87.5673ZM38.4708 136.811C39.0843 136.914 39.6978 137.016 40.301 137.142C40.4706 136.686 40.0774 136.391 39.8478 136.097C39.485 135.986 39.1732 135.883 38.9126 135.788C38.7334 135.886 38.5901 135.964 38.393 136.072C38.413 136.279 38.4331 136.486 38.4708 136.811ZM43.1671 85.6472C42.3898 85.6707 42.1631 85.2121 41.7902 84.997C41.4505 84.8001 41.1108 84.6033 40.6971 84.3558C40.6576 84.923 40.9921 85.1955 41.0862 85.4535C41.5919 85.7417 42.0235 85.9794 42.4296 86.2128C42.6038 86.0633 42.7216 85.981 43.1671 85.6472ZM155.844 43.28C155.325 43.3083 154.831 43.3408 154.32 43.3831C154.237 43.7009 154.139 43.9906 154.067 44.2846C154.586 44.2564 155.054 44.2196 155.556 44.2011C155.633 43.9589 155.733 43.6314 155.844 43.28ZM158.555 118.311C158.825 118.637 158.968 118.813 159.144 119.008C159.318 118.732 159.462 118.526 159.624 118.311C160.109 118.519 160.564 118.544 160.672 118.103C160.333 117.906 159.993 117.709 159.76 117.581C159.31 117.863 159.049 118.024 158.555 118.311ZM60.8539 70.8958C59.6539 71.2952 59.6615 71.3092 59.4995 71.7795C60.0263 71.7653 60.4205 71.5504 60.8539 70.8958ZM51.8131 77.2058C51.9889 77.5284 52.0092 77.6083 52.0654 77.6686C52.1623 77.7613 52.2952 77.8344 52.3998 77.9411C52.4767 77.8264 52.5689 77.7398 52.6203 77.6208C52.7128 77.4067 52.7541 77.1841 52.8827 76.823C52.504 76.9384 52.2379 77.0471 51.8131 77.2058ZM54.77 146.718C55.1309 147.85 55.1309 147.85 55.614 147.968C55.6226 147.472 55.4239 147.108 54.77 146.718ZM51.3925 151.906C51.0889 151.562 50.6976 151.612 50.3526 151.491C50.183 151.947 50.3359 152.228 50.8547 152.327C51.0365 152.191 51.2184 152.056 51.3925 151.906ZM51.6877 73.3087C52.0307 74.4496 52.0486 74.4399 52.5316 74.5586C52.5479 74.0768 52.3415 73.6981 51.6877 73.3087ZM40.9634 81.5185C41.1027 80.8787 40.8734 80.458 40.2678 80.2423C40.1208 80.8681 40.3578 81.3029 40.9634 81.5185ZM174.976 108.487C174.504 108.345 174.199 108.511 174.063 108.986C174.535 109.128 174.84 108.962 174.976 108.487ZM32.8493 111.062C32.9389 111.013 33.0388 110.94 33.1284 110.892C33.0648 110.69 32.9937 110.474 32.8943 110.291C32.8714 110.249 32.7104 110.21 32.6745 110.229C32.5823 110.316 32.4413 110.484 32.4719 110.54C32.561 110.746 32.7321 110.889 32.8493 111.062ZM29.322 121.006C29.887 121.062 30.2348 121.018 30.1694 120.472C29.7962 120.384 29.553 120.535 29.322 121.006ZM88.9411 54.0776C88.8415 54.0227 88.7342 53.9539 88.6346 53.899C88.6038 53.9704 88.5448 54.0753 88.5677 54.1174C88.6391 54.2058 88.7643 54.2649 88.8639 54.3198C88.8871 54.2344 88.9179 54.163 88.9411 54.0776ZM78.6091 60.3637C78.6758 60.2728 78.7527 60.1581 78.8117 60.0532C78.7351 60.0404 78.6278 59.9715 78.5996 60.0051C78.5074 60.0917 78.4484 60.1967 78.3638 60.2973C78.4302 60.3339 78.5069 60.3467 78.6091 60.3637ZM72.0127 64.1227C71.946 64.2136 71.8691 64.3283 71.8101 64.4332C71.8867 64.446 71.994 64.5149 72.0222 64.4813C72.1144 64.3947 72.1734 64.2897 72.258 64.1891C72.1916 64.1525 72.1149 64.1397 72.0127 64.1227ZM163.063 27.1034C163.039 27.1888 163.009 27.2602 162.985 27.3456C163.116 27.3291 163.244 27.3504 163.359 27.3058C163.402 27.3003 163.42 27.1631 163.433 27.1015C163.313 27.0942 163.193 27.0869 163.063 27.1034ZM33.9495 109.371C33.9727 109.285 34.0035 109.214 34.0267 109.129C33.8963 109.145 33.7685 109.124 33.6533 109.168C33.6098 109.174 33.6096 109.301 33.5788 109.373C33.6989 109.38 33.837 109.377 33.9495 109.371ZM46.5274 125.071C46.4966 125.143 46.4376 125.248 46.4605 125.29C46.5319 125.378 46.6571 125.437 46.7567 125.492C46.7876 125.421 46.8466 125.316 46.8236 125.274C46.7522 125.185 46.627 125.126 46.5274 125.071ZM43.9208 129.584C43.8212 129.53 43.714 129.461 43.6144 129.406C43.5835 129.477 43.5245 129.582 43.5475 129.624C43.6189 129.713 43.7364 129.758 43.8437 129.827C43.8668 129.741 43.8977 129.67 43.9208 129.584ZM40.3122 132.643C40.2126 132.588 40.1053 132.519 40.0057 132.464C39.9749 132.535 39.9159 132.64 39.9388 132.682C40.0102 132.771 40.1354 132.83 40.235 132.885C40.2582 132.799 40.289 132.728 40.3122 132.643ZM43.0177 131.168C42.9181 131.113 42.8109 131.044 42.7113 130.989C42.6804 131.061 42.6214 131.166 42.6444 131.208C42.7158 131.296 42.841 131.355 42.9406 131.41C42.9637 131.325 42.9946 131.253 43.0177 131.168ZM186.44 54.0899C186.524 54.1167 186.601 54.1295 186.685 54.1563C186.685 54.0288 186.711 53.9056 186.675 53.7977C186.66 53.7696 186.532 53.7483 186.456 53.7356C186.448 53.849 186.447 53.9765 186.44 54.0899ZM62.6024 137.211C62.5358 137.302 62.4588 137.416 62.3998 137.521C62.4765 137.534 62.5838 137.603 62.6119 137.569C62.7042 137.483 62.7632 137.378 62.8477 137.277C62.7813 137.24 62.7047 137.228 62.6024 137.211ZM53.5503 149.384C53.466 149.357 53.3893 149.345 53.305 149.318C53.3047 149.445 53.2789 149.568 53.3145 149.676C53.3375 149.718 53.4576 149.726 53.5343 149.738C53.5422 149.625 53.5424 149.498 53.5503 149.384ZM49.2823 153.62C49.3055 153.535 49.3363 153.464 49.3595 153.378C49.229 153.395 49.1012 153.373 48.9861 153.418C48.9426 153.423 48.9423 153.551 48.9115 153.622C49.0317 153.63 49.1698 153.627 49.2823 153.62ZM194.234 74.6167C194.301 74.5258 194.378 74.4111 194.437 74.3062C194.36 74.2934 194.253 74.2246 194.225 74.2581C194.133 74.3448 194.074 74.4497 193.989 74.5504C194.073 74.5772 194.15 74.5899 194.234 74.6167ZM194.805 76.9432C194.889 76.97 194.966 76.9828 195.05 77.0096C195.051 76.8821 195.077 76.7589 195.041 76.651C195.018 76.6089 194.898 76.6016 194.821 76.5889C194.813 76.7023 194.805 76.8158 194.805 76.9432ZM171.139 111.125C171.062 111.112 170.955 111.043 170.926 111.077C170.834 111.164 170.757 111.278 170.673 111.379C170.749 111.392 170.857 111.461 170.885 111.427C171.003 111.345 171.062 111.24 171.139 111.125ZM158.015 118.642C157.948 118.733 157.871 118.847 157.812 118.952C157.889 118.965 157.996 119.034 158.024 119C158.116 118.914 158.175 118.809 158.26 118.708C158.176 118.681 158.117 118.659 158.015 118.642Z" fill="#E0C4C1"/>
</g>
<g clip-path="url(#clip1_1140_11)">
<path d="M119.648 89.4255C116.234 89.1181 112.818 89.0572 109.399 89.249C107.464 89.3555 106.776 92.4564 108.912 92.8368C109.688 92.9737 110.463 93.1137 111.236 93.2507C111.622 93.3207 112.012 93.3876 112.398 93.4576C113.074 93.6432 113.165 93.6189 112.666 93.3846C112.486 92.9555 112.31 92.5234 112.13 92.0943C112.325 91.4887 112.255 91.4765 111.921 92.0547C111.698 92.3469 111.47 92.6329 111.233 92.9129C110.786 93.4454 110.311 93.9567 109.828 94.4557C108.802 95.5178 109.475 97.7028 111.117 97.5719C113.15 97.4106 114.987 96.9329 116.858 96.1295C116.243 95.0796 115.629 94.0267 115.014 92.9768C114.388 93.2933 113.737 93.5367 113.046 93.6706C112.322 93.8106 112.085 93.8684 111.914 93.0833C111.674 91.9817 112.185 91.0201 113.004 90.3262C111.966 89.8971 110.926 89.465 109.888 89.0359C109.919 91.2057 109.922 93.3724 109.894 95.5391C109.876 97.2006 111.866 97.8427 113.01 96.8294C115.288 94.8148 117.57 92.8033 119.848 90.7888C118.988 89.9276 118.127 89.0664 117.266 88.2052C115.888 89.4894 114.488 90.877 113.627 92.5781C112.873 94.0693 112.085 96.7229 113.6 97.9979C115.334 99.4526 117.019 97.7241 118.2 96.5068C119.915 94.7388 121.628 92.9677 123.344 91.1996C124.46 90.0493 123.636 88.123 122.054 88.0834C120.46 88.0408 118.866 88.0134 117.272 88.0013C115.839 87.9921 114.154 87.7639 112.782 88.2356C111.479 88.6829 110.914 89.958 110.317 91.0931C109.599 92.4595 108.93 93.8502 108.297 95.2561C107.826 96.306 108.154 97.6084 109.389 97.9371C109.682 98.0162 109.974 98.0923 110.266 98.1714C112.538 98.78 113.509 95.2561 111.236 94.6505C110.944 94.5714 110.652 94.4953 110.36 94.4162C110.725 95.3109 111.087 96.2055 111.452 97.0972C111.899 96.1051 112.362 95.1191 112.848 94.1453C113.092 93.6584 113.341 93.1746 113.597 92.6938C113.934 92.0578 113.962 91.8295 114.579 91.65C115.55 91.37 117.153 91.6469 118.166 91.6591C119.462 91.6713 120.758 91.6987 122.054 91.7321C121.625 90.6944 121.193 89.6537 120.764 88.616C119.666 89.748 118.571 90.8801 117.473 92.0121C116.925 92.5781 116.374 93.1442 115.827 93.7102C115.553 93.9932 115.279 94.2762 115.002 94.5592C114.29 95.0887 114.5 95.2317 115.629 94.9852C115.909 95.3504 116.189 95.7126 116.469 96.0777C115.954 94.1271 118.647 91.9086 119.848 90.7888C121.579 89.1759 119.018 86.6623 117.266 88.2052C114.987 90.2197 112.705 92.2312 110.427 94.2458C111.464 94.6749 112.505 95.107 113.542 95.5361C113.566 93.3663 113.566 91.1996 113.536 89.0329C113.512 87.3622 111.598 86.7414 110.421 87.7426C108.322 89.5228 107.573 92.712 108.821 95.2013C110.436 98.424 114.217 97.4563 116.855 96.1264C118.994 95.0492 117.117 92.0669 115.011 92.9737C113.773 93.5063 112.453 93.8136 111.114 93.9202C111.543 94.9579 111.975 95.9986 112.404 97.0363C113.563 95.8373 116.037 93.7193 115.745 91.8508C115.376 89.5076 111.635 89.6263 109.873 89.3159C109.712 90.5119 109.551 91.7078 109.386 92.9038C112.809 92.7151 116.222 92.7729 119.636 93.0803C121.987 93.2872 121.972 89.6354 119.648 89.4255Z" fill="#D3A4A1"/>
<path d="M140.152 111.281C141.606 110.566 143.118 110.295 144.731 110.35C144.569 109.154 144.408 107.958 144.244 106.762C142.154 107.593 140.082 107.922 137.84 107.754C138.147 108.889 138.455 110.021 138.762 111.156C139.909 110.332 141.117 109.653 142.473 109.245C142.969 109.096 143.477 108.968 143.985 108.88C144.539 108.786 145.424 108.938 145.923 108.743C146.337 108.85 146.23 108.798 145.598 108.588C145.461 108.914 145.327 109.242 145.196 109.574C145.007 110.091 144.846 110.615 144.725 111.15C144.402 112.565 144.305 114.008 144.402 115.453C144.533 117.367 147.627 118.095 147.989 115.94C148.32 113.953 148.828 112.03 149.516 110.137C148.342 110.137 147.17 110.137 145.996 110.137C146.519 113.743 147.043 117.349 147.566 120.955C148.74 120.633 149.911 120.307 151.086 119.985C150.176 117.809 149.266 115.636 148.36 113.46C147.736 111.972 145.266 111.497 144.84 113.46C144.302 115.934 143.894 118.423 143.578 120.934C144.795 120.934 146.011 120.934 147.228 120.934C146.857 117.112 146.486 113.29 146.115 109.467C145.966 107.934 144.21 107.009 143 108.177C141.524 109.601 141.576 111.662 141.412 113.576C141.205 115.937 141.004 118.299 140.8 120.66C141.996 120.499 143.191 120.338 144.387 120.173C143.888 117.571 143.809 114.963 144.067 112.328C142.851 112.328 141.634 112.328 140.417 112.328C140.417 114.574 140.195 116.768 139.72 118.965C140.894 118.965 142.066 118.965 143.24 118.965C142.759 115.867 142.498 112.745 142.409 109.611C142.373 108.293 140.864 107.249 139.662 108.034C137.761 109.276 137.545 111.479 137.07 113.533C136.489 116.038 135.911 118.545 135.33 121.05C136.526 121.211 137.721 121.372 138.917 121.537C138.853 118.907 139.188 116.388 139.939 113.865C138.744 113.704 137.548 113.542 136.353 113.378C136.328 113.67 136.307 113.959 136.283 114.251C136.179 115.548 137.947 116.643 139.03 115.828C139.343 115.593 140.414 115.648 140.971 115.182C141.774 114.51 141.892 113.594 141.953 112.608C142.063 110.895 142.75 107.763 141.326 106.388C139.933 105.04 138.102 106.038 136.955 107.155C135.635 108.436 134.901 110.24 134.406 111.975C133.259 115.989 133.396 120.298 135.896 123.846C138.662 127.772 143.934 121.625 147.459 123.365C147.605 122.252 147.751 121.141 147.894 120.027C145.786 120.459 143.635 120.523 141.509 120.17C141.348 121.366 141.187 122.562 141.022 123.758C142.771 123.706 144.15 123.134 145.522 122.075C146.653 121.199 145.908 119.361 144.715 119.023C142.574 118.417 140.38 118.716 138.503 119.924C136.532 121.19 138.36 124.351 140.347 123.076C141.433 122.379 142.498 122.191 143.748 122.544C143.48 121.527 143.21 120.508 142.942 119.492C142.373 119.93 141.725 120.085 141.025 120.106C139.066 120.164 138.427 123.344 140.539 123.694C143.353 124.16 146.069 124.126 148.865 123.551C150.362 123.244 150.684 120.897 149.3 120.213C146.775 118.968 144.201 119.376 141.658 120.353C140.986 120.608 140.326 120.894 139.647 121.129C139.306 121.247 138.966 121.354 138.619 121.448C138.832 121.39 138.89 122.051 138.716 121.436C138.29 119.905 137.356 118.679 137.244 117.024C137.101 114.909 137.889 111.488 139.389 109.89C139.492 109.781 139.961 109.483 140 109.373C140.45 109.163 140.222 109.023 139.322 108.959C138.665 108.421 138.373 108.421 138.449 108.962C138.169 109.455 138.373 110.813 138.348 111.394C138.336 111.68 138.181 112.355 138.299 112.611C138.217 113.058 138.324 113.034 138.625 112.535C139.054 112.231 139.112 112.109 138.798 112.164C138.43 111.954 137.454 112.471 137.183 112.672C138.099 113.198 139.014 113.722 139.93 114.248C139.954 113.956 139.976 113.667 140 113.375C140.164 111.269 136.985 110.974 136.413 112.888C135.577 115.697 135.19 118.6 135.26 121.53C135.309 123.53 138.366 124.084 138.847 122.017C139.294 120.091 139.738 118.162 140.186 116.235C140.386 115.368 140.587 114.501 140.788 113.634C140.894 113.174 141.04 111.485 141.503 111.184C140.587 110.657 139.672 110.134 138.756 109.607C138.853 113.071 139.188 116.509 139.717 119.933C139.994 121.728 142.872 121.619 143.237 119.933C143.778 117.428 144.064 114.89 144.064 112.325C144.064 109.933 140.639 110.027 140.414 112.325C140.125 115.289 140.304 118.22 140.864 121.141C141.278 123.289 144.286 122.577 144.451 120.654C144.603 118.883 144.755 117.112 144.907 115.341C144.974 114.553 145.044 113.767 145.111 112.979C145.169 112.319 145.059 111.254 145.579 110.752C144.542 110.323 143.502 109.89 142.464 109.461C142.835 113.284 143.206 117.106 143.578 120.928C143.809 123.302 146.936 123.247 147.228 120.928C147.502 118.743 147.891 116.576 148.36 114.425C147.186 114.425 146.014 114.425 144.84 114.425C145.75 116.601 146.659 118.773 147.566 120.949C148.476 123.125 151.426 122.325 151.086 119.978C150.562 116.372 150.039 112.766 149.516 109.16C149.233 107.2 146.538 107.672 145.996 109.16C145.306 111.053 144.801 112.976 144.469 114.963C145.665 115.125 146.86 115.286 148.056 115.45C147.907 113.247 148.485 111.604 149.12 109.556C149.662 107.809 149.145 105.968 147.28 105.338C143.979 104.224 139.568 106.093 136.918 107.998C135.437 109.063 135.969 111.263 137.84 111.4C140.365 111.586 142.863 111.211 145.214 110.277C147.058 109.544 146.906 106.762 144.728 106.689C142.458 106.613 140.341 107.121 138.309 108.119C136.2 109.163 138.05 112.313 140.152 111.281Z" fill="#D3A4A1"/>
<path d="M154.235 164.159C156.687 174.733 158.759 185.795 156.322 196.541C153.897 207.228 152.038 217.915 151.479 228.88C151.193 234.434 151.302 240.009 150.806 245.553C150.329 250.912 148.689 255.976 147.758 261.25C146.818 266.584 146.979 271.995 146.751 277.384C146.52 282.819 145.963 288.239 145.057 293.604C144.606 296.27 144.077 298.924 143.466 301.559C142.93 303.869 141.829 306.449 141.987 308.847C142.331 314.106 148.263 313.421 151.923 312.916C154.518 312.557 157.116 312.134 159.632 311.391C161.816 310.746 164.125 309.985 165.406 307.965C166.686 305.947 167.267 303.257 167.772 300.95C168.317 298.461 168.642 295.917 168.816 293.376C169.546 282.64 167.815 271.797 167.368 261.073C166.905 249.902 166.978 238.712 167.459 227.544C167.931 216.528 169.026 205.539 169.275 194.511C169.4 189.061 169.3 183.595 168.749 178.169C168.478 175.494 168.11 172.825 167.614 170.181C167.219 168.078 166.811 165.905 165.573 164.107C164.523 162.582 162.896 161.444 160.973 161.691C160.03 161.812 159.099 162.43 159.148 163.516C159.559 172.445 159.86 181.349 158.832 190.25C157.818 199.036 156.446 207.727 155.868 216.561C155.284 225.505 154.968 234.461 154.375 243.405C153.788 252.242 153.057 261.067 152.26 269.886C151.807 274.898 151.333 279.907 150.849 284.916C150.596 287.521 150.344 290.126 150.091 292.728C149.939 294.274 150.006 297.883 147.737 297.77C146.897 297.728 146.237 298.376 145.975 299.109C144.643 302.877 144.476 306.869 145.382 310.752C145.668 311.982 147.585 312.654 148.433 311.559C149.258 310.494 151.147 310.801 152.343 310.417C154.217 309.818 155.214 308.403 155.844 306.61C157.371 302.271 157.983 297.588 158.317 293.02C159.051 283.008 158.798 272.877 158.932 262.844C159.069 252.601 159.206 242.361 159.343 232.118C159.476 222.127 159.464 212.054 160.563 202.109C160.858 199.419 161.369 196.76 162.233 194.188C163.072 191.687 164.14 189.264 164.712 186.681C165.892 181.358 165.445 175.896 164.949 170.519C164.736 168.206 161.116 168.16 161.299 170.519C161.998 179.609 161.025 188.674 160.112 197.712C159.203 206.714 158.704 215.7 158.746 224.75C158.828 242.574 160.389 260.364 160.124 278.191C159.972 288.336 159.203 298.476 157.219 308.442C158.235 308.175 159.254 307.904 160.27 307.636C157.262 304.849 158.031 299.983 158.214 296.303C158.476 290.999 158.646 285.689 158.725 280.379C158.883 269.655 158.661 258.931 158.077 248.222C156.86 248.222 155.643 248.222 154.426 248.222C155.099 258.763 155.449 269.332 155.157 279.895C154.91 288.793 154.992 298.893 149.407 306.346C150.52 306.492 151.631 306.638 152.744 306.781C152.358 304.34 153.197 301.872 154.868 300.083C156.489 298.345 154.061 295.987 152.285 297.499C151.016 298.583 149.55 299.173 147.919 299.456C148.689 300.043 149.459 300.631 150.231 301.218C150.234 299.471 151.527 298.065 152.349 296.614C153.213 295.089 153.821 293.415 154.223 291.714C155.111 287.953 155.22 284.006 155.528 280.166C156.221 271.484 156.912 262.799 157.606 254.117C157.739 252.437 155.57 251.846 154.49 252.826C151.853 255.215 150.551 258.569 149.885 261.995C149.072 266.173 148.765 270.476 148.272 274.703C147.189 283.988 146.106 293.269 145.02 302.551C144.792 304.505 147.518 304.812 148.421 303.473C154.414 294.602 159.105 285.278 161.122 274.691C163.121 264.204 163.057 253.49 162.945 242.857C162.92 240.508 159.288 240.502 159.294 242.857C159.34 263.62 159.388 284.38 159.434 305.144C159.44 307.563 162.795 307.405 163.084 305.144C164.679 292.636 166.27 280.126 167.864 267.619C166.647 267.619 165.43 267.619 164.213 267.619C164.031 274.192 163.848 280.765 163.666 287.335C163.583 290.33 163.565 293.336 163.395 296.325C163.252 298.799 162.89 301.452 161.156 303.354C162.172 303.622 163.191 303.893 164.207 304.161C162.026 296.684 160.873 288.982 159.744 281.292C159.44 279.222 156.151 279.77 156.157 281.779C156.182 289.928 155.68 298.078 154.588 306.154C155.762 306.154 156.933 306.154 158.107 306.154C157.581 303.701 157.523 301.2 157.968 298.729C156.793 298.406 155.622 298.081 154.448 297.758C153.906 301.452 152.936 305.074 151.448 308.5C152.583 308.808 153.715 309.115 154.849 309.422C154.74 302.168 155.217 294.916 156.337 287.746C156.592 286.118 154.636 284.475 153.286 285.969C147.758 292.098 144.746 300.165 145.035 308.43C145.117 310.789 148.552 310.77 148.686 308.43C148.917 304.356 149.148 300.253 150.107 296.27C151.056 292.329 152.915 289.058 155.065 285.665C159.26 279.049 161.107 271.794 161.798 264.046C162.549 255.626 162.473 247.105 162.692 238.66C162.926 229.647 163.164 220.63 163.398 211.616C163.629 202.809 163.617 193.537 167.66 185.476C166.525 185.168 165.393 184.861 164.259 184.554C164.116 209.337 163.291 234.114 161.785 258.852C163.002 258.852 164.219 258.852 165.436 258.852C164.511 237.802 163.614 216.643 166.191 195.67C164.974 195.67 163.757 195.67 162.54 195.67C163.088 210.889 163.553 227.483 154.855 240.739C155.99 241.046 157.122 241.354 158.257 241.661C157.745 234.269 158.123 226.856 159.461 219.568C159.814 217.639 157.189 216.242 156.124 218.162C153.648 222.629 152.616 227.59 151.689 232.562C151.263 234.841 154.563 235.827 155.208 233.533C158.433 222.045 162.954 210.971 166.178 199.483C167.757 193.85 168.992 188.123 169.613 182.305C169.896 179.657 170.398 176.867 168.524 174.688C166.817 172.704 165.117 171.118 164.259 168.547C163.48 166.213 163.732 162.978 161.293 161.584C159.038 160.297 156.377 161.615 156.051 164.119C155.856 165.616 157.712 166.225 158.798 165.695C159.473 165.367 160.149 165.038 160.824 164.709C160.21 163.66 159.595 162.607 158.981 161.557C158.074 162.074 157.17 162.591 156.264 163.109C155.446 163.577 155.062 164.792 155.61 165.607C157.061 167.774 158.509 169.941 159.96 172.11C161.156 173.897 162.634 175.476 164.895 174.411C164 173.723 163.106 173.035 162.214 172.348C161.21 176.955 161.408 181.684 162.899 186.166C163.565 188.169 166.312 187.731 166.486 185.68C166.546 184.964 166.604 184.252 166.665 183.537C166.863 181.194 163.209 181.209 163.014 183.537C162.954 184.252 162.896 184.964 162.835 185.68C164.031 185.518 165.226 185.357 166.422 185.193C165.138 181.328 164.867 177.302 165.737 173.315C166.093 171.684 164.502 170.574 163.057 171.252C163.322 171.246 163.589 171.243 163.854 171.237C163.769 171.152 163.684 171.066 163.599 170.984C163.52 170.677 163.133 170.287 162.954 170.02C162.47 169.298 161.986 168.574 161.503 167.853C160.59 166.49 159.677 165.123 158.765 163.76C158.546 164.594 158.33 165.425 158.111 166.258C159.017 165.741 159.921 165.224 160.827 164.706C162.89 163.529 161.077 160.534 158.984 161.554C158.308 161.882 157.633 162.211 156.958 162.54C157.873 163.066 158.789 163.59 159.705 164.116C159.708 164.098 159.321 164.822 159.318 164.752C159.318 164.737 159.464 164.767 159.455 164.731C159.501 164.928 159.772 165.282 159.854 165.54C160.164 166.526 160.204 167.594 160.468 168.595C161.034 170.759 162.062 172.786 163.434 174.548C164.064 175.357 164.788 176.039 165.494 176.778C166.385 177.713 166.279 178.583 166.187 179.828C166.008 182.32 165.689 184.797 165.26 187.259C163.535 197.167 160.201 206.692 156.942 216.178C155.081 221.601 153.237 227.036 151.689 232.559C152.863 232.882 154.034 233.207 155.208 233.53C156.075 228.886 156.961 224.178 159.276 220.003C158.162 219.534 157.052 219.066 155.938 218.597C154.542 226.208 154.071 233.938 154.603 241.661C154.728 243.475 156.985 244.138 158.004 242.583C167.058 228.782 166.756 211.528 166.187 195.67C166.102 193.26 162.817 193.391 162.537 195.67C159.96 216.643 160.855 237.802 161.782 258.852C161.886 261.21 165.29 261.195 165.433 258.852C166.939 234.114 167.763 209.337 167.906 184.554C167.915 182.813 165.336 181.976 164.505 183.632C160.882 190.859 160.143 198.914 159.878 206.878C159.577 215.95 159.397 225.027 159.16 234.102C158.932 242.854 158.88 251.63 158.406 260.37C157.977 268.27 156.708 276.079 152.489 282.905C150.119 286.736 147.846 290.366 146.712 294.785C145.571 299.234 145.294 303.859 145.035 308.427C146.252 308.427 147.469 308.427 148.686 308.427C148.433 301.133 150.971 293.978 155.868 288.55C154.852 287.956 153.833 287.366 152.817 286.772C151.646 294.271 151.086 301.833 151.199 309.419C151.223 311.087 153.839 312.091 154.6 310.341C156.221 306.607 157.377 302.758 157.968 298.726C158.302 296.449 154.868 295.415 154.448 297.755C153.882 300.899 153.918 303.996 154.588 307.122C154.947 308.795 157.864 308.932 158.107 307.122C159.242 298.714 159.832 290.263 159.808 281.776C158.612 281.937 157.417 282.098 156.221 282.262C157.347 289.952 158.503 297.655 160.684 305.132C161.055 306.397 162.786 306.979 163.735 305.938C167.797 301.486 167.112 294.718 167.267 289.131C167.465 281.961 167.666 274.792 167.864 267.622C167.931 265.209 164.502 265.364 164.213 267.622C162.619 280.129 161.028 292.639 159.434 305.147C160.651 305.147 161.868 305.147 163.084 305.147C163.039 284.383 162.99 263.623 162.945 242.86C161.728 242.86 160.511 242.86 159.294 242.86C159.403 253.149 159.537 263.572 157.602 273.723C156.65 278.72 155.208 283.638 153.067 288.257C150.895 292.95 148.16 297.353 145.27 301.632C146.404 301.939 147.536 302.247 148.671 302.554C149.684 293.869 150.697 285.187 151.713 276.502C152.184 272.454 152.537 268.374 153.167 264.351C153.681 261.055 154.521 257.726 157.073 255.41C156.036 254.981 154.995 254.549 153.958 254.12C153.264 262.802 152.574 271.487 151.88 280.169C151.582 283.924 151.524 287.828 150.52 291.483C149.586 294.885 146.59 297.594 146.581 301.224C146.578 302.502 147.743 303.184 148.893 302.986C151.162 302.594 153.127 301.577 154.871 300.089C154.01 299.228 153.149 298.367 152.288 297.505C149.656 300.326 148.625 303.969 149.224 307.758C149.498 309.498 151.74 309.288 152.562 308.193C158.299 300.536 158.482 290.257 158.774 281.094C159.127 270.136 158.777 259.165 158.08 248.228C157.931 245.897 154.302 245.873 154.43 248.228C155.047 259.536 155.26 270.863 155.047 282.186C154.944 287.716 154.688 293.233 154.442 298.756C154.262 302.81 154.524 307.283 157.691 310.22C158.631 311.09 160.459 310.828 160.742 309.413C167.842 273.705 159.991 237.239 163.416 201.26C164.39 191.039 165.746 180.804 164.955 170.522C163.739 170.522 162.522 170.522 161.305 170.522C161.734 175.175 162.23 179.974 161.414 184.615C160.602 189.24 158.317 193.427 157.484 198.062C155.798 207.423 155.917 217.222 155.771 226.704C155.467 246.652 155.406 266.609 154.956 286.55C154.837 291.803 154.554 297.089 153.313 302.21C153.021 303.412 152.741 304.696 152.26 305.838C151.874 306.754 151.448 306.93 150.493 307.103C148.789 307.414 147.013 307.478 145.857 308.972C146.873 309.24 147.892 309.511 148.908 309.778C148.144 306.504 148.382 303.239 149.501 300.077C148.914 300.524 148.327 300.972 147.74 301.416C152.315 301.644 153.34 296.848 153.687 293.321C154.15 288.613 154.606 283.906 155.05 279.198C155.954 269.682 156.808 260.157 157.517 250.626C158.217 241.253 158.679 231.871 159.175 222.486C159.668 213.183 160.654 204.011 161.907 194.785C162.592 189.751 163.109 184.715 163.203 179.633C163.3 174.256 163.051 168.882 162.805 163.51C162.196 164.119 161.588 164.728 160.979 165.336C162.573 165.129 163.218 167.211 163.544 168.471C164.189 170.966 164.563 173.58 164.876 176.136C165.509 181.255 165.707 186.419 165.673 191.574C165.603 201.884 164.609 212.161 164.058 222.453C163.492 233.019 163.27 243.606 163.504 254.187C163.729 264.399 164.828 274.539 165.235 284.736C165.433 289.642 165.357 294.614 164.368 299.441C163.945 301.504 163.519 304.386 162.245 306.124C161.609 306.991 160.45 307.301 159.467 307.621C158.223 308.026 156.951 308.345 155.671 308.61C153.38 309.085 151.016 309.489 148.68 309.675C147.922 309.736 146.912 309.851 146.21 309.474C145.273 308.972 145.662 307.828 145.875 306.976C147.095 302.113 148.19 297.244 148.941 292.28C149.702 287.247 150.207 282.177 150.411 277.089C150.618 271.946 150.417 266.745 151.378 261.663C152.306 256.746 153.76 251.992 154.311 247.002C154.88 241.859 154.831 236.673 155.014 231.509C155.376 221.226 156.723 210.998 159.032 200.971C160.197 195.911 161.302 190.969 161.144 185.74C160.988 180.671 160.194 175.582 159.291 170.598C158.841 168.112 158.323 165.641 157.755 163.182C157.222 160.899 153.702 161.867 154.235 164.159Z" fill="#D3A4A1"/>
<path d="M166.777 168.547C165.925 166.365 164.973 164.536 163.945 163.112C162.847 161.59 161.621 160.476 160.297 159.795C160.933 157.893 161.727 152.993 161.995 147.768C162.144 144.871 162.101 142.269 161.87 140.252C161.59 137.793 161.033 136.128 160.212 135.307C159.287 134.382 157.045 133.8 154.487 133.432C154.636 133.271 154.776 133.107 154.907 132.936C155.308 133.046 155.615 133.097 155.843 133.097C156.014 133.097 156.148 133.067 156.257 133.009C156.549 132.848 157.097 132.206 159.908 126.57C161.675 123.025 163.817 118.551 165.889 114.224C167.297 111.278 168.63 108.497 169.71 106.287C170.199 105.286 170.589 104.44 170.902 103.701C172.226 102.423 172.657 100.789 172.101 99.197C172.104 97.6632 171.462 96.4673 170.023 95.3292C168.697 94.2793 166.692 93.269 163.68 91.8782C159.874 90.1224 155.199 88.6738 150.164 87.6879C145.467 86.7688 140.654 86.285 136.249 86.285C135.306 86.285 134.378 86.3093 133.499 86.355C130.66 86.501 127.78 87.6939 124.935 89.9033C122.55 91.7535 120.646 93.9384 119.252 95.5361C118.464 96.4399 117.573 97.4624 117.293 97.5232C117.12 97.5354 116.849 97.5385 116.517 97.5385C119.319 93.6007 123.615 90.5575 125.388 89.3981C125.817 89.1181 125.842 88.8321 125.784 88.6434C125.635 88.1413 124.956 87.6909 118.385 87.6909C116.152 87.6909 113.877 87.7457 112.216 87.7852C111.334 87.8065 110.637 87.8218 110.278 87.8218C109.864 87.8218 109.274 88.0226 108.833 88.9873C108.209 90.3415 108.127 92.5416 108.133 93.7315C108.136 94.0389 108.161 96.7442 108.632 97.295C108.757 97.4411 109.019 97.7454 111.595 98.0041C112.8 98.1258 114.148 98.1988 115.194 98.2353C114.546 99.2943 114.059 100.344 113.74 101.367C112.955 103.874 109.691 107.964 104.547 112.876C99.8069 117.404 94.7904 121.378 91.9216 123.311C90.1845 124.479 89.4423 125.523 89.713 126.415C89.9868 127.312 91.2493 127.805 93.2662 127.805C95.6452 127.805 99.5879 127.042 103.518 124.902C109.803 121.482 117.226 114.556 123.773 108.442C125.921 106.437 127.95 104.544 129.818 102.885C132.203 100.767 135.011 99.696 138.159 99.696C142.963 99.696 147.395 102.161 149.525 103.348L149.656 103.421C150.842 104.081 153.139 104.781 155.716 105.274C155.554 105.901 155.396 106.54 155.241 107.161C154.56 109.887 153.854 112.708 152.972 115.064C152.455 116.448 151.682 117.629 150.678 118.591C150.651 118.153 150.632 117.687 150.62 117.197C150.377 107.639 150.222 105.831 146.69 105.557C146.562 105.548 146.425 105.536 146.282 105.524C145.275 105.445 143.897 105.335 142.485 105.335C140.49 105.335 138.95 105.548 137.779 105.986C136.191 106.583 135.324 107.596 135.202 108.996C135.002 111.315 134.773 114.303 134.801 116.859C134.84 120.319 135.321 121.926 136.361 122.066C136.428 122.075 136.514 122.087 136.608 122.1C137.393 122.209 139.023 122.44 141.004 122.44C144.776 122.44 147.824 121.625 150.082 120.018C150.292 121.868 150.669 123.07 151.256 123.773C151.877 124.516 152.631 124.574 153.239 124.616C153.799 124.659 154.158 124.701 154.435 125.054C154.751 125.456 155.281 126.57 155.454 127.994C155.585 129.08 155.539 130.654 154.621 132.105C152.993 131.588 150.334 130.447 147.283 129.135C141.427 126.622 134.786 123.77 131.89 123.77C130.654 123.77 130.292 124.309 130.207 124.762C129.638 127.815 130.247 130.608 131.923 132.629C132.191 132.951 132.486 133.253 132.805 133.539C130.329 133.91 128.829 134.391 128.336 134.972L128.321 134.99C127.81 135.59 126.955 136.597 126.271 138.572C125.458 140.912 125.084 144.053 125.16 147.902C125.236 151.776 125.866 154.904 126.28 156.977C126.563 158.383 126.83 159.713 126.611 160.008C126.14 160.653 125.659 161.295 125.191 161.916C122.827 165.072 120.594 168.054 118.954 171.882C117.102 176.209 116.332 180.887 116.536 186.593C116.749 192.585 116.587 215.861 116.42 240.505C116.314 256.134 116.201 272.293 116.183 284.615C116.152 305.399 116.408 305.862 116.548 306.111C117.232 307.344 118.471 308.461 120.226 309.432C121.914 310.366 124.086 311.169 126.687 311.823C131.844 313.117 138.667 313.801 146.413 313.801C153.997 313.801 160.273 313.01 164.559 311.516C168.849 310.019 171.115 307.837 171.115 305.202C171.115 304.474 171.124 302.402 171.136 299.264C171.45 226.022 171.136 186.404 170.199 181.504C169.46 177.673 168.408 172.734 166.777 168.547ZM140.995 121.71C139.066 121.71 137.469 121.485 136.699 121.375C136.602 121.36 136.517 121.351 136.447 121.339C136.298 121.321 135.558 121.01 135.513 116.841C135.485 114.318 135.71 111.351 135.911 109.051C136.009 107.934 136.699 107.152 138.023 106.653C139.093 106.251 140.593 106.047 142.473 106.047C143.857 106.047 145.22 106.157 146.215 106.233C146.358 106.245 146.495 106.254 146.626 106.266C148.028 106.373 148.773 106.68 149.205 108.132C149.671 109.696 149.774 112.602 149.893 117.206C149.911 117.915 149.945 118.576 149.99 119.172C147.837 120.855 144.81 121.71 140.995 121.71ZM171.377 99.3217C171.349 100.329 171.006 101.592 170.297 103.284C170.196 103.375 170.09 103.466 169.98 103.552C168.569 104.665 166.065 105.256 162.74 105.256C160.842 105.256 158.73 105.064 156.607 104.699C158 99.3613 159.686 94.261 163.209 94.261C163.647 94.261 164.118 94.3371 164.611 94.4923C168.155 95.5939 170.616 97.3528 171.377 99.3217ZM111.756 97.292C109.67 97.0881 109.247 96.8659 109.177 96.8203C109.052 96.5921 108.839 95.3231 108.851 93.4941C108.863 91.5283 109.125 89.9337 109.569 89.1151C109.883 88.5399 110.178 88.5399 110.275 88.5399C110.646 88.5399 111.346 88.5247 112.231 88.5034C113.889 88.4639 116.159 88.4091 118.382 88.4091C120.265 88.4091 121.787 88.4486 122.903 88.5278C124.15 88.616 124.704 88.7377 124.947 88.8229C123.052 90.0676 118.489 93.3237 115.647 97.5232C114.351 97.4898 112.913 97.4046 111.756 97.292ZM150.006 102.785L149.875 102.712C147.69 101.498 143.149 98.9687 138.159 98.9687C134.828 98.9687 131.862 100.104 129.34 102.341C127.466 104.002 125.434 105.901 123.283 107.909C116.767 113.993 109.381 120.885 103.178 124.263C99.3658 126.339 95.56 127.078 93.2693 127.078C91.3527 127.078 90.5283 126.603 90.4066 126.199C90.2484 125.678 90.9664 124.82 92.3262 123.904C95.2193 121.957 100.275 117.949 105.049 113.393C108.748 109.86 113.381 104.939 114.431 101.577C114.768 100.496 115.307 99.3796 116.034 98.2536C116.235 98.2566 116.42 98.2597 116.59 98.2597C116.913 98.2597 117.168 98.2536 117.348 98.2414C117.862 98.208 118.434 97.5719 119.797 96.0078C122.422 92.9981 127.308 87.3957 133.535 87.0731C134.405 87.0275 135.318 87.0062 136.249 87.0062C145.597 87.0062 155.993 89.1242 163.376 92.5325C166.339 93.8989 168.301 94.8879 169.573 95.8952C170.066 96.2847 170.449 96.6742 170.732 97.0789C170.425 96.7625 170.075 96.4551 169.682 96.1599C168.423 95.2105 166.789 94.4162 164.821 93.8045C164.261 93.6311 163.717 93.5428 163.206 93.5428C161.322 93.5428 159.786 94.6962 158.508 97.0668C157.407 99.1087 156.598 101.863 155.892 104.571C153.37 104.09 151.134 103.415 150.006 102.785ZM156.16 127.9C155.983 126.427 155.43 125.158 154.992 124.601C154.505 123.98 153.854 123.932 153.282 123.889C152.716 123.846 152.226 123.81 151.8 123.302C151.271 122.669 150.924 121.421 150.745 119.489C152.041 118.39 153.014 116.987 153.644 115.31C154.541 112.918 155.25 110.076 155.938 107.331C156.096 106.695 156.26 106.041 156.425 105.399C158.609 105.776 160.784 105.977 162.74 105.977C165.743 105.977 168.131 105.499 169.719 104.592C169.521 105.018 169.305 105.478 169.062 105.974C167.979 108.186 166.646 110.968 165.238 113.917C163.196 118.183 161.085 122.593 159.333 126.11C156.841 131.116 156.12 132.194 155.913 132.376C155.901 132.379 155.88 132.379 155.843 132.379C155.752 132.379 155.597 132.364 155.332 132.303C156.254 130.724 156.3 129.062 156.16 127.9ZM132.471 132.163C130.396 129.665 130.603 126.536 130.907 124.89C130.925 124.79 130.983 124.485 131.88 124.485C134.627 124.485 141.481 127.428 146.988 129.79C149.92 131.049 152.491 132.151 154.164 132.711C153.988 132.924 153.793 133.125 153.583 133.317C149.969 132.878 145.972 132.824 144.219 132.824C140.52 132.824 136.9 133.015 134.022 133.365C133.937 133.374 133.849 133.387 133.767 133.399C133.28 133.024 132.845 132.614 132.471 132.163ZM152.771 133.949C150.806 135.267 147.818 135.934 143.851 135.934C139.951 135.934 136.885 135.288 134.694 134.01C137.441 133.706 140.797 133.542 144.222 133.542C147.444 133.542 150.355 133.688 152.771 133.949ZM170.406 299.261C170.394 302.399 170.385 304.471 170.385 305.202C170.385 307.499 168.286 309.45 164.313 310.834C160.103 312.304 153.909 313.08 146.404 313.08C138.713 313.08 131.953 312.405 126.852 311.124C121.768 309.848 118.425 307.998 117.178 305.777C117.117 305.567 117.007 304.447 116.943 299.404C116.898 295.853 116.883 290.905 116.895 284.277C116.916 272.001 117.026 255.991 117.132 240.508C117.302 215.855 117.464 192.572 117.248 186.565C116.81 174.289 121.157 168.489 125.76 162.345C126.225 161.721 126.709 161.076 127.183 160.431C127.588 159.877 127.372 158.797 126.976 156.831C126.541 154.661 125.945 151.694 125.869 147.884C125.699 139.168 127.831 136.658 128.856 135.45L128.872 135.432C129.024 135.252 129.803 134.652 133.572 134.15C135.917 135.815 139.361 136.658 143.848 136.658C148.396 136.658 151.734 135.791 153.805 134.074C156.844 134.473 158.953 135.075 159.698 135.818C161.018 137.139 161.59 141.481 161.271 147.735C161.018 152.695 160.249 157.604 159.634 159.5C156.318 158.218 148.551 158.078 145.281 158.078C141.241 158.078 137.013 158.267 133.684 158.593C128.117 159.137 127.755 159.78 127.618 160.023C127.515 160.206 127.518 160.416 127.627 160.595C127.767 160.826 128.187 161.529 134.293 162.208C138.047 162.625 142.543 162.865 146.629 162.865C150.048 162.865 153.02 162.695 155.223 162.369C157.912 161.974 159.473 161.362 159.996 160.504C160.005 160.492 160.011 160.476 160.02 160.464C162.387 161.709 164.435 164.515 166.108 168.809C167.72 172.944 168.76 177.838 169.488 181.641C170.412 186.492 170.723 226.065 170.406 299.261ZM159.354 160.163C159.099 160.537 158.201 161.201 155.113 161.654C152.944 161.974 150.012 162.144 146.626 162.144C142.604 162.144 138.172 161.91 134.46 161.502C130.411 161.055 128.768 160.565 128.345 160.306C128.65 160.133 129.793 159.691 133.876 159.299C137.162 158.982 141.317 158.8 145.281 158.8C152.007 158.797 157.082 159.293 159.354 160.163Z" fill="#191919"/>
</g>
<defs>
<clipPath id="clip0_1140_11">
<rect width="97.4295" height="181.613" fill="white" transform="translate(52 181.462) rotate(-118.592)"/>
</clipPath>
<clipPath id="clip1_1140_11">
<rect width="262" height="131" fill="white" transform="translate(0 69)"/>
</clipPath>
</defs>
</svg>
