<svg width="222" height="219" viewBox="0 0 222 219" fill="none" xmlns="http://www.w3.org/2000/svg">
<rect width="222" height="200" rx="5" fill="#E8CFCB"/>
<g clip-path="url(#clip0_1140_14)">
<path fill-rule="evenodd" clip-rule="evenodd" d="M40.6554 78.8703C40.5027 78.4623 39.9731 78.6419 39.6258 78.431C39.5409 78.6591 39.4485 78.8732 39.3355 79.1349C39.1644 78.9917 38.9831 78.8722 38.6895 78.632C38.8334 78.299 38.9875 77.9421 39.1237 77.595C39.3434 77.6572 39.5045 77.6967 39.6655 77.7363C40.3619 77.2658 39.8977 76.6274 40.0062 76.059C40.753 75.9794 40.4825 77.0181 41.1371 77.0252C41.2295 76.8111 41.3144 76.5829 41.4068 76.3688C41.8132 76.4748 42.199 76.6283 42.6106 76.6586C42.902 76.6817 43.2296 76.5578 43.5877 76.4899C43.2723 76.9346 42.9954 77.322 42.6724 77.7527C42.5446 77.7315 42.3145 77.6931 42.0845 77.6548C41.8895 77.9793 42.0195 78.2178 42.2978 78.4299C42.9344 78.4467 43.347 77.9672 43.7462 77.8042C44.0898 77.3259 44.3667 76.9385 44.6436 76.5511C44.4959 76.195 44.338 75.8626 44.1904 75.5065C44.8586 75.0696 44.6804 76.0217 45.1204 75.891C45.4759 75.8609 45.7191 75.7102 45.7786 75.3503C45.5512 75.2742 45.3058 75.2078 45.0452 75.1134C44.9996 74.9018 44.9719 74.6804 44.9213 74.417C45.4478 74.5302 45.9053 74.6447 46.5084 74.7707C46.3279 74.2688 46.1855 73.837 46.0202 73.3632C46.5398 73.08 47.0415 72.8066 47.5611 72.5234C47.8065 72.5898 47.8065 72.5898 47.6134 73.2589C47.7663 73.5394 47.9192 73.8199 48.072 74.1003C48.7493 74.2769 49.1442 73.6797 49.7097 73.4806C49.8021 73.2665 49.8946 73.0524 49.9897 72.8005C50.2018 72.8486 50.4319 72.8869 50.6696 72.9393C52.0134 72.2069 53.3572 71.4744 54.7189 70.7322C54.8037 70.5041 54.8885 70.276 55.0068 69.9387C55.4313 69.9074 55.907 69.8846 56.4184 69.8423C56.5365 69.6325 56.6289 69.4184 56.7804 69.0993C58.4646 68.1814 60.2564 67.2048 62.066 66.2185C62.1688 65.9806 62.2792 65.7567 62.3895 65.5328C62.906 65.5424 63.4431 65.5044 63.9526 65.1175C64.0272 64.9131 64.1196 64.699 64.2147 64.4471C64.6448 64.2127 65.0927 63.9686 65.5585 63.7147C65.7707 63.7628 66.0084 63.8151 66.3815 63.9028C66.5738 63.6161 66.7764 63.3056 66.997 62.9853C67.6329 63.3845 68.1993 62.6756 68.8668 62.621C68.7741 62.9626 68.7148 63.195 68.6555 63.4274C69.0184 63.5388 69.3868 63.4472 69.4539 63.1014C69.529 62.6421 69.9869 62.5016 70.1358 62.2204C70.2414 61.8172 69.6745 61.4168 70.3067 61.1268C70.498 61.3499 70.4793 61.7421 70.896 61.8243C71.1958 61.479 71.3525 61.0843 71.2205 60.6288C71.5967 60.4237 71.973 60.2186 72.3493 60.0135C72.4341 59.7854 72.5189 59.5573 72.5934 59.3529C72.916 59.1771 73.2205 59.0111 73.4176 58.9037C73.8293 58.934 74.1207 58.9571 74.3866 58.9759C74.6174 58.6318 74.7636 58.3884 74.9277 58.1352C75.1143 58.1791 75.2753 58.2186 75.4695 58.2765C75.5696 58.0764 75.6442 57.8721 75.7469 57.6342C76.9115 56.9994 78.112 56.3451 79.3483 55.6713C79.5604 55.7194 79.7981 55.7717 80.0358 55.8241C80.1207 55.596 80.2055 55.3678 80.2903 55.1397C82.5479 53.9092 84.8055 52.6788 87.0452 51.4581C87.0915 51.2873 87.1455 51.1305 87.1995 50.9738C87.3199 50.8536 87.4148 50.7291 87.5581 50.651C88.8226 49.9436 90.1024 49.2643 91.3387 48.5904C91.5585 48.6526 91.7195 48.6921 91.9316 48.7402C92.0778 48.4968 92.2317 48.2674 92.4369 47.9191C92.7028 47.9379 93.0122 47.9512 93.4417 47.9718C93.7821 47.7862 94.2121 47.5518 94.6959 47.2882C94.8166 47.0405 94.9654 46.7593 95.1374 46.3927C95.4876 46.4383 95.8123 46.4796 96.137 46.5209C96.6358 46.4128 96.6597 45.945 96.8549 45.493C97.218 45.477 97.5888 45.475 97.9519 45.459C98.0059 45.3022 98.0599 45.1455 98.1268 44.9271C98.3313 44.9612 98.5537 44.9855 98.7914 45.0378C98.8735 44.8475 98.9584 44.6194 99.0508 44.4053C99.2809 44.4436 99.5186 44.4959 99.7384 44.5581C100.278 44.4822 100.202 43.9596 100.446 43.6814C100.676 43.7197 100.88 43.7538 101.103 43.7781C101.177 43.5737 101.224 43.4029 101.288 43.2224C101.933 42.8708 102.578 42.5192 103.187 42.1872C103.425 42.2396 103.568 42.2889 103.78 42.337C106.468 40.8722 109.173 39.3976 111.789 37.9718C112.505 37.9636 113.134 37.9664 113.781 37.9594C113.899 37.6221 114.03 37.2231 114.185 36.7388C114.382 36.7589 114.579 36.7789 114.852 36.8117C114.924 36.6452 115.024 36.4451 115.106 36.2548C115.39 36.2638 115.682 36.2869 116.075 36.327C116.216 36.0317 116.358 35.7365 116.489 35.4651C116.624 35.5004 116.785 35.5399 117.107 35.6191C118.446 34.9623 119.805 34.1305 121.215 33.4346C121.496 33.4815 121.726 33.5198 122.066 33.5892C122.23 33.336 122.412 33.0731 122.623 32.7766C122.83 32.7728 123.132 32.7721 123.459 32.7756C123.669 32.4791 123.882 32.1448 124.169 31.7336C124.443 31.7665 124.767 31.8078 125.212 31.8564C125.44 31.5502 125.725 31.1768 126.03 30.7558C126.252 30.7801 126.493 30.7947 126.912 30.839C128.309 30.0773 129.886 29.2179 131.32 28.4367C131.703 28.5006 131.951 28.5291 132.283 28.5845C132.496 28.2502 132.676 27.8976 132.919 27.6194C133.078 27.4418 133.36 27.3612 133.61 27.2245C133.822 27.2726 134.053 27.3109 134.359 27.362C137.477 25.6628 140.63 23.9441 143.784 22.2253C143.838 22.196 143.93 22.2369 144.024 22.2399C144.244 22.4295 144.471 22.6331 144.69 22.8227C144.887 22.7152 145.049 22.6273 145.192 22.5492C145.277 22.3211 145.362 22.093 145.436 21.8886C146.35 21.3906 147.246 20.9023 147.981 20.5019C148.612 20.4669 149.088 20.4441 149.563 20.4214C149.64 20.5616 149.734 20.6921 149.719 20.664C150.194 20.8962 150.57 21.0735 150.945 21.2508C151.632 20.4217 151.631 19.5673 152.026 18.8426C152.379 18.7229 152.811 18.8331 153.158 19.1714C153.851 19.2486 154.257 18.3726 155.062 18.5705C154.615 19.4142 154.169 20.2578 153.73 21.1155C153.577 21.09 153.339 21.0376 153.109 20.9993C153.039 21.3829 152.754 21.7563 152.815 21.996C153.101 22.6045 153.61 22.4726 153.934 22.6414C154.842 22.6014 154.992 21.6828 155.581 21.2709C155.969 21.5141 156.357 21.7573 156.779 22.0187C156.78 22.3633 156.803 22.7878 156.827 23.3019C156.556 23.4862 156.213 23.7096 155.852 23.9427C155.851 24.3251 155.413 24.6729 155.691 25.14C155.276 25.4024 154.578 25.4009 154.454 26.0687C155.273 25.8226 155.273 25.8226 155.691 25.14C156.28 24.8555 156.797 25.4646 157.33 25.2472C157.898 25.0104 158.283 25.2914 158.736 25.354C158.965 25.7747 159.194 26.1955 159.34 26.4619C159.336 27.0096 159.353 27.3822 159.347 27.8403C159.137 28.1368 158.86 28.5242 158.488 29.036C158.184 29.202 157.736 29.4462 157.306 29.6805C157.221 29.9087 157.136 30.1368 157.044 30.3509C156.857 30.3071 156.714 30.2577 156.469 30.1914C156.021 30.4355 155.519 30.7089 155.053 30.9628C154.909 31.2959 154.801 31.6094 154.686 31.9089C154.88 31.9668 155.041 32.0064 155.312 32.077C155.283 32.238 155.245 32.4228 155.206 32.7351C155.382 33.0577 155.603 33.4644 155.71 33.6607C156.023 34.7456 155.066 35.1217 154.847 35.914C154.291 36.2167 153.628 36.578 153.055 36.8905C152.968 37.1565 152.914 37.3133 152.816 37.603C151.938 38.0815 150.988 38.5991 150.092 39.0874C149.969 39.5003 149.879 39.8041 149.781 40.0938C149.891 40.1249 149.998 40.1937 150.052 40.1644C150.956 39.6902 151.844 39.1879 152.793 38.6703C152.904 38.4464 153.027 38.161 153.117 37.9847C153.683 37.6581 154.037 38.0105 154.492 38.0353C154.246 38.3513 154.036 38.6478 153.8 38.9401C154.046 39.0065 154.273 39.0826 154.559 39.1813C154.357 39.3643 154.175 39.4998 154.024 39.6914C153.929 39.8158 153.883 39.9866 153.795 40.1251C153.67 40.3209 153.503 40.4844 153.042 41.0451C152.998 41.3056 152.835 42.0308 152.74 42.5376C152.212 42.9343 151.709 42.9906 151.572 43.4651C152.244 43.7174 152.631 43.1061 153.146 42.8985C153.686 42.6952 154.085 42.2773 154.78 42.4441C155.238 42.5586 155.774 41.7935 156.41 42.1928C157.306 41.7045 158.201 41.2162 159.008 40.7767C159.731 40.7825 160.371 40.7615 161.069 40.7631C161.302 40.6361 161.588 40.4799 161.893 40.3139C161.939 40.1431 161.993 39.9863 162.065 39.8198C162.518 39.5 163.24 40.2706 163.426 39.46C164.323 39.6987 165.11 39.9064 166.168 40.1846C166.191 40.2267 166.375 40.5633 166.543 40.8718C166.176 41.4355 165.532 41.5321 165.076 41.8897C164.968 42.2033 164.86 42.5168 164.752 42.8303C164.81 43.3627 165.275 43.3637 165.656 43.4654C165.809 43.7459 165.961 44.0264 166.114 44.3069C166.055 44.5393 165.988 44.7577 165.916 45.0517C166.256 44.9936 166.571 44.9312 166.929 44.8634C167.039 45.0219 167.163 45.2085 167.263 45.3908C166.952 46.0148 166.285 46.0694 165.821 46.413C165.531 46.9894 166.011 47.2734 166.261 47.6466C166.827 47.575 167.392 47.3759 167.954 47.7246C168.168 48.1172 168.397 48.538 168.634 48.9727C168.61 49.3131 168.254 49.7255 168.678 50.0766C168.57 50.3901 168.462 50.7037 168.333 51.0648C168.065 51.2112 167.778 51.3675 167.491 51.5237C167.389 51.7616 167.304 51.9898 167.209 52.2417C166.492 52.6323 165.739 53.0425 164.987 53.4526C164.825 53.9229 164.655 54.3792 164.519 54.7263C164.26 54.9764 164.094 55.14 163.909 55.3132C164.238 55.9163 164.544 56.4772 164.888 57.1083C164.775 57.37 164.634 57.6653 164.462 58.0319C164.341 58.0246 164.129 57.9765 163.881 57.948C163.883 58.42 163.867 58.9018 163.85 59.3837C164.487 59.4005 164.925 58.9252 165.442 58.6798C165.905 58.4637 166.338 58.1915 166.786 57.9474C166.947 57.987 167.116 58.0406 167.412 58.1154C167.832 57.9049 168.349 57.6595 168.858 57.4001C169.019 57.4396 169.18 57.4792 169.426 57.5456C169.561 57.326 169.708 57.0826 169.913 56.7342C170.171 56.739 170.481 56.7523 170.928 56.7631C171.394 56.5092 171.985 56.1869 172.72 55.7865C172.787 55.4407 172.89 54.9479 172.973 54.5026C173.701 54.5603 174.166 54.8162 174.564 55.2905C174.905 55.105 175.263 54.9097 175.621 54.7144C175.675 54.5576 175.729 54.4009 175.796 54.1825C176.19 53.9677 176.638 53.7235 177.122 53.4598C177.915 53.5919 178.849 53.1737 179.622 53.6979C180.429 53.2584 181.181 52.8483 181.934 52.4381C182.294 52.5874 182.744 52.5604 183.142 52.9072C183.098 53.1677 183.059 53.48 183 53.8398C183.114 54.0502 183.267 54.3307 183.428 54.6252C183.648 54.6873 183.875 54.7634 184.12 54.8298C184.529 55.1529 184.147 55.5611 184.182 55.9239C184.343 55.9635 184.504 56.0031 184.724 56.0652C184.826 56.2097 185.038 56.3853 185.058 56.5926C185.161 57.3366 185.323 58.1032 184.938 58.9316C184.667 59.1159 184.332 59.3533 183.996 59.5906C184.004 59.7321 183.983 59.9072 184.008 60.0389C184.214 60.8 185.034 60.8984 185.537 61.352C185.708 61.4952 185.936 61.5714 186.135 61.6811C186.136 62.4081 185.769 62.9717 185.597 63.5933C185.443 63.6952 185.3 63.7733 185.11 63.8948C185.148 64.0924 185.176 64.3137 185.232 64.629C185.021 64.9255 184.762 65.3032 184.303 65.9535C184.16 66.0316 183.615 66.1831 183.297 66.5382C182.923 66.9604 182.659 67.4136 182.137 67.7346C181.786 67.944 181.833 68.6276 181.186 68.7621C181.471 69.3706 181.713 69.8572 181.932 70.3017C181.791 70.8519 181.21 70.768 180.885 71.2365C180.918 71.3823 180.958 71.6695 181.019 72.0366C180.855 72.1623 180.681 72.3118 180.46 72.5047C180.268 72.9188 180.707 73.1705 180.796 73.5041C180.827 74.9245 179.324 75.8345 179.377 77.297C180.198 77.1405 180.749 76.531 181.496 76.324C181.606 76.355 181.767 76.3946 182.064 76.4695C182.637 76.157 183.3 75.7957 183.873 75.4832C184.144 75.5538 184.305 75.5934 184.474 75.647C184.528 75.6177 184.615 75.6067 184.643 75.5731C184.704 75.4304 184.751 75.2596 184.825 75.0552C185.03 75.0893 185.26 75.1276 185.515 75.1702C185.766 75.0335 186.071 74.8675 186.358 74.7112C186.613 74.7538 186.851 74.8062 187.089 74.8585C187.181 74.6444 187.248 74.4261 187.34 74.2119C188.123 74.3678 187.837 75.5059 188.701 75.5989C188.901 75.1987 188.561 75.0018 188.47 74.7061C188.378 74.4103 188.038 74.2135 188.167 73.8524C188.724 72.9123 189.9 74.3451 190.263 72.9647C190.582 73.3366 190.735 73.4897 190.893 73.6945C191.522 73.8248 191.924 73.2416 192.49 73.0425C192.642 72.596 192.811 72.1397 192.981 71.6835C193.492 71.7686 193.448 72.284 193.741 72.5242C194.009 72.7601 194.387 72.8996 194.712 73.0684C194.619 73.41 194.534 73.6381 194.483 73.8845C194.674 74.2351 194.865 74.5858 195.056 74.9364C194.818 75.1389 194.429 75.1507 194.29 75.5356C194.154 75.8827 193.849 76.1761 193.562 76.5873C194.442 76.3259 195.331 76.8056 196.061 75.9709C196.291 76.2642 196.426 76.427 196.554 76.5757C196.455 77.1204 195.929 77.1346 195.609 77.4001C195.191 77.9553 195.32 78.5761 195.329 79.1896C194.923 79.0837 194.524 78.9917 194.11 78.8717C193.749 79.1049 193.797 79.5336 193.645 79.8526C193.831 80.4063 194.404 80.3488 194.866 80.5151C194.951 80.2869 195.043 80.0728 195.11 79.8545C195.782 80.1067 196.594 79.5916 197.227 80.0286C197.029 80.9009 197.507 81.9497 196.407 82.5313C196.465 82.8088 196.518 83.0345 196.571 83.2601C196.366 83.6084 195.85 83.5989 195.537 83.8783C195.483 84.0351 195.429 84.1919 195.383 84.3627C195.014 84.8367 194.443 84.9839 193.924 85.2671C193.763 85.2275 193.602 85.188 193.356 85.1216C193.22 85.3412 193.074 85.5846 192.869 85.9329C192.611 85.9282 192.301 85.9149 191.905 85.9126C191.475 86.147 190.973 86.4204 190.472 86.6938C190.573 87.2207 190.651 87.7056 191.211 87.8371C191.694 87.9558 191.867 88.4436 192.393 88.5569C192.682 88.6177 192.809 89.1489 192.99 89.3958C192.741 89.8771 192.511 89.5839 192.333 89.5541C192.085 89.5255 191.85 89.4353 191.392 89.3209C191.361 89.7746 191.319 90.2522 191.287 90.706C190.819 90.6153 190.6 90.5532 190.37 90.5148C190.065 90.6808 189.778 90.8371 189.42 91.0324C189.46 91.3196 189.501 91.6069 189.549 91.9082C189.518 91.9795 189.502 92.0789 189.431 92.118C188.542 92.6203 187.639 93.0946 186.761 93.5731C186.549 93.525 186.388 93.4854 186.227 93.4458C185.743 93.582 185.247 93.6524 185.07 94.2221C185.918 94.5419 186.782 94.3799 187.626 94.2655C187.742 93.966 187.827 93.7379 187.912 93.5098C188.216 93.3438 188.521 93.1778 188.897 92.9727C189.175 93.3123 189.453 93.6519 189.739 94.0055C190.054 93.9431 190.376 93.8948 190.716 93.8367C190.497 94.6291 189.63 94.5739 189.225 95.0675C189.094 95.4664 188.963 95.8653 188.822 96.2881C187.352 97.0888 185.847 97.9091 184.289 98.7587C184.11 98.7289 183.872 98.6766 183.609 98.62C183.179 98.8543 182.731 99.0985 182.301 99.3329C182.063 99.2805 181.818 99.2141 181.57 99.1856C181.516 99.3423 181.462 99.4991 181.408 99.6559C181.377 99.7272 181.361 99.8266 181.29 99.8657C179.641 100.764 177.993 101.663 176.237 102.62C176.387 103.065 176.54 103.473 176.687 103.957C176.221 104.211 175.791 104.445 175.343 104.689C175.223 104.937 175.13 105.151 174.94 105.527C173.829 106.133 172.557 106.826 171.267 107.529C171.445 108.069 171.982 108.031 172.251 108.012C172.632 107.986 173.034 107.658 173.341 108.436C173.172 108.765 172.895 109.28 172.42 110.157C172.044 110.362 171.238 110.801 170.503 111.202C170.416 111.468 170.362 111.625 170.315 111.795C169.867 112.167 169.416 112.576 168.734 112.221C168.642 112.435 168.567 112.639 168.465 112.877C168.052 113.101 167.604 113.346 167.121 113.609C166.909 113.561 166.671 113.509 166.433 113.456C166.146 113.613 165.842 113.779 165.555 113.935C165.47 114.163 165.393 114.405 165.311 114.596C164.379 115.103 163.483 115.592 162.588 116.08C162.401 116.036 162.24 115.997 162.079 115.957C161.493 116.076 160.946 116.265 160.816 117.009C160.404 117.234 159.956 117.478 159.419 117.771C159.291 117.749 159.061 117.711 158.787 117.678C158.265 117.872 157.692 118.057 157.624 118.785C156.89 119.185 156.137 119.596 155.385 120.006C155.372 120.195 155.287 120.423 155.202 120.651C155.041 120.611 154.88 120.572 154.711 120.518C154.105 120.558 153.662 120.981 153.178 121.245C153.086 121.459 152.993 121.673 152.919 121.877C152.487 121.767 152.081 121.661 151.641 121.537C151.229 121.761 150.781 122.006 150.261 122.289C150.056 122.51 150.206 123.083 149.393 123.126C149.367 123.122 149.13 123.069 148.892 123.017C148.605 123.173 148.301 123.339 147.996 123.505C147.865 123.904 147.726 124.289 147.572 124.773C147.196 124.978 146.748 125.223 146.174 125.535C146.098 125.522 145.85 125.494 145.525 125.452C144.952 125.765 144.307 126.116 143.679 126.458C143.613 126.677 143.559 126.833 143.505 126.99C141.802 127.918 140.082 128.855 138.434 129.754C138.189 129.687 138.028 129.648 137.867 129.608C137.774 129.822 137.689 130.051 137.604 130.279C135.651 131.343 133.698 132.408 131.728 133.482C131.691 133.629 131.637 133.786 131.601 133.933C131.481 134.053 131.383 134.215 131.258 134.283C129.994 134.991 128.714 135.67 127.388 136.393C127.161 136.189 126.941 136 126.696 135.806C126.222 136.173 126.085 136.903 125.413 136.905C125.323 137.209 125.269 137.366 125.194 137.57C124.99 137.536 124.76 137.498 124.504 137.455C124.253 137.592 123.949 137.758 123.626 137.934C123.511 138.106 123.426 138.334 123.334 138.548C122.962 138.932 122.561 138.751 122.19 138.625C121.868 138.801 121.563 138.967 121.259 139.133C120.858 138.951 120.472 138.925 120.087 139.244C119.731 139.529 119.361 139.403 119.026 139.258C118.929 139.548 118.875 139.705 118.8 139.909C118.388 140.134 117.94 140.378 117.492 140.622C117.389 140.86 117.304 141.088 117.191 141.35C116.779 141.574 116.331 141.819 115.848 142.082C115.643 142.048 115.405 141.996 115.16 141.929C114.426 142.33 113.673 142.74 112.92 143.15C112.836 143.378 112.743 143.592 112.658 143.821C112.49 143.767 112.329 143.727 112.091 143.675C110.747 144.407 109.332 145.179 107.916 145.95C107.873 146.083 107.826 146.254 107.741 146.482C107.347 146.697 106.899 146.941 106.362 147.234C106.242 147.227 106.011 147.189 105.756 147.146C105.61 147.389 105.463 147.633 105.258 147.981C104.959 147.944 104.642 147.917 104.274 147.881C101.318 149.492 98.3075 151.133 95.3153 152.764C95.0776 152.711 94.8399 152.659 94.6098 152.621C94.525 152.849 94.4402 153.077 94.3143 153.4C94.0202 153.415 93.7006 153.426 93.1559 153.45C92.3496 153.889 91.2925 154.465 90.3249 154.993C90.0846 154.978 89.921 154.976 89.7573 154.974C89.5937 154.973 89.448 154.961 89.1642 154.952C89.0359 155.186 88.8794 155.453 88.6639 155.825C86.675 156.909 84.5787 158.052 82.4286 159.224C82.2344 159.166 81.9967 159.113 81.7334 159.057C80.9988 159.457 80.2463 159.867 79.5117 160.268C79.2561 160.225 79.0107 160.159 78.7986 160.111C78.6373 160.198 78.494 160.277 78.3507 160.355C78.2967 160.511 78.2503 160.682 78.1963 160.839C78.1655 160.91 78.132 161.02 78.0783 161.049C76.5732 161.869 75.0681 162.689 73.6168 163.48C73.3971 163.418 73.2361 163.379 72.9652 163.308C72.3918 163.621 71.7288 163.982 71.1555 164.294C70.5626 164.145 70.5891 163.639 70.3237 163.365C69.6235 163.147 69.4768 163.645 69.2864 164.276C68.8521 164.076 68.4255 163.891 68.0908 163.746C67.0157 164.332 66.1199 164.82 65.224 165.308C64.9863 165.256 64.7563 165.217 64.5518 165.183C64.4311 165.431 64.3539 165.673 64.2206 165.855C64.136 165.956 63.9366 165.973 63.7063 166.063C63.5787 165.914 63.418 165.747 63.2266 165.524C62.9813 165.457 62.6593 165.378 62.2861 165.29C62.0174 165.437 61.7307 165.593 61.4082 165.769C61.1117 165.694 60.7897 165.615 60.391 165.523C60.2508 165.308 60.1055 165.042 59.9042 164.715C59.984 164.435 60.0561 164.141 60.1488 163.8C60.2793 163.783 60.3944 163.738 60.5146 163.746C61.0593 163.722 61.6192 163.726 62.1562 163.688C62.2867 163.671 62.4021 163.499 62.5301 163.393C62.5354 163.317 62.5612 163.194 62.5612 163.194C62.0118 163.039 61.4444 162.893 61.1735 162.823C60.3321 162.899 59.7772 162.947 59.1787 163C58.8646 162.808 58.4764 162.565 57.9733 162.238C57.9351 162.168 57.8205 161.958 57.7058 161.748C57.9208 161.63 58.1538 161.504 58.3867 161.377C58.7777 161.454 59.1583 161.684 59.5401 161.275C59.6481 160.962 59.7561 160.648 59.8461 160.345C59.7876 160.195 59.7188 160.068 59.6603 159.918C59.1949 159.917 58.7272 159.827 58.2821 159.906C57.8192 159.994 57.2948 160.098 57.1505 160.686C57.3416 161.037 57.5326 161.387 57.7237 161.738C57.5677 161.75 57.3195 161.849 57.2634 161.789C56.998 161.515 56.7966 161.188 56.5773 160.871C56.0506 160.885 56.3334 161.404 55.773 161.655C55.7295 161.661 55.4098 161.671 54.8652 161.695C54.5068 161.89 53.9155 162.213 53.2347 162.584C52.9638 162.513 52.6597 162.424 52.3453 162.359C52.1332 162.311 51.8928 162.297 51.6422 162.306C51.3405 162.306 51.0183 162.355 50.6551 162.371C50.6114 162.504 50.5266 162.732 50.4418 162.96C49.9938 163.204 49.5459 163.448 49.098 163.692C48.937 163.653 48.7939 163.604 48.4718 163.524C47.8885 163.733 47.2611 164.202 46.6034 164.488C46.3478 164.446 46.0948 164.365 45.8621 164.365C45.7241 164.367 45.5602 164.493 45.3554 164.586C45.1436 164.411 44.9343 164.197 44.6969 164.018C44.4594 163.838 44.1835 163.715 43.9587 163.601C44.1676 162.705 45.1236 162.839 45.4903 162.275C45.616 162.08 45.5419 162.029 45.3042 161.977C44.5835 161.806 43.8833 161.587 43.224 161.4C42.8298 161.615 42.5431 161.772 42.2027 161.957C41.9832 161.768 41.7637 161.578 41.5365 161.374C41.2219 161.437 40.9251 161.489 40.567 161.557C40.6469 161.277 40.7061 161.045 40.773 160.826C40.5456 160.75 40.2976 160.722 40.0908 160.598C39.9094 160.478 39.7948 160.268 39.6519 160.091C39.2936 160.287 39.0069 160.443 38.6844 160.619C38.37 160.554 38.048 160.474 37.726 160.395C37.6553 159.924 37.7609 159.521 38.1962 159.211C38.7155 159.055 39.142 159.369 39.7146 159.439C40.1625 159.195 40.6642 158.921 41.1659 158.648C41.1432 158.478 41.1282 158.323 41.1208 158.181C41.2691 158.155 41.4175 158.129 41.5735 158.116C42.2268 158.761 42.3091 159.807 43.1875 160.438C43.2752 160.045 43.3397 159.737 43.448 159.296C43.3027 159.029 43.0811 158.623 42.8288 158.16C42.6628 158.068 42.4048 157.936 42.1724 157.808C42.2704 157.391 42.6846 157.383 42.8743 157.134C43.0912 157.362 43.2388 157.718 43.4725 157.209C43.2935 157.179 43.1146 157.149 42.8743 157.134C42.7699 156.9 42.617 156.62 42.4642 156.339C42.5666 156.229 42.6615 156.104 42.8306 155.903C42.586 155.454 42.3338 154.992 41.9898 154.36C42.4117 154.367 42.67 154.372 42.9206 154.363C42.9086 153.914 42.9223 153.47 42.908 152.932C42.5011 153.081 42.0508 153.236 41.5391 153.406C41.4218 153.233 41.279 153.056 41.1693 152.898C41.2855 152.343 41.8504 152.399 42.2016 151.935C42.2145 151.873 42.3173 151.635 42.4021 151.407C42.766 151.009 43.1592 151.304 43.5376 151.316C44.1468 150.984 44.7559 150.652 45.3472 150.33C45.5706 149.844 45.1313 149.592 45.0272 149.231C45.2917 148.65 45.5485 148.055 45.8541 147.379C45.8362 147.389 45.9795 147.311 46.1355 147.299C46.2991 147.3 46.4575 147.378 46.6441 147.422C46.7366 147.208 46.8111 147.003 46.8959 146.775C47.126 146.813 47.3637 146.866 47.5834 146.928C48.0493 146.674 48.4972 146.43 48.9093 146.205C49.0376 145.972 49.1225 145.743 49.256 145.434C49.5501 145.419 49.8697 145.409 50.2508 145.383C50.4968 145.067 50.784 144.656 51.0967 144.249C50.3913 144.106 49.9811 144.675 49.4412 144.879C48.9787 144.712 48.5028 144.862 47.9811 144.929C47.8894 144.76 47.7823 144.564 47.6906 144.396C47.9857 143.871 48.5177 143.781 48.9324 143.519C49.2934 143.286 49.685 143.109 50.0433 142.913C50.1745 142.514 50.3057 142.115 50.4677 141.645C51.0768 141.313 51.7219 140.961 52.3669 140.61C52.5535 140.654 52.6966 140.703 52.8576 140.743C53.1448 140.331 53.4396 139.934 53.7191 139.509C53.2 139.537 52.7423 139.55 52.2487 139.583C52.1947 139.74 52.1099 139.968 52.0277 140.158C51.2393 140.588 50.5047 140.988 49.7701 141.389C49.5835 141.345 49.4225 141.305 49.1516 141.235C48.1303 141.791 47.0195 142.397 45.8727 143.022C45.6635 142.808 45.5283 142.645 45.319 142.432C44.6955 142.226 44.5591 142.701 44.3842 143.233C44.1721 143.185 43.9497 143.16 43.694 143.118C43.4253 143.264 43.1386 143.42 42.834 143.586C42.5963 143.534 42.3407 143.491 42.0954 143.425C41.8087 143.581 41.5041 143.747 41.1995 143.913C41.1147 144.142 41.0299 144.37 40.9116 144.707C39.9245 144.772 38.9118 144.833 38.1063 144.89C37.5955 144.55 37.2074 144.307 36.8294 144.04C36.7695 143.29 37.3231 142.643 37.363 141.821C36.7288 141.893 36.074 142.014 35.3988 142.054C34.6982 142.091 34.3389 141.432 33.58 141.19C33.1596 140.419 32.6704 139.521 32.227 138.708C31.9561 138.637 31.7951 138.598 31.5574 138.545C31.5885 138.347 31.6375 138.138 31.6891 137.892C31.4777 137.461 31.2537 136.965 30.999 136.412C31.5392 136.082 32.0256 135.78 32.5299 135.469C32.8864 134.929 31.8668 134.593 32.3205 134.019C32.9746 134.281 32.899 134.995 33.4327 135.377C33.4583 135.381 33.6525 135.439 33.7855 135.385C34.1771 135.208 34.533 134.923 34.9296 134.798C35.211 134.717 35.5636 134.852 35.8603 134.8C36.0956 134.762 36.3159 134.569 36.5847 134.423C36.69 134.147 36.798 133.834 36.9137 133.534C36.7558 133.202 36.3669 133.341 36.0451 133.135C35.564 133.36 35.0546 133.62 34.5377 133.865C34.2156 133.786 33.8936 133.707 33.5384 133.609C34.2016 133.121 34.3206 132.401 34.5571 131.726C35.007 131.827 35.4823 131.931 35.9909 132.054C35.9456 131.715 35.9052 131.428 35.8625 131.051C36.1718 131.065 36.4377 131.083 36.7394 131.083C37.0701 130.666 37.4263 130.253 37.8313 129.76C37.7066 129.446 37.541 129.1 37.3934 128.743C37.5146 128.241 38.0795 128.297 38.1744 128.172C38.4618 127.634 38.6594 127.271 38.739 127.119C38.4975 126.377 37.9705 126.519 37.5899 126.29C37.2361 126.792 36.8746 127.28 36.5105 127.806C35.9838 127.82 35.3624 127.831 34.6285 127.849C34.1627 128.103 33.5535 128.435 32.9622 128.757C32.7245 128.705 32.4868 128.653 32.2491 128.6C32.0162 128.727 31.7833 128.854 31.5324 128.991C30.8753 129.022 30.2001 129.062 29.5174 129.089C29.4634 129.246 29.4094 129.402 29.3528 129.597C28.9407 129.821 28.4927 130.066 27.991 130.339C27.8377 130.314 27.6 130.261 27.3188 130.214C27.068 130.351 26.7634 130.517 26.4229 130.703C26.1267 130.5 25.8229 130.284 25.5087 130.091C25.3475 130.179 25.2041 130.257 25.025 130.355C24.7209 130.266 24.4091 130.163 24.0795 130.07C23.9887 129.392 24.8934 129.644 25.0435 128.726C25.0435 128.726 25.0571 128.282 25.0581 127.772C24.5447 127.47 23.8409 127.799 23.2557 127.663C22.7547 127.554 22.2977 127.185 21.792 126.896C21.7669 126.637 21.8338 126.419 21.8828 126.21C21.6812 126.011 21.213 126.175 21.1191 125.79C21.4192 125.317 21.4192 125.317 20.8507 124.444C20.5619 124.384 20.2654 124.309 19.8667 124.217C19.9403 124.522 19.9859 124.734 20.0315 124.945C20.3024 125.016 20.5298 125.092 20.7752 125.159C20.8898 125.369 21.0045 125.579 21.1191 125.79C20.8862 125.917 20.6712 126.034 20.4562 126.151C20.2185 126.099 19.9808 126.046 19.7355 125.98C19.4309 126.146 19.1442 126.302 18.7321 126.527C18.5663 126.308 18.4005 126.089 18.1965 125.8C18.6395 125.504 18.9825 125.281 19.3793 125.028C19.3414 124.83 19.2957 124.619 19.1665 123.998C19.1665 123.998 19.5681 123.925 19.8295 123.637C19.7812 123.463 19.6666 123.253 19.6465 123.045C19.6365 122.942 19.7645 122.835 19.8415 122.721C20.3142 122.863 20.28 123.355 20.5531 123.643C21.2124 123.829 21.5997 123.218 22.3417 122.959C22.6432 123.085 23.0877 123.262 23.6064 123.488C23.7001 122.637 23.2663 122.182 22.9373 121.706C22.7508 121.663 22.6077 121.613 22.3955 121.565C22.4445 121.356 22.4935 121.148 22.5425 120.939C22.2695 120.652 21.9849 121.025 21.7088 121.03C21.5016 121.034 21.2819 120.972 21.0774 120.937C21.0105 121.156 20.9565 121.313 20.9025 121.469C20.7747 121.448 20.6007 121.47 20.5191 121.405C20.4144 121.299 20.3738 121.139 20.2924 120.947C20.4974 120.726 20.7023 120.505 20.9432 120.265C20.8084 119.847 20.6737 119.429 20.4729 118.848C20.943 119.028 21.2368 119.141 21.5971 119.29C21.5636 119.399 21.5223 119.622 21.4733 119.83C22.1421 120.375 22.9463 119.719 23.8249 120.222C23.629 119.692 23.5476 119.5 23.4738 119.322C23.0342 119.198 22.6355 119.106 22.1704 118.977C22.0099 118.683 21.8341 118.36 21.6659 118.052C21.7097 117.919 21.7175 117.805 21.7713 117.776C22.4445 117.391 23.1151 117.044 23.796 116.673C23.8034 116.814 23.8848 117.006 23.8258 117.111C23.654 117.35 23.4235 117.567 23.2288 117.764C23.3281 117.946 23.4046 118.086 23.4963 118.255C23.8697 118.215 24.2252 118.185 25.041 118.104C24.6563 118.678 24.3794 119.065 24.1205 119.443C24.5856 119.571 24.8897 119.66 25.3369 119.798C25.5249 119.077 25.7027 118.38 25.8238 117.878C26.1313 117.546 26.2902 117.369 26.4388 117.215C26.1201 116.716 26.0215 116.151 25.4776 115.792C25.2879 116.041 25.1417 116.285 25.0031 116.542C24.6909 116.694 24.4042 116.85 24.2183 116.424C24.5414 115.993 24.8823 115.553 25.2053 115.122C24.9473 114.99 24.6816 114.844 24.4339 114.688C24.3675 114.651 24.3575 114.548 24.3193 114.477C24.3334 113.778 25.2792 113.936 25.462 113.291C25.6087 112.792 26.0263 112.365 26.3443 111.882C26.2322 111.634 26.1611 111.418 26.0643 111.198C26.0058 111.048 25.9549 110.912 25.9041 110.776C26.181 110.389 26.4399 110.011 26.8117 109.499C26.955 109.421 27.2596 109.255 27.5463 109.099C27.6311 108.871 27.7159 108.642 27.811 108.39C28.5636 107.98 29.3161 107.57 29.9074 107.248C30.3099 106.665 30.6253 106.22 31.1048 105.522C31.9648 105.053 33.0578 104.458 34.097 103.891C34.1845 103.625 34.2385 103.468 34.3054 103.25C35.0041 102.869 35.7388 102.469 36.4913 102.059C36.594 101.821 36.7044 101.597 36.8277 101.311C37.2501 101.063 37.7544 100.752 38.1768 100.503C38.2539 100.261 38.3079 100.105 38.3722 99.9239C38.9456 99.6114 39.5368 99.2892 40.146 98.9572C40.2488 98.7193 40.3336 98.4911 40.4287 98.2392C40.6975 98.0927 41.002 97.9267 41.2887 97.7705C41.4507 97.3002 41.6204 96.8439 41.7797 96.4114C42.1897 95.9697 42.5853 96.3544 43.0994 96.2743C43.4993 95.7289 43.9377 95.1261 44.3582 94.5331C44.5524 94.591 44.7134 94.6306 44.9 94.6744C44.9925 94.4603 45.067 94.2559 45.1697 94.018C45.9044 93.6177 46.6569 93.2075 47.3915 92.8071C47.4763 92.579 47.5611 92.3508 47.646 92.1227C48.4702 91.6735 49.2944 91.2243 50.1186 90.7751C50.2335 90.858 50.366 91.0586 50.4454 91.0335C50.7447 90.9431 50.6991 90.7315 50.5665 90.5309C50.7486 90.268 50.905 90.0008 51.1179 89.6665C51.3329 89.5493 51.6375 89.3833 51.9242 89.227C52.1552 88.7555 51.7159 88.5038 51.5965 88.1141C51.08 88.1046 50.5456 88.1048 49.9345 88.0922C49.5583 88.2973 49.1103 88.5415 48.6803 88.7758C48.4938 88.732 48.3327 88.6924 48.113 88.6303C47.9847 88.8639 47.8308 89.0933 47.6435 89.4319C47.3162 89.4284 46.9199 89.4261 46.4801 89.4293C46.2878 89.716 46.0673 90.0363 45.8467 90.3566C45.2223 90.6606 44.7373 90.1973 44.18 90.1554C43.8754 90.3214 43.5887 90.4777 43.1945 90.6925C42.4234 90.1305 42.3334 89.07 41.6725 88.4116C41.2943 88.2721 41.0712 88.6302 40.7718 88.7205C40.5728 88.4834 40.6094 88.0814 40.1314 88.0146C40.0492 88.2049 39.967 88.3952 39.8772 88.5715C39.4092 88.6083 38.9591 88.6353 38.4988 88.6861C38.2793 88.4965 38.0597 88.3069 37.8658 88.1216C37.6507 88.2388 37.5074 88.3169 37.3461 88.4048C37.032 88.2122 36.7282 87.9958 36.4064 87.7892C36.34 87.7526 36.2454 87.7496 36.1355 87.7186C36.2024 87.5002 36.2437 87.2776 36.3209 87.0354C36.2598 86.9232 36.1833 86.783 36.0992 86.6287C35.8795 86.5666 35.652 86.4905 35.4323 86.4283C35.4992 86.21 35.5584 85.9776 35.6074 85.769C35.1755 85.6588 34.7947 85.5571 34.4983 85.4822C34.6579 84.9222 34.8354 84.3525 34.995 83.7926C35.0973 83.8096 35.2583 83.8492 35.4014 83.8985C35.4475 83.8552 35.5447 83.8204 35.5473 83.7826C35.5228 83.2685 35.4905 82.7403 35.461 82.1744C35.2591 82.1025 35.0419 82.0025 34.6561 81.849C34.567 81.6429 34.3222 81.3216 34.2871 80.9587C34.2647 80.6617 34.5107 80.3457 34.2633 80.0622C33.9852 79.7226 34.0371 79.3487 34.1683 78.9498C34.2454 78.7076 33.824 78.4462 34.2006 78.1136C34.3613 78.2807 34.5221 78.4477 34.6905 78.6288C35.4067 78.4931 36.2344 78.8605 36.9927 78.1198C37.3453 78.2551 37.7235 78.3946 38.1348 78.5524C38.1652 78.7359 38.1929 78.9573 38.2358 79.2067C37.7093 79.0935 37.2595 78.9931 36.802 78.8786C36.5863 79.3782 37.0256 79.6299 37.1603 80.0476C36.5296 80.9371 37.1769 82.0395 36.518 82.9625C36.8856 83.2533 37.2303 83.502 37.5648 83.7745C38.0762 83.7322 38.5189 83.5636 38.7884 83.0348C38.561 82.9586 38.3591 82.8867 38.1394 82.8246C38.1659 82.319 38.708 82.3328 38.977 82.0589C39.1717 81.8618 39.277 81.5861 39.4232 81.3427C39.643 81.4048 39.804 81.4444 39.9395 81.4797C40.3158 81.2746 40.6562 81.0891 40.9608 80.923C41.2081 79.9697 39.7933 80.3588 39.9408 79.478C40.0259 79.1224 40.4657 79.1192 40.6554 78.8703C40.8723 79.0977 41.0122 79.4398 41.2535 78.9444C41.0746 78.9146 40.8957 78.8848 40.6554 78.8703ZM33.7015 139.196C33.3732 139.702 33.3732 139.702 33.876 140.156C34.2757 139.738 33.7647 139.525 33.6066 139.32C33.9114 139.027 34.2748 138.883 33.7638 138.671C33.7175 138.842 33.6711 139.012 33.7015 139.196ZM191.294 76.4773C191.011 76.2133 190.863 75.8572 190.63 76.3665C190.809 76.3964 190.987 76.4262 191.179 76.3944C191.685 76.6826 191.685 76.6826 192.177 76.1781C191.763 75.8031 191.504 76.3082 191.294 76.4773ZM167.834 109.928C167.719 109.845 167.586 109.645 167.489 109.68C167.189 109.77 167.235 109.982 167.368 110.182C167.127 110.423 166.554 110.353 166.645 110.903C167.336 110.763 167.336 110.763 167.368 110.182C167.529 110.094 167.672 110.016 167.834 109.928C168.339 110.217 168.339 110.217 168.831 109.712C168.425 109.351 168.166 109.856 167.834 109.928ZM45.0237 87.5673C44.5457 87.5004 43.0906 87.6023 42.8015 87.6689C42.6935 87.9824 42.5855 88.2959 42.4543 88.6948C42.7869 88.6227 43.0759 88.5561 43.3727 88.5036C43.8098 88.5382 44.208 88.885 44.6865 88.697C44.8048 88.3597 44.8949 88.0559 45.0237 87.5673ZM33.4708 136.811C34.0843 136.914 34.6978 137.016 35.301 137.142C35.4706 136.686 35.0774 136.391 34.8478 136.097C34.485 135.986 34.1732 135.883 33.9126 135.788C33.7334 135.886 33.5901 135.964 33.393 136.072C33.413 136.279 33.4331 136.486 33.4708 136.811ZM38.1671 85.6472C37.3898 85.6707 37.1631 85.2121 36.7902 84.997C36.4505 84.8001 36.1108 84.6033 35.6971 84.3558C35.6576 84.923 35.9921 85.1955 36.0862 85.4535C36.5919 85.7417 37.0235 85.9794 37.4296 86.2128C37.6038 86.0633 37.7216 85.981 38.1671 85.6472ZM150.844 43.28C150.325 43.3083 149.831 43.3408 149.32 43.3831C149.237 43.7009 149.139 43.9906 149.067 44.2846C149.586 44.2564 150.054 44.2196 150.556 44.2011C150.633 43.9589 150.733 43.6314 150.844 43.28ZM153.555 118.311C153.825 118.637 153.968 118.813 154.144 119.008C154.318 118.732 154.462 118.526 154.624 118.311C155.109 118.519 155.564 118.544 155.672 118.103C155.333 117.906 154.993 117.709 154.76 117.581C154.31 117.863 154.049 118.024 153.555 118.311ZM55.8539 70.8958C54.6539 71.2952 54.6615 71.3092 54.4995 71.7795C55.0263 71.7653 55.4205 71.5504 55.8539 70.8958ZM46.8131 77.2058C46.9889 77.5284 47.0092 77.6083 47.0654 77.6686C47.1623 77.7613 47.2952 77.8344 47.3998 77.9411C47.4767 77.8264 47.5689 77.7398 47.6203 77.6208C47.7128 77.4067 47.7541 77.1841 47.8827 76.823C47.504 76.9384 47.2379 77.0471 46.8131 77.2058ZM49.77 146.718C50.1309 147.85 50.1309 147.85 50.614 147.968C50.6226 147.472 50.4239 147.108 49.77 146.718ZM46.3925 151.906C46.0889 151.562 45.6976 151.612 45.3526 151.491C45.183 151.947 45.3359 152.228 45.8547 152.327C46.0365 152.191 46.2184 152.056 46.3925 151.906ZM46.6877 73.3087C47.0307 74.4496 47.0486 74.4399 47.5316 74.5586C47.5479 74.0768 47.3415 73.6981 46.6877 73.3087ZM35.9634 81.5185C36.1027 80.8787 35.8734 80.458 35.2678 80.2423C35.1208 80.8681 35.3578 81.3029 35.9634 81.5185ZM169.976 108.487C169.504 108.345 169.199 108.511 169.063 108.986C169.535 109.128 169.84 108.962 169.976 108.487ZM27.8493 111.062C27.9389 111.013 28.0388 110.94 28.1284 110.892C28.0648 110.69 27.9937 110.474 27.8943 110.291C27.8714 110.249 27.7104 110.21 27.6745 110.229C27.5823 110.316 27.4413 110.484 27.4719 110.54C27.561 110.746 27.7321 110.889 27.8493 111.062ZM24.322 121.006C24.887 121.062 25.2348 121.018 25.1694 120.472C24.7962 120.384 24.553 120.535 24.322 121.006ZM83.9411 54.0776C83.8415 54.0227 83.7342 53.9539 83.6346 53.899C83.6038 53.9704 83.5448 54.0753 83.5677 54.1174C83.6391 54.2058 83.7643 54.2649 83.8639 54.3198C83.8871 54.2344 83.9179 54.163 83.9411 54.0776ZM73.6091 60.3637C73.6758 60.2728 73.7527 60.1581 73.8117 60.0532C73.7351 60.0404 73.6278 59.9715 73.5996 60.0051C73.5074 60.0917 73.4484 60.1967 73.3638 60.2973C73.4302 60.3339 73.5069 60.3467 73.6091 60.3637ZM67.0127 64.1227C66.946 64.2136 66.8691 64.3283 66.8101 64.4332C66.8867 64.446 66.994 64.5149 67.0222 64.4813C67.1144 64.3947 67.1734 64.2897 67.258 64.1891C67.1916 64.1525 67.1149 64.1397 67.0127 64.1227ZM158.063 27.1034C158.039 27.1888 158.009 27.2602 157.985 27.3456C158.116 27.3291 158.244 27.3504 158.359 27.3058C158.402 27.3003 158.42 27.1631 158.433 27.1015C158.313 27.0942 158.193 27.0869 158.063 27.1034ZM28.9495 109.371C28.9727 109.285 29.0035 109.214 29.0267 109.129C28.8963 109.145 28.7685 109.124 28.6533 109.168C28.6098 109.174 28.6096 109.301 28.5788 109.373C28.6989 109.38 28.837 109.377 28.9495 109.371ZM41.5274 125.071C41.4966 125.143 41.4376 125.248 41.4605 125.29C41.5319 125.378 41.6571 125.437 41.7567 125.492C41.7876 125.421 41.8466 125.316 41.8236 125.274C41.7522 125.185 41.627 125.126 41.5274 125.071ZM38.9208 129.584C38.8212 129.53 38.714 129.461 38.6144 129.406C38.5835 129.477 38.5245 129.582 38.5475 129.624C38.6189 129.713 38.7364 129.758 38.8437 129.827C38.8668 129.741 38.8977 129.67 38.9208 129.584ZM35.3122 132.643C35.2126 132.588 35.1053 132.519 35.0057 132.464C34.9749 132.535 34.9159 132.64 34.9388 132.682C35.0102 132.771 35.1354 132.83 35.235 132.885C35.2582 132.799 35.289 132.728 35.3122 132.643ZM38.0177 131.168C37.9181 131.113 37.8109 131.044 37.7113 130.989C37.6804 131.061 37.6214 131.166 37.6444 131.208C37.7158 131.296 37.841 131.355 37.9406 131.41C37.9637 131.325 37.9946 131.253 38.0177 131.168ZM181.44 54.0899C181.524 54.1167 181.601 54.1295 181.685 54.1563C181.685 54.0288 181.711 53.9056 181.675 53.7977C181.66 53.7696 181.532 53.7483 181.456 53.7356C181.448 53.849 181.447 53.9765 181.44 54.0899ZM57.6024 137.211C57.5358 137.302 57.4588 137.416 57.3998 137.521C57.4765 137.534 57.5838 137.603 57.6119 137.569C57.7042 137.483 57.7632 137.378 57.8477 137.277C57.7813 137.24 57.7047 137.228 57.6024 137.211ZM48.5503 149.384C48.466 149.357 48.3893 149.345 48.305 149.318C48.3047 149.445 48.2789 149.568 48.3145 149.676C48.3375 149.718 48.4576 149.726 48.5343 149.738C48.5422 149.625 48.5424 149.498 48.5503 149.384ZM44.2823 153.62C44.3055 153.535 44.3363 153.464 44.3595 153.378C44.229 153.395 44.1012 153.373 43.9861 153.418C43.9426 153.423 43.9423 153.551 43.9115 153.622C44.0317 153.63 44.1698 153.627 44.2823 153.62ZM189.234 74.6167C189.301 74.5258 189.378 74.4111 189.437 74.3062C189.36 74.2934 189.253 74.2246 189.225 74.2581C189.133 74.3448 189.074 74.4497 188.989 74.5504C189.073 74.5772 189.15 74.5899 189.234 74.6167ZM189.805 76.9432C189.889 76.97 189.966 76.9828 190.05 77.0096C190.051 76.8821 190.077 76.7589 190.041 76.651C190.018 76.6089 189.898 76.6016 189.821 76.5889C189.813 76.7023 189.805 76.8158 189.805 76.9432ZM166.139 111.125C166.062 111.112 165.955 111.043 165.926 111.077C165.834 111.164 165.757 111.278 165.673 111.379C165.749 111.392 165.857 111.461 165.885 111.427C166.003 111.345 166.062 111.24 166.139 111.125ZM153.015 118.642C152.948 118.733 152.871 118.847 152.812 118.952C152.889 118.965 152.996 119.034 153.024 119C153.116 118.914 153.175 118.809 153.26 118.708C153.176 118.681 153.117 118.659 153.015 118.642Z" fill="#E0C4C1"/>
</g>
<g clip-path="url(#clip1_1140_14)">
<path d="M128.182 94.3944C127.409 94.4329 126.755 94.7688 126.334 95.4386C125.938 96.07 126.051 96.8268 125.717 97.4501C125.347 98.1401 124.345 98.7371 123.764 99.2531C122.975 99.9533 122.186 100.653 121.397 101.354C122.032 101.843 122.667 102.335 123.303 102.825C124.509 100.708 125.715 98.5894 126.919 96.4727C127.532 95.3961 126.318 94.2427 125.258 94.8113C124.153 95.4042 123.283 96.2501 122.629 97.3165C122.081 98.211 122.991 99.4029 124.001 99.0993C124.62 98.9131 127.318 97.4218 127.803 98.4336C127.951 98.7411 127.536 99.1742 127.376 99.4271C127.016 99.9958 126.696 100.552 126.583 101.222C126.468 101.908 126.711 102.711 126.46 103.353C126.217 103.972 125.502 104.397 124.978 104.769C123.627 105.727 122.182 106.534 120.676 107.216C121.231 107.77 121.783 108.323 122.338 108.877C123.867 106.829 125.334 104.709 126.966 102.74C127.666 101.894 128.435 101.157 129.25 100.427C130.025 99.7327 130.584 98.9273 130.584 97.8568C130.179 98.2616 129.774 98.6663 129.37 99.071C131.508 99.0831 132.158 97.017 132 95.2241C131.863 93.6801 129.434 93.6659 129.572 95.2241C129.592 95.4467 129.79 96.6447 129.37 96.6427C128.714 96.6386 128.155 97.2012 128.155 97.8568C128.155 98.5003 126.846 99.2936 126.433 99.7064C125.691 100.449 125.035 101.269 124.396 102.1C122.987 103.932 121.623 105.799 120.241 107.651C119.43 108.736 120.939 109.75 121.902 109.312C123.875 108.418 125.873 107.309 127.508 105.872C128.259 105.213 128.815 104.385 128.936 103.377C128.997 102.875 128.91 102.376 128.951 101.876C128.991 101.384 129.216 101.056 129.475 100.651C130.404 99.1965 130.659 97.3752 129.009 96.3027C127.105 95.0663 125.256 96.1853 123.357 96.756C123.815 97.3509 124.272 97.9459 124.729 98.5388C125.175 97.8143 125.739 97.3064 126.488 96.9037C125.933 96.3492 125.381 95.7968 124.827 95.2423C123.62 97.359 122.414 99.4777 121.21 101.594C120.51 102.825 122.101 103.968 123.117 103.066C124.398 101.928 125.699 100.809 126.963 99.6518C127.403 99.2491 127.789 98.8282 128.016 98.2676C128.131 97.9843 128.18 97.7111 128.236 97.4137C128.261 97.2174 128.297 97.0211 128.346 96.8288C128.459 96.6589 128.406 96.6548 128.184 96.8187C129.738 96.7459 129.746 94.3175 128.182 94.3944Z" fill="#D3A4A1"/>
<path d="M130.968 98.7897C130.863 98.8322 130.011 98.5024 129.964 98.5368C130.001 98.5104 130.219 98.8787 130.106 98.7027C130.357 99.0993 130.594 99.5061 130.826 99.9128C131.322 100.781 131.784 101.669 132.192 102.58C132.935 104.233 133.504 106.052 133.736 107.853C134.131 110.897 133.568 114.321 131.561 116.739C132.943 117.312 134.325 117.884 135.707 118.457C135.726 115.746 135.746 113.036 135.764 110.324C135.778 108.195 135.491 105.478 133.232 104.517C131.634 103.835 129.533 104.587 129.578 106.613C129.643 109.561 129.709 112.508 129.774 115.456C131.365 115.242 132.953 115.025 134.544 114.811C133.283 109.697 132.024 104.583 130.764 99.4696C130.098 96.7661 126.053 97.4116 125.994 100.115C125.921 103.511 126.219 106.908 126.864 110.241C127.152 111.731 127.672 113.224 127.785 114.738C127.846 115.561 127.795 116.84 127.212 117.287C128.402 117.771 129.59 118.255 130.78 118.738C129.997 114.41 129.216 110.079 128.432 105.751C128.267 104.828 127.281 104.114 126.413 104.011C125.405 103.891 124.559 104.336 123.993 105.17C120.646 110.092 120.824 116.253 118.654 121.63C120.245 121.845 121.833 122.061 123.424 122.276C123.634 120.159 123.869 118.012 124.62 116.007C125.393 113.938 127.073 112.591 128.364 110.865C129.594 109.217 130.296 107.254 130.994 105.338C131.599 103.679 132.194 102.025 133.408 100.787C132.026 100.214 130.644 99.6416 129.262 99.069C129.549 102.056 129.825 105.043 130.126 108.027C130.262 109.375 130.414 110.743 131.172 111.909C132.039 113.238 133.532 114.153 135.145 114.072C136.112 114.023 137.322 113.36 137.486 112.289C138.257 107.287 138.049 102.264 136.713 97.3691C135.153 97.8002 133.591 98.2292 132.03 98.6602C133.111 102.376 133.069 106.048 132.411 109.833C132.049 111.915 131.644 113.995 131.466 116.106C131.316 117.88 131.225 119.955 131.867 121.638C132.704 123.836 135.434 124.854 137.235 123.057C138.69 121.604 138.548 119.133 138.722 117.241C139.099 113.149 139.35 109.045 139.485 104.937C138.103 105.51 136.721 106.083 135.339 106.655C138.971 109.667 137.626 114.841 136.551 118.943C138.142 119.157 139.73 119.374 141.321 119.588C141.754 116.077 142.189 112.564 142.622 109.053C142.816 107.477 143.267 105.751 142.934 104.17C142.594 102.554 141.309 101.026 139.506 101.196C138.283 101.311 136.962 102.218 137.077 103.624C137.348 106.933 137.684 110.375 136.729 113.607C135.877 116.486 134.012 118.983 132.142 121.284C127.87 126.543 123.062 131.352 117.827 135.652C118.972 136.797 120.115 137.94 121.261 139.086C125.842 133.956 130.622 129.008 135.592 124.253C137.563 122.367 135.001 118.947 132.65 120.438C127.925 123.435 123.197 126.434 118.472 129.431C119.579 130.538 120.688 131.647 121.795 132.754C122.835 130.773 124.211 129.142 125.962 127.748C124.816 126.602 123.673 125.459 122.528 124.313C121.208 125.817 119.889 127.318 118.569 128.822C119.952 129.395 121.334 129.967 122.716 130.54C122.843 129.316 122.969 128.092 123.096 126.867C123.22 125.681 122.078 124.611 120.992 124.481C119.78 124.338 118.693 125.04 118.327 126.222C118.225 126.552 118.201 126.548 117.938 126.782C117.972 126.752 117.523 126.956 117.649 126.942C118.43 127.537 119.209 128.13 119.99 128.725C119.567 126.39 120.18 123.996 120.925 121.794C121.73 119.412 122.768 117.115 123.896 114.871C126.243 110.199 129.044 105.773 131.836 101.358C133.186 99.2248 130.567 96.926 128.513 98.0349C126.431 99.16 125.055 101.028 123.665 102.879C122.107 104.956 120.548 107.034 118.99 109.11C115.914 113.21 112.837 117.31 109.761 121.412C111.24 122.035 112.719 122.658 114.198 123.283C115.352 120.295 117.624 117.771 119.828 115.397C122.285 112.753 124.808 110.134 126.682 107.026C128.103 104.67 124.802 102.1 122.868 104.083C118.011 109.062 113.156 114.042 108.3 119.02C109.682 119.592 111.064 120.165 112.446 120.738C112.739 116.881 116.222 113.938 118.968 111.544C120.642 110.085 122.364 108.635 123.742 106.882C125.201 105.028 125.587 102.092 123.234 100.742C122.137 100.113 120.524 100.441 119.911 101.613C117.918 105.423 115.925 109.236 113.931 113.046C112.873 115.07 114.609 116.917 116.673 116.614C119.367 116.215 122.068 115.875 124.776 115.59C126.14 115.446 127.506 115.314 128.874 115.197C129.525 115.14 130.175 115.086 130.826 115.039C130.917 115.033 131.547 115.059 131.668 115.013C131.031 115.252 130.571 113.038 130.549 113.582C131.144 112.801 131.737 112.022 132.332 111.241C126.994 112.779 121.91 115.173 117.355 118.354C115.923 119.354 115.653 121.606 117.355 122.547C119.966 123.992 122.946 123.172 125.725 122.769C128.691 122.34 131.658 121.911 134.625 121.482C134.001 120.003 133.378 118.524 132.753 117.045C127.243 119.443 121.516 121.343 115.688 122.802C116.119 124.362 116.548 125.924 116.979 127.484C122.311 125.242 127.795 123.389 133.394 121.936C132.607 120.582 131.82 119.23 131.031 117.876C127.906 121.661 122.843 123.215 119.741 127.128C118.175 129.105 119.642 131.536 122.105 131.188C126.532 130.56 130.883 129.538 135.129 128.132C138.077 127.155 136.887 122.656 133.837 123.449C128.898 124.734 123.715 124.579 118.778 125.87C114.425 127.007 110.327 129.271 107.856 133.134C106.784 134.812 108.599 137.487 110.598 136.702C116.783 134.274 122.651 131.18 128.082 127.349C129.153 126.594 129.657 125.226 128.953 124.026C128.333 122.968 126.706 122.395 125.63 123.154C120.559 126.732 115.085 129.749 109.307 132.017C110.222 133.207 111.135 134.395 112.049 135.585C113.978 132.572 117.531 131.109 120.967 130.334C125.638 129.281 130.482 129.342 135.127 128.134C134.695 126.574 134.267 125.012 133.835 123.451C129.59 124.858 125.239 125.878 120.812 126.507C121.599 127.861 122.386 129.213 123.175 130.566C126.235 126.705 131.29 125.159 134.465 121.314C135.95 119.515 134.598 116.608 132.101 117.255C126.502 118.708 121.018 120.562 115.686 122.804C114.478 123.312 113.61 124.409 113.99 125.791C114.346 127.084 115.7 127.806 116.977 127.486C123.226 125.92 129.297 123.808 135.201 121.24C136.294 120.764 136.63 119.2 136.195 118.208C135.669 117.012 134.566 116.624 133.33 116.802C130.758 117.174 128.188 117.544 125.616 117.917C124.365 118.097 123.112 118.309 121.858 118.461C121.188 118.542 120.342 118.655 119.802 118.356C119.802 119.754 119.802 121.153 119.802 122.549C124.033 119.592 128.657 117.356 133.617 115.926C134.679 115.62 135.355 114.667 135.4 113.584C135.584 109.064 129.388 110.282 126.72 110.539C122.928 110.903 119.146 111.377 115.376 111.933C116.291 113.123 117.203 114.311 118.118 115.501C120.111 111.69 122.105 107.878 124.098 104.067C122.991 104.357 121.882 104.648 120.775 104.939C120.615 104.848 120.113 103.448 120.138 103.458C120.178 103.474 119.98 103.853 120.13 103.574C119.931 103.942 119.808 104.053 119.527 104.363C118.853 105.103 118.128 105.797 117.388 106.471C115.9 107.823 114.334 109.086 112.901 110.498C110.064 113.295 107.887 116.693 107.579 120.74C107.417 122.877 110.325 123.893 111.726 122.458C116.582 117.48 121.437 112.5 126.293 107.522C125.023 106.54 123.752 105.561 122.479 104.579C120.664 107.588 118.14 110.045 115.763 112.641C113.187 115.454 110.89 118.413 109.506 121.996C109.077 123.109 109.888 124.449 110.912 124.862C112.118 125.348 113.197 124.866 113.943 123.868C116.859 119.981 119.777 116.094 122.693 112.206C124.132 110.29 125.571 108.371 127.008 106.455C128.149 104.933 129.238 103.161 130.954 102.234C129.847 101.127 128.738 100.018 127.631 98.9111C124.64 103.64 121.639 108.384 119.195 113.426C116.71 118.552 114.243 124.214 115.293 130.022C115.463 130.965 116.657 131.916 117.634 131.805C120.19 131.513 122.22 130.028 122.995 127.519C121.404 127.304 119.816 127.088 118.225 126.873C118.098 128.098 117.972 129.322 117.845 130.546C117.63 132.622 120.662 133.778 121.991 132.264C123.311 130.761 124.63 129.259 125.949 127.756C126.814 126.77 126.919 125.291 125.949 124.322C124.936 123.308 123.545 123.502 122.515 124.322C120.48 125.942 118.798 128.007 117.59 130.309C116.513 132.359 118.762 134.996 120.913 133.632C125.638 130.635 130.365 127.636 135.09 124.639C134.109 123.368 133.129 122.098 132.148 120.825C127.178 125.58 122.398 130.526 117.817 135.658C116.944 136.635 116.853 138.129 117.817 139.092C118.82 140.096 120.235 139.928 121.251 139.092C126.751 134.573 131.802 129.492 136.219 123.909C138.385 121.173 140.398 118.289 141.4 114.904C142.482 111.245 142.229 107.38 141.922 103.63C141.112 104.44 140.303 105.249 139.493 106.059C138.818 105.974 138.385 105.682 138.194 105.184C138.15 105.065 138.148 105.079 138.19 105.225C138.117 105.344 138.215 105.111 138.19 105.445C138.146 106.056 138.051 106.664 137.976 107.271C137.804 108.663 137.632 110.053 137.46 111.445C137.124 114.163 136.788 116.879 136.452 119.596C136.306 120.778 137.488 121.855 138.557 121.982C139.73 122.122 140.908 121.434 141.222 120.242C142.695 114.624 143.873 107.465 138.761 103.229C137.16 101.902 134.689 102.728 134.615 104.948C134.523 107.73 134.38 110.51 134.179 113.287C134.084 114.608 133.975 115.93 133.854 117.251C133.787 117.976 133.732 118.706 133.641 119.428C133.647 119.374 133.581 119.961 133.581 119.859C133.576 120.465 133.599 119.602 133.925 119.465C134.333 119.354 134.742 119.244 135.151 119.133C136.227 120.355 136.63 120.592 136.359 119.847C136.325 119.728 136.306 119.607 136.302 119.485C136.229 118.995 136.231 118.481 136.229 117.988C136.225 116.988 136.298 115.982 136.43 114.993C136.671 113.196 137.059 111.423 137.33 109.63C137.958 105.492 137.879 101.424 136.701 97.3793C135.829 94.3843 131.193 95.643 132.018 98.6703C133.111 102.675 133.425 106.894 132.791 111.008C133.572 110.413 134.351 109.82 135.133 109.225C134.635 109.25 135.088 109.371 135.307 109.347C135.428 109.333 135.155 109.353 135.149 109.199C135.145 109.104 135.371 109.661 135.161 109.092C135.09 108.9 135.054 108.685 135.019 108.485C134.884 107.657 134.831 106.609 134.744 105.702C134.532 103.495 134.317 101.289 134.105 99.0811C133.912 97.0879 131.539 95.7503 129.958 97.3631C128.333 99.0224 127.406 101.07 126.603 103.217C125.903 105.089 125.401 106.935 124.084 108.483C123.222 109.495 122.279 110.417 121.514 111.512C120.795 112.536 120.279 113.706 119.867 114.881C119.035 117.251 118.798 119.803 118.551 122.286C118.434 123.472 119.565 124.54 120.656 124.672C121.943 124.825 122.853 124.087 123.321 122.931C125.322 117.971 125.104 112.143 128.169 107.631C126.69 107.437 125.211 107.244 123.732 107.05C124.515 111.379 125.296 115.709 126.079 120.038C126.336 121.46 128.457 122.401 129.647 121.488C133.046 118.878 132.909 115.001 132.016 111.174C131.164 107.524 130.754 103.871 130.834 100.121C129.244 100.336 127.655 100.552 126.065 100.767C127.326 105.88 128.584 110.994 129.845 116.108C130.499 118.757 134.675 118.21 134.615 115.462C134.55 112.514 134.483 109.567 134.418 106.619C133.2 107.317 131.982 108.017 130.764 108.715C131.379 108.979 130.525 108.43 130.707 108.4C130.784 108.388 130.911 109.395 130.869 108.983C130.968 109.946 130.885 110.95 130.879 111.917C130.863 114.098 130.849 116.282 130.832 118.463C130.818 120.43 133.593 121.847 134.979 120.181C138.328 116.148 139.239 110.96 138.285 105.88C137.816 103.379 136.843 100.963 135.677 98.7088C134.584 96.5961 132.672 92.8828 129.659 94.1132C128.445 94.6089 127.587 95.728 127.963 97.1C128.297 98.2433 129.748 99.2875 130.968 98.7897Z" fill="#D3A4A1"/>
<path d="M93.9889 93.0387C91.0344 91.8326 89.1423 95.3962 88.0516 97.4785C86.8455 99.7793 85.8439 102.246 85.3602 104.806C84.401 109.883 85.3197 115.078 88.6668 119.107C90.0489 120.77 92.8253 119.37 92.8131 117.389C92.797 115.207 92.7828 113.024 92.7666 110.842C92.7605 109.909 92.7099 108.966 92.7686 108.036C92.7949 107.623 92.6958 108.325 92.7747 107.922C92.803 107.781 92.9002 107.58 92.8981 107.441C92.8921 107.076 92.8556 107.603 92.8435 107.55C92.8698 107.657 92.3255 107.878 92.8819 107.641C91.6637 106.943 90.4455 106.243 89.2273 105.545C89.1626 108.493 89.0958 111.439 89.031 114.388C88.9703 117.109 93.141 117.708 93.8007 115.033C95.0614 109.92 96.32 104.806 97.5808 99.6923C95.9902 99.4778 94.4017 99.2613 92.8111 99.0468C92.8921 102.796 92.4813 106.451 91.6293 110.1C90.7369 113.928 90.5973 117.802 93.999 120.414C95.1889 121.327 97.3096 120.384 97.5666 118.963C98.3497 114.635 99.1308 110.304 99.914 105.976C98.4347 106.17 96.9555 106.362 95.4762 106.556C98.544 111.069 98.3234 116.897 100.325 121.857C100.778 122.978 101.705 123.789 102.99 123.597C104.083 123.433 105.216 122.432 105.094 121.211C104.854 118.783 104.625 116.286 103.836 113.963C103.417 112.73 102.879 111.508 102.134 110.438C101.371 109.341 100.42 108.426 99.5639 107.408C98.2829 105.889 97.775 104.114 97.0971 102.282C96.2836 100.089 95.3507 97.9844 93.6914 96.2886C92.1049 94.6697 89.7393 96.0093 89.545 98.0066C89.3325 100.214 89.118 102.42 88.9056 104.628C88.8226 105.484 88.77 106.479 88.6567 107.257C88.6223 107.495 88.4826 108.042 88.4725 108.143C88.4745 108.129 88.3228 108.303 88.3228 108.303C88.2965 108.295 89.2941 108.193 88.515 108.155C89.2961 108.75 90.0752 109.343 90.8563 109.938C90.2229 105.824 90.5366 101.605 91.6293 97.5999C92.4529 94.5786 87.8189 93.3078 86.9467 96.3088C85.769 100.354 85.6901 104.419 86.3174 108.56C86.5885 110.351 86.9771 112.125 87.2179 113.922C87.3494 114.914 87.4223 115.918 87.4182 116.917C87.4162 117.411 87.4162 117.925 87.3454 118.415C87.3433 118.538 87.3231 118.66 87.2887 118.777C87.0175 119.522 87.4202 119.285 88.4968 118.063C88.9056 118.174 89.3143 118.283 89.7231 118.394C89.8344 118.514 89.9275 118.647 89.9983 118.795C90.1602 119.109 90.1825 119.107 90.0671 118.787C90.0651 118.832 90.0105 118.455 90.0266 118.554C89.9052 117.842 89.8789 117.097 89.8121 116.377C89.6826 114.991 89.5693 113.605 89.4681 112.216C89.2658 109.44 89.1241 106.66 89.0331 103.877C88.9602 101.651 86.4874 100.836 84.8867 102.159C79.7751 106.394 80.9528 113.554 82.426 119.172C82.7295 120.329 83.9235 121.086 85.0911 120.912C86.1636 120.75 87.3474 119.74 87.1956 118.526C86.8597 115.81 86.5238 113.093 86.1879 110.375C86.024 109.049 85.86 107.724 85.6961 106.399C85.6172 105.763 85.5302 105.128 85.4654 104.492C85.4513 104.345 85.3582 103.976 85.427 104.274C85.4472 104.195 85.4654 104.114 85.4857 104.035C85.2975 104.571 84.8543 104.889 84.1541 104.988C83.3447 104.179 82.5353 103.369 81.7258 102.56C81.4182 106.305 81.1612 110.177 82.2479 113.833C83.2536 117.219 85.2631 120.102 87.4283 122.838C91.8459 128.423 96.8968 133.503 102.397 138.021C103.409 138.853 104.839 139.013 105.831 138.021C106.804 137.048 106.707 135.569 105.831 134.587C101.25 129.457 96.4698 124.51 91.4998 119.754C90.5184 121.025 89.539 122.296 88.5575 123.569C93.2826 126.566 98.0098 129.565 102.735 132.562C104.884 133.926 107.134 131.291 106.058 129.239C104.848 126.934 103.168 124.872 101.132 123.251C100.106 122.436 98.6998 122.249 97.6981 123.251C96.7187 124.231 96.83 125.698 97.6981 126.685C99.0175 128.189 100.337 129.69 101.656 131.194C102.976 132.697 106.017 131.562 105.803 129.476C105.675 128.251 105.55 127.027 105.422 125.803C103.832 126.017 102.243 126.234 100.653 126.448C101.43 128.958 103.457 130.443 106.013 130.734C106.98 130.846 108.182 129.907 108.354 128.952C109.405 123.144 106.938 117.484 104.453 112.356C102.01 107.313 99.0094 102.57 96.0165 97.8407C94.9096 98.9476 93.8007 100.057 92.6937 101.163C94.3572 102.062 95.4114 103.748 96.5184 105.225C97.9976 107.196 99.4748 109.165 100.954 111.136C103.87 115.023 106.788 118.91 109.704 122.798C110.431 123.765 111.546 124.316 112.738 123.791C113.751 123.346 114.585 122.071 114.144 120.926C112.76 117.342 110.463 114.384 107.887 111.571C105.509 108.975 102.984 106.518 101.171 103.509C99.8998 104.49 98.629 105.47 97.3561 106.451C102.213 111.429 107.067 116.409 111.924 121.387C113.316 122.816 116.232 121.812 116.07 119.669C115.763 115.622 113.585 112.224 110.748 109.428C109.358 108.058 107.842 106.828 106.394 105.52C105.651 104.848 104.922 104.158 104.242 103.424C103.965 103.124 103.755 102.93 103.581 102.614C103.467 102.408 103.706 102.637 103.544 102.505C103.506 102.355 103.504 102.349 103.536 102.487C103.674 102.997 103.453 103.458 102.877 103.871C101.77 103.582 100.661 103.29 99.5538 102.999C101.547 106.809 103.54 110.622 105.534 114.432C106.448 113.242 107.361 112.054 108.275 110.865C104.506 110.308 100.723 109.835 96.9312 109.47C94.26 109.213 88.0678 107.993 88.2519 112.516C88.2965 113.601 88.9764 114.554 90.0347 114.857C94.9946 116.286 99.6185 118.524 103.85 121.48C103.85 120.082 103.85 118.684 103.85 117.288C103.31 117.587 102.46 117.474 101.794 117.393C100.539 117.239 99.2866 117.031 98.0361 116.848C95.4641 116.476 92.8941 116.106 90.3221 115.733C89.1241 115.559 87.9464 115.926 87.4567 117.14C87.0499 118.15 87.3272 119.683 88.4503 120.173C94.3551 122.741 100.426 124.856 106.675 126.42C107.946 126.738 109.31 126.009 109.662 124.724C110.046 123.322 109.18 122.247 107.966 121.737C102.634 119.495 97.1497 117.642 91.5504 116.189C89.0573 115.541 87.7015 118.447 89.1868 120.248C92.3599 124.091 97.4168 125.641 100.477 129.5C101.264 128.146 102.051 126.794 102.84 125.441C98.4125 124.813 94.0617 123.791 89.8162 122.385C89.3852 123.945 88.9562 125.507 88.5251 127.068C93.1713 128.276 98.0158 128.215 102.684 129.267C106.12 130.042 109.674 131.505 111.602 134.519C112.517 133.329 113.43 132.141 114.344 130.951C108.565 128.682 103.091 125.665 98.0219 122.088C96.9494 121.331 95.3224 121.895 94.6991 122.958C93.9889 124.172 94.4948 125.522 95.5713 126.28C101.003 130.111 106.871 133.205 113.055 135.634C115.046 136.415 116.878 133.756 115.797 132.066C113.324 128.203 109.227 125.945 104.876 124.801C99.9403 123.506 94.7558 123.668 89.8162 122.381C86.7727 121.59 85.5727 126.086 88.5251 127.064C92.7706 128.47 97.1214 129.49 101.549 130.119C104.006 130.467 105.481 128.041 103.913 126.06C100.812 122.146 95.7474 120.59 92.6229 116.808C91.8357 118.162 91.0486 119.513 90.2594 120.867C95.8587 122.32 101.343 124.174 106.675 126.416C107.106 124.856 107.535 123.294 107.966 121.733C102.138 120.272 96.4131 118.372 90.9008 115.976C90.2776 117.455 89.6543 118.935 89.029 120.414C91.9956 120.843 94.9622 121.272 97.9288 121.701C100.707 122.104 103.688 122.923 106.298 121.478C108 120.535 107.731 118.285 106.298 117.286C101.743 114.104 96.66 111.71 91.3217 110.173C91.9167 110.954 92.5096 111.733 93.1045 112.514C93.0722 111.731 92.6249 114.222 91.9855 113.945C92.1292 114.007 92.4712 113.947 92.631 113.957C93.3474 114.001 94.0637 114.068 94.7801 114.129C96.148 114.246 97.5119 114.378 98.8779 114.521C101.585 114.807 104.287 115.149 106.98 115.545C109.051 115.851 110.775 113.991 109.722 111.978C107.729 108.167 105.736 104.355 103.743 100.544C103.131 99.3746 101.517 99.0447 100.42 99.672C98.2182 100.935 98.374 103.729 99.7237 105.565C101.1 107.439 102.945 108.954 104.688 110.472C107.434 112.866 110.916 115.808 111.21 119.665C112.592 119.093 113.974 118.52 115.356 117.947C110.499 112.969 105.645 107.989 100.788 103.011C98.8718 101.046 95.541 103.576 96.9737 105.953C98.8475 109.062 101.373 111.68 103.828 114.325C106.031 116.699 108.304 119.222 109.457 122.211C110.937 121.588 112.416 120.964 113.895 120.339C110.819 116.239 107.741 112.139 104.665 108.038C103.148 106.014 101.628 103.99 100.11 101.967C98.6836 100.065 97.2833 98.1179 95.1423 96.9624C93.0904 95.8535 90.4698 98.1503 91.8196 100.285C94.6121 104.701 97.4108 109.126 99.7602 113.799C100.861 115.988 101.873 118.229 102.672 120.548C103.447 122.802 104.101 125.259 103.666 127.652C104.447 127.057 105.226 126.465 106.007 125.87C106.155 125.886 105.687 125.679 105.718 125.71C105.455 125.467 105.43 125.479 105.329 125.149C104.973 124.002 103.872 123.229 102.664 123.409C101.575 123.573 100.432 124.577 100.559 125.795C100.687 127.019 100.812 128.243 100.94 129.468C102.322 128.895 103.704 128.322 105.086 127.75C103.767 126.246 102.448 124.745 101.128 123.241C99.9828 124.386 98.8394 125.53 97.6941 126.675C99.4445 128.067 100.821 129.7 101.861 131.681C102.968 130.575 104.077 129.466 105.183 128.359C100.458 125.362 95.7312 122.363 91.0061 119.366C88.6769 117.889 86.0725 121.274 88.0637 123.18C93.0337 127.936 97.8135 132.881 102.395 138.013C103.54 136.868 104.684 135.725 105.829 134.579C100.594 130.279 95.7858 125.471 91.514 120.212C89.6462 117.913 87.7744 115.412 86.9265 112.534C85.9734 109.3 86.3073 105.862 86.5784 102.552C86.6938 101.157 85.3663 100.239 84.1501 100.123C82.4138 99.9594 81.1147 101.408 80.7403 102.975C80.3579 104.583 80.8354 106.374 81.0337 107.981C81.4668 111.492 81.9019 115.005 82.3349 118.516C83.9255 118.301 85.514 118.085 87.1046 117.87C86.03 113.771 84.6823 108.594 88.3167 105.583C86.9346 105.01 85.5525 104.438 84.1703 103.865C84.3059 107.973 84.5548 112.075 84.9332 116.168C85.1073 118.061 84.9636 120.531 86.4206 121.984C88.2236 123.785 90.9514 122.763 91.7892 120.566C92.4307 118.884 92.3416 116.808 92.1899 115.033C92.0118 112.925 91.6051 110.844 91.2448 108.76C90.5892 104.976 90.5447 101.303 91.6253 97.5877C90.0651 97.1567 88.5029 96.7277 86.9427 96.2967C85.6071 101.192 85.3987 106.214 86.1697 111.217C86.3356 112.293 87.5315 112.951 88.511 113C90.0327 113.076 91.4088 112.283 92.2951 111.083C93.1976 109.859 93.3838 108.43 93.5315 106.955C93.833 103.97 94.1083 100.983 94.3956 97.9965C93.0135 98.5692 91.6314 99.1419 90.2492 99.7145C91.4594 100.951 92.0624 102.614 92.6634 104.266C93.3595 106.178 94.0597 108.149 95.2941 109.792C96.5912 111.516 98.2566 112.868 99.0377 114.934C99.7946 116.935 100.023 119.091 100.234 121.203C101.824 120.989 103.413 120.772 105.003 120.558C102.832 115.179 103.01 109.019 99.6651 104.098C99.1126 103.286 98.2526 102.786 97.2448 102.938C96.3646 103.07 95.3973 103.731 95.2253 104.678C94.4421 109.007 93.661 113.337 92.8779 117.666C94.0678 117.182 95.2556 116.699 96.4455 116.215C95.8728 115.776 95.8121 114.503 95.8728 113.665C95.9841 112.15 96.5062 110.656 96.7936 109.169C97.4351 105.834 97.7366 102.438 97.6637 99.0427C97.605 96.3655 93.5659 95.6693 92.8941 98.3972C91.6334 103.511 90.3747 108.624 89.114 113.738C90.7045 113.953 92.2931 114.169 93.8836 114.384C93.9484 111.435 94.0152 108.489 94.0799 105.54C94.1244 103.515 92.026 102.762 90.4253 103.444C88.167 104.407 87.8796 107.125 87.8938 109.252C87.912 111.963 87.9322 114.673 87.9504 117.385C89.3325 116.812 90.7147 116.239 92.0968 115.667C90.0894 113.25 89.5288 109.824 89.9214 106.781C90.146 105.037 90.6924 103.276 91.3946 101.667C91.7932 100.753 92.2567 99.8623 92.7464 98.9921C92.9771 98.5854 93.2037 98.1685 93.4607 97.7779C93.5113 97.701 93.5902 97.6242 93.5983 97.5655C93.7096 97.4582 93.7319 97.4299 93.6651 97.4845C93.404 97.697 93.0803 97.7739 92.6917 97.7152C93.9059 98.211 95.3609 97.1769 95.6786 96.0194C96.0671 94.6353 95.2071 93.5365 93.9889 93.0387Z" fill="#D3A4A1"/>
<path d="M111.013 110.654C111.821 110.662 112.628 110.67 113.434 110.676C112.735 109.458 112.035 108.24 111.337 107.022C111.094 107.38 110.851 107.736 110.609 108.094C109.73 109.389 110.617 111.294 112.059 111.662C113.383 112 114.694 112 116.014 111.652C117.282 111.32 118.053 109.918 117.709 108.665C117.357 107.384 115.995 106.635 114.723 106.969C114.275 107.086 113.8 107.093 113.351 106.979C113.834 108.169 114.318 109.357 114.801 110.547C115.044 110.189 115.287 109.833 115.53 109.474C116.594 107.908 115.174 105.838 113.434 105.82C112.626 105.812 111.819 105.804 111.013 105.797C109.702 105.785 108.585 106.923 108.585 108.226C108.585 109.553 109.696 110.642 111.013 110.654Z" fill="#D3A4A1"/>
<path d="M125.34 103.675C125.385 101.629 125.741 99.3199 127.222 97.7699C128.548 96.3837 130.345 95.8414 132.247 95.9061C136.25 96.0437 139.323 99.7449 140.228 103.652C140.813 106.17 140.582 108.827 139.935 111.308C139.68 112.289 139.54 113.115 138.818 113.601C137.516 114.477 136.553 115.517 135.602 116.753C132.567 120.701 129.169 124.348 125.411 127.618C121.062 131.404 116.236 134.61 111.11 137.242C111.928 137.242 112.745 137.242 113.561 137.242C110.655 135.265 107.749 133.29 104.843 131.313C104.434 132.821 104.026 134.33 103.617 135.838C106.155 135.644 108.69 135.449 111.228 135.253C113.359 135.089 115.844 134.931 117.027 132.839C118.379 130.445 116.473 128.144 114.826 126.535C113.201 124.949 111.301 123.625 109.243 122.664C109.048 124.143 108.856 125.623 108.662 127.102C110.677 126.378 112.727 125.94 114.866 125.86C114.652 124.269 114.435 122.68 114.221 121.09C109.34 123.079 104.153 123.725 98.9201 123.897C96.255 123.986 93.5758 124.014 90.9107 123.951C89.822 123.927 88.707 123.868 87.6871 123.443C86.6935 123.028 85.8456 122.28 85.0746 121.553C84.4028 120.92 83.3829 120.173 82.9862 119.327C82.5916 118.486 83.0773 116.903 83.1664 115.922C83.4335 113.008 83.2655 110.166 82.9741 107.265C82.7475 105.018 82.4439 102.396 83.7572 100.419C84.8136 98.8282 86.7724 98.4862 88.5249 98.3911C90.8176 98.2677 92.8392 98.3324 94.881 99.0103C95.6277 99.2572 96.2975 99.6032 96.8702 100.227C97.3437 100.743 96.7346 99.9311 97.1009 100.538C97.1232 100.575 97.4227 101.236 97.2931 100.876C97.3134 100.953 97.3336 101.032 97.3559 101.109C97.3296 100.868 97.3235 100.896 97.3356 101.194C97.5238 100.807 97.5319 100.558 98.0864 100.392C99.082 100.957 100.078 101.524 101.073 102.088C100.331 98.9233 97.0119 97.5371 94.027 97.8144C90.8803 98.1078 87.7255 99.0225 84.7367 100.014C85.5238 101.368 86.311 102.72 87.1002 104.073C87.9684 102.987 88.8365 101.902 89.7026 100.815C90.3238 100.036 90.6314 99.1358 90.2045 98.1624C89.8544 97.3672 88.9357 96.5496 87.9846 96.669C86.4952 96.8552 85.0645 97.1243 84.0183 98.3041C82.7717 99.7105 82.6868 101.845 83.99 103.244C84.8844 104.203 86.3232 104.749 87.5171 105.194C88.7798 105.666 90.1012 105.931 91.4328 106.119C95.998 106.761 101.215 106.02 105.339 108.096C109.348 110.114 109.848 114.311 110.602 118.506C111.027 120.865 111.558 123.182 112.624 125.348C113.211 126.537 114.026 127.663 115.228 128.288C116.61 129.006 118.175 128.988 119.668 128.693C122.629 128.108 125.595 126.732 128.262 125.356C129.655 124.637 130.964 123.789 132.324 123.012C133.261 122.476 134.432 121.778 135.531 122C135.337 120.521 135.145 119.042 134.95 117.563C133.113 118.728 131.601 120.268 130.515 122.16C129.553 123.834 130.8 125.698 132.611 125.815C135.642 126.011 139.044 125.02 141.118 122.699C143.707 119.805 143.255 116.31 143.439 112.728C143.524 111.059 144.542 109.614 144.482 107.934C144.413 105.99 143.106 104.373 141.513 103.379C140.143 102.521 138.324 102.382 137.065 101.352C135.995 100.473 135.216 99.1236 134.194 98.1341C131.767 95.7827 126.658 94.8356 124.915 98.5692C124.276 99.9392 124.729 101.728 126.366 102.137C128.329 102.627 130.292 103.116 132.253 103.606C133.299 103.867 134.345 104.128 135.394 104.389C136.324 104.622 137.221 104.883 138.188 104.759C140.337 104.486 142.104 102.153 140.562 100.156C139.2 98.3911 136.324 98.4518 134.58 99.5243C131.921 101.157 134.358 105.36 137.031 103.717C137.363 103.513 137.114 103.527 137.429 103.723C137.057 103.24 136.685 102.756 136.314 102.272C136.329 102.331 136.343 102.388 136.357 102.446C136.357 102.015 136.357 101.586 136.357 101.155C136.604 100.421 137.033 100.022 137.644 99.9594C137.996 100.028 137.939 100.008 137.472 99.9007C137.081 99.7935 136.687 99.7044 136.294 99.6073C135.313 99.3624 134.331 99.1176 133.35 98.8727C131.454 98.3992 129.555 97.9257 127.659 97.4521C128.143 98.642 128.627 99.8299 129.11 101.02C129.256 100.771 129.244 100.745 129.076 100.945C129.276 100.751 129.274 100.743 129.072 100.923C128.809 101.008 128.815 101.008 129.088 100.919C129.369 100.858 129.377 100.852 129.112 100.902C129.268 100.894 129.426 100.896 129.582 100.908C129.333 100.868 129.357 100.878 129.653 100.935C129.81 100.973 129.968 101.02 130.122 101.076C129.92 100.987 129.948 101.006 130.209 101.133C130.646 101.368 130.059 100.917 130.541 101.358C130.845 101.637 131.128 101.934 131.399 102.244C131.943 102.865 132.437 103.531 133 104.136C134.285 105.52 135.831 106.277 137.581 106.917C138.176 107.133 138.807 107.333 139.311 107.734C139.386 107.793 139.532 107.957 139.625 108.112C139.584 107.949 139.601 108.013 139.678 108.305C139.676 108.232 139.651 108.204 139.603 108.222C139.356 109.086 138.967 109.863 138.807 110.757C138.652 111.63 138.581 112.516 138.565 113.4C138.538 114.93 138.771 116.583 138.308 118.065C137.937 119.246 137.316 119.793 136.25 120.351C135.211 120.896 133.943 121.043 132.611 120.956C133.309 122.175 134.009 123.393 134.708 124.611C135.381 123.435 136.254 122.484 137.401 121.756C139.044 120.713 138.973 117.751 136.82 117.318C134.046 116.759 131.62 117.761 129.27 119.174C127.247 120.392 125.211 121.561 123.025 122.468C121.886 122.939 120.716 123.358 119.537 123.712C119.229 123.806 118.573 123.994 118.426 124.014C118.154 124.052 117.817 124.079 117.545 124.034C117.792 124.075 117.296 123.808 117.43 123.959C116.388 122.757 116.003 120.754 115.655 119.131C114.787 115.074 114.502 110.749 111.891 107.331C109.014 103.563 104.422 102.321 99.9056 101.894C97.4105 101.659 94.8891 101.726 92.4021 101.392C91.192 101.228 89.9495 100.961 88.8082 100.514C88.5572 100.415 87.4341 99.7206 87.337 99.7712C87.42 100.004 87.5029 100.237 87.5859 100.471C87.9178 100.85 87.934 101.202 87.6365 101.526C87.252 101.718 87.2601 101.742 87.6648 101.596C87.8449 101.655 87.9522 101.631 87.9846 101.526C87.4119 100.144 86.8392 98.7614 86.2665 97.3793C85.3984 98.466 84.5303 99.5506 83.6642 100.637C82.9802 101.493 82.6969 102.574 83.2837 103.58C83.8058 104.472 85.0139 105.033 86.0257 104.695C88.2557 103.956 90.5222 103.343 92.827 102.886C93.6931 102.714 94.6463 102.497 95.5265 102.667C95.7896 102.718 96.0122 102.796 96.2793 103.025C96.1174 102.886 96.4817 103.347 96.3845 103.193C96.3016 103.062 96.3016 103.005 96.3886 103.375C96.682 104.63 98.1552 105.441 99.3754 105.071C102.86 104.015 102.678 99.838 100.816 97.4177C99.1893 95.3031 96.6112 94.2265 94.0311 93.8198C91.2628 93.3827 88.3367 93.3159 85.5846 93.9007C82.3954 94.5786 79.9387 96.6306 78.7448 99.6599C77.5023 102.809 78.0426 106.162 78.336 109.426C78.4938 111.194 78.51 112.969 78.3967 114.74C78.2874 116.468 77.818 118.265 78.1296 119.987C78.4271 121.638 79.5239 122.899 80.6753 124.048C81.766 125.137 82.9013 126.199 84.1964 127.047C87.082 128.931 90.4938 128.82 93.8024 128.82C101.108 128.82 108.654 128.563 115.508 125.77C116.627 125.315 117.44 124.392 117.248 123.105C117.076 121.96 116.09 120.952 114.862 121.001C112.304 121.098 109.775 121.551 107.367 122.417C106.448 122.747 105.748 123.427 105.626 124.437C105.521 125.325 105.908 126.446 106.786 126.857C108.113 127.478 109.402 128.221 110.519 129.176C111.114 129.684 111.675 130.233 112.197 130.815C112.28 130.908 112.592 131.319 112.626 131.287C112.687 131.123 112.699 130.949 112.662 130.765C112.729 130.49 112.873 130.281 113.091 130.133C112.843 130.267 112.814 130.281 113.006 130.174C112.925 130.196 112.845 130.218 112.764 130.241C112.466 130.293 112.434 130.307 112.666 130.283C112.454 130.305 112.239 130.322 112.025 130.336C111.09 130.411 110.155 130.479 109.22 130.55C107.35 130.694 105.483 130.838 103.613 130.981C101.183 131.167 100.347 134.118 102.387 135.506C105.292 137.483 108.198 139.458 111.104 141.435C111.837 141.933 112.812 141.818 113.555 141.435C118.851 138.713 123.8 135.358 128.327 131.491C130.553 129.591 132.666 127.557 134.651 125.404C135.642 124.328 136.604 123.223 137.529 122.09C138.453 120.956 139.279 119.72 140.275 118.647C141.262 117.581 142.644 117.047 143.441 115.762C144.263 114.438 144.637 112.696 144.931 111.18C145.558 107.951 145.611 104.547 144.637 101.376C142.962 95.9183 138.38 91.44 132.524 91.0616C129.402 90.8592 126.091 92.0006 123.877 94.2326C121.404 96.7237 120.546 100.265 120.472 103.673C120.417 106.801 125.274 106.801 125.34 103.675Z" fill="#D3A4A1"/>
<path d="M111.333 98.7088C110.999 96.3553 110.544 93.6923 110.285 93.0245C110.4 93.0771 110.506 93.0568 110.574 93.0305C111.015 92.8626 111.232 91.8204 111.321 91.2133C111.432 90.4646 111.485 89.3921 111.305 88.6292C111.105 87.7793 108.215 84.4848 106.046 82.1031C106.098 81.7186 105.977 81.156 105.849 80.8383C105.574 80.1483 102.885 76.2427 101.579 74.9375C100.926 74.2839 99.6287 73.0231 98.2931 71.9405C96.5872 70.5564 95.3852 69.8987 94.6162 69.9331C93.5781 69.9776 83.0493 73.0454 78.571 74.3628C70.8125 76.6434 63.0095 79.015 61.5343 79.5412C61.3056 79.6221 61.0324 79.693 60.7451 79.7658C59.9114 79.9783 58.8733 80.2434 58.0254 81.0164C57.3879 81.5992 55.589 85.7395 52.9198 91.9884C51.4628 95.4002 50.0847 98.6238 49.332 100.091C47.1364 104.369 43.6841 109.877 41.3974 113.522C40.4281 115.068 39.6632 116.29 39.2949 116.933C38.5037 118.326 35.9802 119.843 31.5769 121.576C27.736 123.087 23.106 124.508 19.0204 125.762C14.8477 127.043 11.2437 128.15 9.64502 128.998L9.83929 129.362C11.4035 128.533 14.9894 127.432 19.1418 126.157C27.4447 123.607 37.7792 120.436 39.6531 117.138C40.0153 116.5 40.7782 115.282 41.7455 113.74C44.0342 110.09 47.4945 104.573 49.6962 100.279C50.4551 98.7998 51.8352 95.5702 53.2962 92.1503C55.3522 87.3402 57.6814 81.8865 58.3006 81.3199C59.0716 80.6157 60.0146 80.3749 60.8443 80.1645C61.1417 80.0876 61.423 80.0167 61.6699 79.9297C64.5798 78.8936 93.0216 70.4147 94.6324 70.3439C95.0816 70.3237 96.0388 70.6414 98.0321 72.2603C99.3514 73.3328 100.636 74.5813 101.286 75.2289C102.551 76.4936 105.212 80.3587 105.465 80.9901C105.55 81.2026 105.6 81.4393 105.625 81.6417C105.212 81.1924 104.839 80.7877 104.53 80.4559C100.952 76.611 97.4796 73.1405 96.4516 72.3877C96.059 72.1004 94.9582 71.9567 89.8891 73.4117C86.5036 74.383 82.082 75.8501 77.8061 77.2707L77.021 77.5317C75.7218 77.9628 74.4146 78.3897 73.1518 78.8005C69.3474 80.041 65.7555 81.2127 63.2483 82.2285C62.6999 82.4511 62.5987 82.5503 62.5805 82.6899C62.5704 82.7729 62.6048 82.8538 62.6736 82.9044C62.7323 82.9469 62.8294 83.0177 63.4628 82.9044C63.7198 82.8579 64.0861 82.7749 64.2702 82.6899C65.0291 82.3419 72.5124 79.8973 80.1636 77.5398C84.3626 76.2447 87.9848 75.1702 90.6398 74.4336C94.8813 73.2538 95.717 73.1911 95.8749 73.2255C96.4982 73.6525 100.305 77.3719 102.832 79.8407C104.765 81.7287 105.449 82.3945 105.55 82.4572C105.643 82.5159 105.746 82.522 105.833 82.4795C108.832 85.78 110.771 88.1557 110.902 88.7203C111.042 89.3091 111.044 90.238 110.912 91.1445C110.767 92.1361 110.536 92.5692 110.439 92.6339C110.423 92.6218 110.384 92.5833 110.332 92.4882C109.89 91.6666 105.366 87.0427 103.99 85.6444C101.602 83.2181 98.0523 79.695 97.6374 79.4582C97.5808 79.4258 97.5059 79.3773 97.4209 79.3226C96.9919 79.0454 96.1906 78.5274 95.0108 78.327C93.5821 78.0842 91.9916 78.3655 90.2816 79.1648C88.2216 80.126 82.8995 82.0909 77.7555 83.9911C75.0722 84.9827 72.5366 85.9176 70.6365 86.6481C67.4109 87.8886 67.3744 88.016 67.3299 88.1638C67.3097 88.2326 67.3218 88.3054 67.3643 88.3621C67.4655 88.4977 67.6436 88.4653 67.9228 88.3965C68.1272 88.3459 68.4227 88.2589 68.8031 88.1395C69.4992 87.9209 70.4847 87.587 71.8183 87.1196C74.2891 86.2535 77.5997 85.0515 80.8031 83.8879C86.4611 81.8339 92.8739 79.5048 93.5376 79.4602C94.5899 79.3894 96.8118 79.7597 99.8715 83.0258C100.339 83.5236 101.938 85.1142 103.787 86.9557C106.406 89.5601 109.666 92.8019 109.884 93.1297C110.034 93.3685 110.487 95.6794 110.922 98.7412C110.854 98.7148 110.779 98.7007 110.7 98.7007C110.435 98.7007 110.147 98.8565 109.89 99.1418C109.251 99.8481 108.949 101.103 109.087 102.495C109.251 104.166 109.737 105.12 110.115 105.627C110.516 106.166 110.945 106.411 111.246 106.475C111.001 106.647 110.617 106.827 110.085 106.959C108.397 107.374 105.959 107.099 104.641 104.948C104.022 103.94 103.356 102.236 102.858 100.388C102.342 98.4801 102.219 97.2396 102.322 96.8956C102.441 96.499 101.917 96.2177 101.389 95.9951C100.825 95.7584 100.05 95.5115 99.1511 95.2241C96.9191 94.5118 93.8634 93.5344 93.1977 92.2838C93.0924 92.0875 92.9184 91.954 92.6938 91.8993C91.5666 91.6241 89.0331 93.3685 86.797 94.9084C85.5201 95.7887 84.312 96.6184 83.8263 96.7317C81.5316 97.2619 79.9248 99.9088 79.172 101.441C78.1177 103.584 77.4904 106.022 77.6462 107.372C77.6827 107.683 77.6867 108.155 77.6908 108.748C77.709 110.761 77.7373 114.133 79.0688 117.64C80.6837 121.895 83.7818 125.151 88.2722 127.314C94.8084 130.463 100.09 133.533 103.971 136.437C108.458 139.792 110.854 142.777 111.092 145.306C111.382 148.374 111.525 151.646 110.4 152.652C110.236 152.798 110.048 152.895 109.832 152.941C109.88 152.883 109.923 152.812 109.959 152.725C110.238 152.055 110.113 151.126 109.617 150.173C109.148 149.273 108.401 148.427 107.456 147.723C106.371 146.915 105.107 146.351 103.698 146.041C102.903 145.867 102.389 145.922 102.13 146.209C101.938 146.421 101.905 146.729 102.035 147.124C102.13 147.415 102.306 147.743 102.539 148.089C102.158 147.85 101.79 147.642 101.438 147.482C100.416 147.016 99.1248 146.474 97.7589 145.901C95.0068 144.746 91.8864 143.435 90.7167 142.625C89.2901 141.638 86.3417 140.423 83.2051 139.531C79.3704 138.44 75.6672 137.932 72.7754 138.102C69.6146 138.288 66.1077 137.617 62.3943 136.906C58.5373 136.168 54.1664 135.33 49.4696 135.33C45.2807 135.33 42.1198 137.362 40.6082 138.574C38.4227 140.326 36.9536 142.534 36.9536 144.07C36.9536 144.618 37.1418 145.07 37.4999 145.379C37.8743 145.703 38.4247 145.867 39.133 145.867C42.1036 145.867 52.3694 143.497 60.6176 141.595C63.5377 140.921 66.2958 140.284 68.3356 139.845C69.7825 139.533 70.6689 139.365 71.199 139.28C69.9444 139.865 67.0284 141.117 63.2159 142.757C53.794 146.808 39.5539 152.931 33.3374 156.29C24.0936 161.287 9.80691 167.372 9.66323 167.432L9.82512 167.813C9.9688 167.752 24.2737 161.661 33.5337 156.655C39.732 153.304 53.962 147.186 63.3778 143.137C67.8803 141.2 71.1343 139.802 71.8992 139.397C72.0368 139.325 72.2918 139.191 72.2088 138.968C72.1319 138.762 71.9114 138.746 71.027 138.889C70.4624 138.981 69.651 139.14 68.5461 139.375C66.4739 139.818 63.5822 140.484 60.5225 141.19C52.2945 143.088 42.0551 145.452 39.131 145.452C38.5239 145.452 38.0645 145.323 37.7671 145.066C37.4999 144.835 37.3644 144.501 37.3644 144.07C37.3644 142.651 38.7708 140.573 40.8632 138.896C42.3323 137.718 45.4041 135.743 49.4675 135.743C54.1239 135.743 58.4746 136.577 62.3134 137.311C65.62 137.944 68.7646 138.545 71.6685 138.545C72.049 138.545 72.4233 138.535 72.7957 138.513C79.2267 138.135 87.8978 141.178 90.4779 142.963C91.682 143.795 94.687 145.057 97.5949 146.28C98.9589 146.852 100.246 147.393 101.262 147.856C101.915 148.154 102.642 148.627 103.38 149.167C103.876 149.732 104.439 150.29 104.965 150.762C106.525 152.166 108.019 153.124 108.96 153.322C109.66 153.47 110.236 153.346 110.674 152.956C111.932 151.832 111.815 148.595 111.501 145.264C111.25 142.613 108.8 139.531 104.216 136.103C100.313 133.185 95.0088 130.101 88.4503 126.94C78.2169 122.009 78.136 112.712 78.1016 108.742C78.0955 108.135 78.0914 107.655 78.053 107.321C77.7737 104.909 80.3194 97.96 83.9154 97.1304C84.4779 97.0009 85.6031 96.2258 87.0257 95.2464C88.9744 93.9047 91.6455 92.0673 92.5906 92.298C92.7019 92.3243 92.7767 92.381 92.8273 92.4761C93.572 93.8764 96.5933 94.8417 99.0196 95.6167C99.8047 95.8676 100.547 96.1044 101.084 96.3189C101.794 96.6022 101.901 96.7519 101.917 96.7863C101.741 97.4056 102.077 99.1034 102.454 100.494C102.97 102.404 103.637 104.106 104.285 105.16C105.72 107.499 108.356 107.805 110.18 107.356C111.238 107.095 111.944 106.609 111.977 106.117C112.064 104.911 111.821 102.139 111.333 98.7088ZM96.0894 72.8774C95.9396 72.7803 95.6907 72.6144 90.7855 73.9722C88.1508 74.7007 84.5144 75.7773 80.2648 77.0845C74.3498 78.9058 68.5238 80.7837 65.7333 81.7327C67.9188 80.9456 70.5434 80.0896 73.2773 79.1992C74.542 78.7864 75.8493 78.3594 77.1484 77.9284L77.9336 77.6673C82.2054 76.2488 86.625 74.7837 90.0004 73.8144C91.8115 73.2943 93.1936 72.9523 94.2256 72.7702C94.8692 72.6569 95.3103 72.6164 95.6098 72.6164C95.9761 72.6164 96.1359 72.6751 96.2047 72.7257C97.1012 73.3834 99.9201 76.1739 103.032 79.4704C100.337 76.8295 96.6965 73.2741 96.0894 72.8774ZM104.079 86.6703C102.308 84.9078 100.634 83.2444 100.173 82.7526C98.8698 81.3604 97.5808 80.3425 96.3464 79.7294C95.4358 79.2761 94.5737 79.0474 93.7805 79.0474C93.6894 79.0474 93.6004 79.0494 93.5113 79.0555C92.8395 79.1 87.9889 80.8464 80.6634 83.5074C77.2091 84.7621 73.2307 86.2069 70.5697 87.1236C72.5731 86.3506 75.3312 85.3307 77.8992 84.3837C83.0533 82.4815 88.3815 80.5145 90.4577 79.5452C94.256 77.7726 96.3181 79.1061 97.1983 79.6768C97.2894 79.7354 97.3683 79.786 97.4351 79.8245C97.6961 79.9742 100.333 82.522 103.698 85.9418C106.76 89.0521 108.957 91.3894 109.712 92.3304C108.783 91.355 106.721 89.297 104.079 86.6703ZM109.579 152.573C109.516 152.723 109.435 152.759 109.372 152.775C108.761 152.929 107.205 151.677 105.702 150.465C105.048 149.938 104.354 149.378 103.664 148.872C103.024 148.137 102.579 147.474 102.427 147.006C102.373 146.838 102.33 146.612 102.435 146.496C102.504 146.421 102.753 146.268 103.609 146.454C106.604 147.109 108.488 148.908 109.251 150.373C109.69 151.215 109.809 152.017 109.579 152.573ZM109.498 102.463C109.312 100.566 109.985 99.6578 110.196 99.4251C110.37 99.2329 110.558 99.1196 110.7 99.1196C110.756 99.1196 110.835 99.1358 110.894 99.2673C110.985 99.4757 111.167 100.856 111.299 102.724C111.43 104.573 111.43 105.765 111.362 106.083C110.997 106.034 109.779 105.328 109.498 102.463Z" fill="#333333"/>
<path d="M188.485 154.317C186.152 153.36 182.465 151.869 178.195 150.141C168.061 146.039 154.361 140.492 151.619 139.203C152.066 139.256 152.841 139.379 154.181 139.636C155.954 139.978 158.334 140.478 160.853 141.01C167.515 142.415 175.805 144.163 178.669 144.163C179.717 144.163 180.593 143.859 181.198 143.283C181.759 142.751 182.066 141.992 182.066 141.15C182.066 139.782 181.269 138.331 179.931 137.269C178.823 136.388 176.813 135.34 173.531 135.34C168.836 135.34 164.463 136.178 160.606 136.916C156.893 137.627 153.386 138.299 150.225 138.112C147.333 137.942 143.63 138.45 139.795 139.541C136.659 140.434 133.71 141.648 132.284 142.635C131.114 143.443 127.996 144.754 125.244 145.911C123.878 146.486 122.587 147.028 121.565 147.492C121.213 147.652 120.842 147.86 120.464 148.099C120.696 147.753 120.873 147.425 120.968 147.134C121.095 146.737 121.063 146.429 120.873 146.219C120.611 145.932 120.1 145.877 119.304 146.051C117.894 146.359 116.629 146.925 115.546 147.733C114.601 148.437 113.855 149.283 113.385 150.183C112.889 151.136 112.764 152.067 113.043 152.735C113.08 152.822 113.124 152.893 113.171 152.952C112.954 152.905 112.766 152.808 112.602 152.662C111.477 151.658 111.621 148.386 111.91 145.316C112.149 142.787 114.545 139.802 119.031 136.447C122.912 133.543 128.194 130.475 134.73 127.325C139.223 125.159 142.319 121.903 143.936 117.65C145.267 114.143 145.295 110.771 145.314 108.758C145.32 108.163 145.324 107.694 145.358 107.382C145.514 106.032 144.887 103.592 143.832 101.451C143.08 99.9189 141.473 97.272 139.178 96.7418C138.692 96.6305 137.486 95.7988 136.207 94.9186C133.971 93.3786 131.436 91.6343 130.311 91.9095C130.086 91.9641 129.912 92.0977 129.807 92.294C129.141 93.5445 126.085 94.522 123.853 95.2343C122.955 95.5216 122.18 95.7685 121.615 96.0053C121.087 96.2278 120.563 96.5071 120.682 96.9058C120.786 97.2498 120.662 98.4882 120.146 100.398C119.648 102.244 118.98 103.95 118.363 104.958C117.046 107.107 114.607 107.384 112.92 106.969C112.388 106.838 112.003 106.658 111.758 106.486C112.06 106.421 112.489 106.176 112.889 105.638C113.268 105.13 113.753 104.175 113.917 102.505C114.055 101.111 113.753 99.8562 113.114 99.152C112.857 98.8666 112.568 98.7108 112.305 98.7108C112.122 98.7108 111.963 98.7857 111.847 98.9213C111.859 98.7938 111.874 98.6683 111.886 98.5429C112.238 95.1432 112.598 92.8606 112.74 92.6198C112.995 92.2353 117.564 87.8582 120.294 85.2417C121.573 84.0154 122.582 83.0481 122.945 82.6899C124.317 81.3321 126.99 79.1061 129.453 79.4683C130.06 79.5574 135.204 81.4151 140.649 83.382C144.156 84.6488 147.78 85.9581 150.581 86.9355C152.097 87.4656 153.222 87.844 154.019 88.097C154.456 88.2346 154.796 88.3358 155.031 88.3945C155.369 88.4795 155.541 88.5058 155.64 88.3702C155.683 88.3135 155.695 88.2407 155.674 88.1719C155.63 88.0241 155.594 87.8967 152.368 86.6562C150.468 85.9257 147.932 84.9887 145.249 83.9992C140.103 82.099 134.783 80.1341 132.723 79.1729C131.013 78.3756 129.42 78.0923 127.994 78.3351C126.812 78.5355 126.012 79.0535 125.583 79.3307C125.498 79.3854 125.424 79.4339 125.367 79.4663C124.984 79.6849 121.642 82.7608 118.76 85.4946C116.914 87.2471 112.576 91.4056 112.153 92.1908C112.114 92.2636 112.082 92.3041 112.062 92.3263C111.975 92.209 111.817 91.7658 111.748 90.8612C111.683 89.9972 111.728 89.0987 111.865 88.5139C111.999 87.9473 113.934 85.6444 117.03 82.3479C117.052 82.3884 117.078 82.4208 117.109 82.4471C117.206 82.528 117.339 82.5341 117.453 82.4633C117.554 82.4006 118.238 81.7348 120.17 79.8468C122.696 77.38 126.504 73.6586 127.128 73.2316C127.285 73.1972 128.121 73.2599 132.363 74.4397C135.016 75.1783 138.638 76.2528 142.839 77.5479C150.49 79.9054 157.973 82.352 158.732 82.698C158.918 82.783 159.283 82.866 159.54 82.9125C160.173 83.0258 160.27 82.955 160.329 82.9125C160.398 82.8619 160.434 82.781 160.422 82.698C160.404 82.5584 160.305 82.4592 159.754 82.2366C157.247 81.2208 153.655 80.0491 149.851 78.8087C148.586 78.3958 147.279 77.9689 145.979 77.5399L145.194 77.2788C140.918 75.8603 136.495 74.3911 133.111 73.4198C128.04 71.9648 126.941 72.1085 126.549 72.3958C125.49 73.1729 121.967 76.5928 118.355 80.3547C118.09 80.6319 117.776 80.9577 117.434 81.3199C117.461 81.2107 117.493 81.1014 117.536 80.9982C117.789 80.3668 120.45 76.4997 121.714 75.237C122.364 74.5874 123.649 73.3409 124.968 72.2684C126.962 70.6495 127.917 70.3318 128.368 70.352C129.058 70.3824 135.052 72.0316 144.401 74.7655C152.35 77.0906 160.019 79.4097 161.5 79.9378C161.695 80.0066 161.899 80.0694 162.118 80.1361C162.927 80.383 163.846 80.6623 164.682 81.4252C165.307 81.9958 167.77 87.7125 169.749 92.3061C171.194 95.6592 172.557 98.8262 173.308 100.289C175.419 104.401 178.59 109.021 180.905 112.394C182.008 114.001 182.88 115.272 183.276 115.97C184.136 117.484 186.846 119.208 191.557 121.24C195.582 122.976 200.348 124.637 204.553 126.102C208.383 127.438 211.692 128.589 213.169 129.375L213.363 129.01C211.858 128.211 208.537 127.053 204.69 125.714C196.588 122.889 185.49 119.022 183.639 115.768C183.232 115.053 182.358 113.779 181.249 112.164C178.94 108.801 175.777 104.193 173.679 100.105C172.934 98.6541 171.572 95.4933 170.131 92.1483C167.428 85.871 165.606 81.7125 164.965 81.1257C164.06 80.3001 163.053 79.9925 162.243 79.7456C162.031 79.6808 161.83 79.6201 161.644 79.5533C158.73 78.5152 130.062 70.0161 128.392 69.9453C128.374 69.9453 128.354 69.9432 128.336 69.9432C127.565 69.9432 126.379 70.6009 124.715 71.9527C123.382 73.0373 122.085 74.296 121.429 74.9496C120.124 76.2549 117.436 80.1604 117.159 80.8505C117.06 81.0994 116.963 81.498 116.953 81.8441C114.731 84.2036 111.673 87.5688 111.471 88.4268C111.319 89.0683 111.273 90.0417 111.349 90.9665C111.436 92.0309 111.637 92.6279 111.942 92.7452C112.037 92.7816 112.163 92.7877 112.294 92.6845C111.969 93.8784 111.538 97.956 111.485 98.466C111.2 101.21 110.929 104.666 111.028 106.135C111.06 106.627 111.766 107.113 112.825 107.374C114.648 107.823 117.285 107.518 118.719 105.178C119.367 104.122 120.035 102.422 120.551 100.512C120.925 99.1216 121.263 97.4218 121.087 96.8046C121.103 96.7702 121.213 96.6184 121.921 96.3371C122.459 96.1226 123.2 95.8859 123.985 95.6349C126.411 94.8599 129.432 93.8946 130.177 92.4943C130.228 92.4012 130.303 92.3445 130.414 92.3162C131.361 92.0855 134.03 93.923 135.979 95.2646C137.403 96.244 138.528 97.0191 139.089 97.1486C142.685 97.9783 145.229 104.929 144.951 107.339C144.913 107.673 144.909 108.153 144.903 108.76C144.868 112.73 144.79 122.027 134.554 126.958C127.996 130.119 122.69 133.203 118.788 136.121C114.205 139.549 111.754 142.631 111.503 145.282C111.19 148.613 111.072 151.851 112.331 152.974C112.768 153.364 113.345 153.488 114.045 153.34C114.986 153.142 116.479 152.185 118.039 150.78C118.564 150.309 119.128 149.75 119.624 149.186C120.361 148.645 121.089 148.17 121.743 147.874C122.759 147.413 124.048 146.871 125.409 146.298C128.315 145.078 131.322 143.815 132.526 142.981C135.107 141.198 143.78 138.155 150.209 138.531C153.42 138.72 156.953 138.044 160.691 137.329C164.53 136.595 168.881 135.761 173.537 135.761C179.14 135.761 181.66 138.918 181.66 141.158C181.66 142.736 180.488 143.758 178.675 143.758C175.854 143.758 167.587 142.016 160.944 140.616C158.291 140.057 155.786 139.529 153.981 139.187C153.018 139.005 152.307 138.883 151.813 138.821C151.053 138.724 150.824 138.752 150.751 138.954C150.666 139.187 150.949 139.337 151.103 139.418C152.807 140.316 166.8 145.982 178.045 150.533C182.315 152.261 186.002 153.755 188.333 154.71C197.899 158.632 213.655 168.622 213.813 168.721L214.033 168.373C213.871 168.262 198.085 158.253 188.485 154.317ZM125.565 79.8225C125.632 79.784 125.711 79.7334 125.802 79.6748C126.682 79.1061 128.746 77.7705 132.543 79.5432C134.619 80.5125 139.947 82.4795 145.101 84.3817C147.789 85.3732 150.682 86.4417 152.704 87.2269C149.687 86.2049 144.745 84.4201 140.783 82.9894C135.08 80.9294 130.155 79.1506 129.505 79.0555C129.307 79.0272 129.103 79.011 128.896 79.011C127.86 79.011 126.729 79.3773 125.521 80.1017C125.017 80.4053 124.507 80.7655 123.993 81.1803C124.873 80.3871 125.446 79.8893 125.565 79.8225ZM119.039 85.7921C120.213 84.6791 121.322 83.641 122.281 82.7527C121.787 83.2302 120.974 84.0113 120.004 84.9402C117.353 87.4818 114.994 89.7483 113.624 91.1041C114.743 89.9324 116.633 88.0747 119.039 85.7921ZM118.651 80.636C122.19 76.951 125.766 73.4765 126.79 72.7237C126.915 72.6326 127.34 72.5152 128.769 72.7682C129.801 72.9503 131.183 73.2923 132.994 73.8124C136.371 74.7817 140.789 76.2488 145.061 77.6653L145.848 77.9264C147.147 78.3574 148.454 78.7844 149.721 79.1972C152.455 80.0896 155.08 80.9456 157.265 81.7307C154.477 80.7796 148.649 78.9038 142.734 77.0825C138.486 75.7753 134.848 74.6987 132.213 73.9702C127.31 72.6144 127.059 72.7783 126.909 72.8754C126.296 73.2781 122.587 76.9024 119.877 79.5493C118.778 80.6238 117.73 81.6478 117.356 81.9958C117.356 81.9938 117.356 81.9938 117.356 81.9918C117.768 81.5567 118.201 81.1034 118.651 80.636ZM112.106 99.2693C112.165 99.1358 112.246 99.1216 112.301 99.1216C112.442 99.1216 112.63 99.2349 112.804 99.4272C113.015 99.6599 113.689 100.566 113.503 102.465C113.221 105.332 112.003 106.036 111.637 106.087C111.568 105.769 111.568 104.577 111.7 102.728C111.833 100.858 112.013 99.4778 112.106 99.2693ZM119.337 148.872C118.647 149.38 117.952 149.938 117.299 150.465C115.793 151.677 114.237 152.931 113.628 152.775C113.563 152.759 113.482 152.721 113.422 152.573C113.191 152.017 113.31 151.215 113.749 150.369C114.512 148.904 116.396 147.105 119.391 146.45C119.691 146.385 119.915 146.361 120.085 146.361C120.401 146.361 120.522 146.444 120.567 146.492C120.672 146.61 120.63 146.834 120.575 147.002C120.423 147.472 119.976 148.137 119.337 148.872Z" fill="#333333"/>
</g>
<defs>
<clipPath id="clip0_1140_14">
<rect width="97.4295" height="181.613" fill="white" transform="translate(47 181.462) rotate(-118.592)"/>
</clipPath>
<clipPath id="clip1_1140_14">
<rect width="209" height="209" fill="white" transform="translate(7 10)"/>
</clipPath>
</defs>
</svg>
