<svg width="1439" height="64" viewBox="0 0 1439 64" fill="none" xmlns="http://www.w3.org/2000/svg">
<path d="M515.645 27.8828C515.425 27.68 515.213 27.6962 515.017 27.8666C514.944 27.9315 514.87 27.9964 514.813 28.0694C514.291 28.775 513.492 28.8967 512.709 28.9859C512.186 29.0427 512.023 28.8237 512.007 28.3046C511.999 28.0856 511.917 27.8666 511.893 27.6476C511.868 27.4772 511.877 27.2988 511.877 27.1285C511.885 26.9176 511.942 26.7067 511.909 26.5039C511.885 26.366 511.762 26.2119 511.64 26.1308C511.493 26.0253 511.379 26.1551 511.265 26.2768C510.588 26.9906 509.919 27.7206 509.217 28.41C508.214 29.3996 507.194 30.3649 506.158 31.322C505.881 31.5816 505.53 31.7762 505.195 31.9709C504.722 32.2386 504.184 32.0682 503.85 31.6464C503.491 31.1922 503.507 30.7136 503.597 30.2026C503.646 29.9269 503.678 29.643 503.67 29.3672C503.654 29.0508 503.433 28.9535 503.181 29.1563C502.691 29.5456 502.21 29.9431 501.737 30.3486C501.051 30.9408 500.366 31.5329 499.518 31.906C499.469 31.9303 499.42 31.9547 499.395 31.9952C499.102 32.4657 498.604 32.6522 498.147 32.8956C497.952 33.001 497.764 33.1146 497.609 33.2606C497.462 33.3985 497.315 33.4877 497.12 33.4634C496.704 33.4147 496.271 33.4066 495.88 33.2768C495.333 33.1065 495.235 32.8388 495.341 32.2872C495.464 31.6789 495.529 31.0543 495.676 30.4541C495.782 30.008 495.977 29.5781 496.149 29.1401C496.907 27.1366 497.666 25.1412 498.417 23.1377C498.457 23.0241 498.449 22.8132 498.368 22.7402C498.278 22.6591 498.074 22.6186 497.943 22.6591C497.144 22.8862 496.459 23.3324 495.749 23.7379C495.17 24.0705 494.574 24.3787 493.995 24.7032C493.905 24.7518 493.808 24.8492 493.767 24.9384C493.212 26.1713 492.682 27.4123 492.127 28.6372C491.703 29.57 491.246 30.4865 490.814 31.4193C490.349 32.4089 489.876 33.3985 489.46 34.4124C489.264 34.8829 489.052 35.3371 488.799 35.7751C488.269 36.7079 488.016 37.7461 487.689 38.7519C487.428 39.5631 487.078 40.3255 486.637 41.0718C486.327 41.599 486.156 42.2155 485.936 42.7995C485.348 44.3325 484.81 45.8818 484.174 47.3905C483.741 48.4206 483.195 49.4102 482.705 50.416C482.673 50.4809 482.615 50.5377 482.567 50.6107C482.387 50.416 482.412 50.2213 482.477 50.0266C482.958 48.5747 483.464 47.1228 483.937 45.6709C484.068 45.2572 484.1 44.8111 484.239 44.3974C484.467 43.6998 484.753 43.0185 484.997 42.3209C485.104 42.0127 485.152 41.6882 485.242 41.38C485.446 40.7068 485.65 40.0416 485.87 39.3765C486.711 36.8377 487.543 34.2988 488.391 31.76C488.75 30.6974 489.166 29.6511 489.525 28.5885C489.655 28.1991 489.721 27.7774 489.819 27.3718C489.859 27.2096 489.908 27.0555 489.949 26.9013C489.933 26.877 489.916 26.8608 489.9 26.8364C489.574 27.0311 489.199 27.169 488.938 27.4286C488.456 27.899 487.893 28.2316 487.322 28.556C486.931 28.775 486.572 29.0508 486.18 29.2698C485.715 29.5375 485.226 29.7565 484.834 30.1296C484.753 30.2107 484.622 30.2513 484.508 30.2919C483.472 30.6244 482.607 31.2328 481.767 31.8898C481.514 32.0845 481.278 32.3035 480.992 32.4332C480.478 32.6685 480.217 33.0821 480.119 33.5769C480.013 34.1528 479.72 34.6395 479.507 35.1586C479.018 36.3916 478.561 37.6326 478.055 38.8574C477.745 39.6036 477.37 40.3174 477.044 41.0555C476.807 41.599 476.612 42.1668 476.408 42.7265C476.277 43.0915 476.008 43.4159 476.065 43.8377C476.065 43.8621 476.049 43.8864 476.041 43.9107C475.159 45.606 474.695 47.4554 474.017 49.2236C473.887 49.5643 473.716 49.8969 473.561 50.2294C473.463 50.4484 473.373 50.6755 473.283 50.8946C473.275 50.9189 473.234 50.9432 473.177 51C473.096 50.5539 473.087 50.1483 473.185 49.7509C473.373 49.029 473.577 48.3152 473.805 47.6095C474.066 46.8227 474.401 46.0521 474.629 45.2572C475.004 43.9918 475.323 42.7021 475.673 41.4287C476.089 39.92 476.514 38.4113 476.946 36.9026C477.191 36.059 477.46 35.2316 477.713 34.3881C477.729 34.3232 477.729 34.2583 477.688 34.1366C477.305 34.4205 476.922 34.7125 476.53 34.9964C476.106 35.3128 475.722 35.7102 475.249 35.9211C473.822 36.57 472.655 37.6001 471.366 38.4518C470.567 38.9791 469.784 39.4982 469.066 40.1228C468.96 40.212 468.78 40.2282 468.666 40.3093C468.185 40.6419 467.712 40.9988 467.23 41.3394C467.002 41.5017 466.774 41.6801 466.529 41.8018C466.162 41.9883 465.77 42.0532 465.379 41.891C465.191 41.818 464.995 41.6963 464.881 41.5341C464.237 40.6824 464.147 39.7091 464.441 38.7276C464.718 37.7867 465.101 36.8782 465.452 35.9698C465.656 35.4425 465.941 34.9396 466.105 34.4043C466.431 33.3579 466.668 32.2872 467.01 31.249C467.483 29.789 468.136 28.4019 468.829 27.023C469.196 26.293 469.466 25.5062 469.776 24.7437C470.061 24.0299 470.322 23.2999 470.608 22.5861C470.681 22.4077 470.599 22.3266 470.469 22.2455C470.159 22.0508 469.833 22.0995 469.49 22.14C469.098 22.1806 468.699 22.1806 468.315 22.2455C468.03 22.2941 467.752 22.3996 467.483 22.4969C466.871 22.7159 466.276 22.9998 465.656 23.162C465.313 23.2513 464.922 23.1864 464.563 23.1458C464.253 23.1053 464.147 22.943 464.155 22.6267C464.163 22.3671 464.204 22.1076 464.261 21.848C464.334 21.4911 464.31 21.1667 464 20.899C464.326 20.461 464.767 20.2014 465.248 19.9986C465.876 19.7391 466.513 19.5119 467.141 19.2524C467.973 18.9198 468.797 18.571 469.621 18.2304C469.653 18.2141 469.686 18.206 469.718 18.1979C470.771 18.0276 471.709 17.4922 472.745 17.2327C473.308 17.0948 473.683 16.7054 473.977 16.1701C474.507 15.1724 475.159 14.2396 475.722 13.2581C476.138 12.5362 476.473 11.7738 476.897 11.0519C477.134 10.6544 477.452 10.3137 477.77 9.97306C477.86 9.87573 478.064 9.83517 478.21 9.85139C479.206 9.94873 479.711 10.7355 479.352 11.6602C479.197 12.0496 478.945 12.3902 478.741 12.7633C478.537 13.1365 478.341 13.5177 478.129 13.8908C478.023 14.0774 477.892 14.2558 477.778 14.4424C477.656 14.6452 477.517 14.8398 477.419 15.0507C477.378 15.1318 477.378 15.3103 477.427 15.3509C477.55 15.4401 477.729 15.5455 477.86 15.5131C478.724 15.3022 479.573 15.0345 480.437 14.8317C482.102 14.4505 483.774 14.0936 485.446 13.7367C485.65 13.6961 485.748 13.6069 485.821 13.4285C486.458 12.0171 487.135 10.6301 488.065 9.38905C488.35 9.01593 488.693 8.67526 489.019 8.33458C489.378 7.96146 489.819 7.93713 490.292 8.08313C490.871 8.26969 491.344 8.6347 491.613 9.15382C491.736 9.38905 491.678 9.7865 491.572 10.0623C491.042 11.5142 490.365 12.885 489.541 14.1909C488.84 15.3184 488.089 16.4215 487.51 17.6058C485.903 20.9071 484.361 24.2408 482.795 27.5665C482.444 28.3208 482.134 29.0914 481.775 29.935C481.979 29.8701 482.134 29.8457 482.273 29.7727C482.803 29.4888 483.333 29.1887 483.864 28.8886C484.182 28.7102 484.5 28.5074 484.826 28.3289C485.104 28.1748 485.397 28.0613 485.666 27.9071C485.944 27.753 486.213 27.5827 486.466 27.3961C486.759 27.1771 487.069 27.0311 487.428 26.9419C487.73 26.8608 488.008 26.6499 488.293 26.4958C489.011 26.1064 489.729 25.7171 490.447 25.3196C490.536 25.271 490.626 25.1736 490.667 25.0763C491.287 23.6244 491.907 22.1725 492.511 20.7205C493.261 18.9117 493.979 17.0786 494.738 15.2697C495.211 14.1342 495.7 12.9905 496.255 11.8873C496.81 10.7761 497.544 9.77028 498.327 8.81315C498.621 8.45625 499.289 8.49681 499.534 8.88615C499.673 9.09704 499.812 9.31605 499.958 9.51883C500.032 9.61617 500.13 9.69728 500.228 9.77028C500.358 9.86762 500.578 9.9244 500.611 10.038C500.684 10.2975 500.741 10.6139 500.66 10.8653C500.505 11.3925 500.293 11.9036 500.04 12.3902C499.273 13.8503 498.474 15.2941 497.886 16.8352C497.74 17.2165 497.478 17.549 497.299 17.9221C496.785 19.0009 496.296 20.0878 495.774 21.1585C495.447 21.8237 495.072 22.4726 494.697 23.1701C495.007 23.0079 495.276 22.8538 495.553 22.724C495.92 22.5537 496.296 22.3996 496.663 22.2373C496.695 22.2211 496.736 22.2211 496.761 22.2049C497.421 21.6858 498.221 21.4911 498.979 21.1748C499.118 21.118 499.249 21.0369 499.387 20.9801C499.738 20.8341 499.95 20.5989 500.048 20.2257C500.187 19.7147 500.407 19.5444 500.937 19.6093C501.361 19.658 501.769 19.8121 502.177 19.9418C502.259 19.9662 502.324 20.0878 502.365 20.1771C502.536 20.6151 502.504 21.045 502.316 21.4749C501.419 23.5189 500.529 25.5711 499.64 27.6232C499.477 28.0045 499.371 28.4019 499.224 28.7832C499.143 28.9941 499.183 29.2049 499.379 29.2779C499.542 29.3347 499.82 29.3428 499.934 29.2455C500.529 28.7588 501.158 28.2721 501.655 27.6962C502.308 26.9338 503.164 26.3741 503.703 25.5062C504.225 24.6626 504.837 23.8758 505.367 23.0404C505.93 22.1481 506.476 21.2478 506.982 20.3231C507.251 19.8364 507.659 19.6904 508.165 19.6985C508.352 19.6985 508.548 19.7472 508.736 19.7958C509.225 19.9337 509.437 20.2906 509.331 20.7935C509.291 20.9639 509.233 21.1342 509.176 21.2964C508.581 22.8376 507.969 24.3787 507.382 25.928C507.178 26.4714 507.039 27.0311 506.86 27.5827C506.811 27.7368 506.86 27.8098 506.998 27.8666C507.219 27.9477 507.398 27.8909 507.561 27.7449C508.034 27.3312 508.532 26.9419 508.972 26.4958C510.539 24.9222 512.023 23.2756 513.231 21.41C513.639 20.7854 513.973 20.1122 514.34 19.4714C514.405 19.3578 514.503 19.2686 514.577 19.1632C514.666 19.0253 514.781 18.8955 514.838 18.7414C515.058 18.1655 515.58 17.9302 516.102 18.2547C516.437 18.4656 516.714 18.7738 516.975 19.082C517.146 19.2848 517.065 19.5525 516.942 19.7796C516.526 20.5259 516.249 21.3208 516.037 22.14C515.857 22.8214 515.596 23.4865 515.384 24.1678C515.327 24.3463 515.303 24.5247 515.27 24.7113C515.246 24.8735 515.221 25.0357 515.409 25.125C515.58 25.2061 515.711 25.125 515.825 24.9952C516.086 24.7113 516.355 24.4355 516.624 24.1516C517.864 22.8619 519.08 21.556 520.107 20.0878C520.491 19.5444 520.842 18.9766 521.184 18.4007C521.38 18.0681 521.69 17.9546 522.024 17.8816C522.065 17.8735 522.139 17.8816 522.171 17.914C522.644 18.4007 523.101 18.9117 523.126 19.6417C523.134 19.7553 523.093 19.8851 523.044 19.9905C521.812 22.5537 520.45 25.052 518.884 27.4367C518.5 28.0288 518.256 28.7102 517.905 29.3266C517.13 30.7136 516.331 32.0845 515.564 33.4796C515.311 33.9419 515.091 34.4205 514.87 34.8991C514.83 34.9802 514.862 35.0937 514.854 35.1911C514.96 35.1749 515.066 35.1667 515.172 35.1424C515.213 35.1343 515.246 35.0937 515.278 35.0613C515.613 34.6882 515.955 34.3151 516.29 33.9419C517.146 32.9686 517.97 31.9466 518.868 31.0138C520.222 29.6105 521.641 28.264 523.036 26.9013C523.933 26.0172 524.831 25.1412 525.728 24.2652C527.955 22.1076 530.288 20.0635 532.866 18.3277C534.041 17.5409 535.305 16.8433 536.708 16.4945C536.814 16.4702 536.912 16.454 537.018 16.4297C537.336 16.3729 537.638 16.5513 537.711 16.8596C537.923 17.7194 537.907 18.571 537.589 19.3903C537.507 19.5931 537.336 19.7958 537.157 19.9256C536.675 20.2663 536.161 20.5583 535.672 20.8909C534.465 21.6939 533.282 22.5456 532.058 23.3161C530.835 24.0867 529.766 25.0601 528.648 25.9523C528.404 26.147 528.241 26.4309 528.053 26.6904C527.996 26.7797 527.955 26.9906 527.971 27.0068C528.126 27.0798 528.298 27.1285 528.469 27.1528C528.526 27.1609 528.591 27.096 528.648 27.0555C529.195 26.6904 529.741 26.3254 530.288 25.9685C531.732 25.0114 533.176 24.0462 534.62 23.0809C534.873 22.9106 535.338 22.9592 535.582 23.235C535.778 23.454 535.933 23.7217 536.039 23.9894C536.626 25.4819 537.556 26.731 538.756 27.7855C538.813 27.8341 538.87 27.899 538.902 27.9639C539.4 28.8805 540.142 29.4726 541.178 29.716C542.875 30.1134 544.58 30.1783 546.301 29.9999C547.345 29.8863 548.373 29.6916 549.409 29.5375C549.466 29.5294 549.548 29.5051 549.589 29.5294C549.899 29.7322 550.217 29.6105 550.535 29.57C550.682 29.5537 550.845 29.6105 551 29.6348C550.967 29.8133 551 30.0323 550.902 30.154C550.486 30.6488 550.054 31.1354 549.572 31.5734C549.385 31.7438 549.067 31.8249 548.806 31.8655C547.68 32.0277 546.546 32.125 545.428 32.3035C543.993 32.5306 542.565 32.8307 541.097 32.7171C540.126 32.6441 539.188 32.4819 538.364 31.9303C538.34 31.9141 538.315 31.8979 538.299 31.8898C537.516 31.8168 537.108 31.2084 536.667 30.6974C535.925 29.8295 535.264 28.8967 534.563 27.9964C534.367 27.7449 534.171 27.5016 533.959 27.2582C533.665 26.9176 533.225 26.8121 532.809 27.0068C532.629 27.0879 532.466 27.2177 532.295 27.3231C532.156 27.4123 532.034 27.5584 531.887 27.607C531.079 27.8585 530.533 28.556 529.733 28.8237C529.456 28.9129 529.236 29.1563 528.967 29.2779C528.363 29.5618 527.759 29.8538 527.131 30.0647C526.381 30.3162 525.589 30.3243 524.798 30.227C524.464 30.1864 524.243 30.0161 524.129 29.7078C524.015 29.4158 523.933 29.1076 523.835 28.8075C523.664 28.2884 523.403 28.1991 523.012 28.5804C522.277 29.2942 521.559 30.0404 520.866 30.7948C519.806 31.9385 518.753 33.0984 517.717 34.2664C516.102 36.0752 514.601 37.9651 513.255 39.9767C512.994 40.3742 512.594 40.6824 512.26 41.0312C512.203 41.0961 512.138 41.161 512.097 41.234C511.346 42.6454 510.424 43.9513 509.413 45.1923C509.144 45.5249 508.964 45.9223 508.76 46.2954C508.344 47.0579 507.953 47.8366 507.537 48.5991C507.39 48.8748 506.925 49.1425 506.811 49.0452C506.599 48.8586 506.648 48.5828 506.656 48.3314C506.705 47.2526 507.129 46.2711 507.512 45.2896C508.516 42.7589 509.454 40.212 510.555 37.7218C511.452 35.6859 512.529 33.7311 513.549 31.7438C514.169 30.5433 514.83 29.3591 515.466 28.1748C515.547 28.0937 515.588 27.9964 515.645 27.8828ZM484.696 16.1782C484.541 16.1701 484.426 16.1295 484.329 16.162C483.913 16.2999 483.505 16.454 483.097 16.6162C482.632 16.8028 482.167 16.9893 481.71 17.184C481.31 17.3543 480.927 17.5977 480.503 17.7031C479.793 17.8816 479.181 18.2141 478.586 18.6278C477.941 19.0739 477.28 19.4957 476.505 19.6823C476.032 19.7958 475.567 19.9256 475.111 20.0797C474.76 20.2014 474.499 20.4366 474.36 20.8016C473.903 22.0183 473.471 23.235 472.965 24.4355C471.448 28.0369 470.061 31.6789 468.886 35.402C468.74 35.8724 468.601 36.3429 468.446 36.8052C468.372 37.0242 468.421 37.2432 468.617 37.3325C468.731 37.3892 468.927 37.3162 469.074 37.2595C469.376 37.1297 469.669 36.9756 469.963 36.8296C469.996 36.8133 470.028 36.7971 470.045 36.7728C470.387 36.3186 470.901 36.1563 471.399 35.9454C471.733 35.7994 472.035 35.5804 472.345 35.3858C472.492 35.2965 472.623 35.1667 472.777 35.0937C473.479 34.7693 474.156 34.4286 474.743 33.9176C474.939 33.7473 475.094 33.5283 475.404 33.5445C475.494 33.5445 475.592 33.4796 475.665 33.4309C476.163 33.0984 476.652 32.7577 477.158 32.4332C477.452 32.2467 477.77 32.0763 478.08 31.9222C478.471 31.7276 478.79 31.4761 478.904 31.03C478.994 30.6893 479.116 30.3649 479.246 30.0404C479.858 28.4912 480.503 26.9581 481.09 25.4007C481.376 24.6383 481.539 23.8353 481.824 23.0728C482.697 20.7773 483.521 18.4494 484.696 16.1782Z" fill="black"/>
<path d="M1355.8 28.3987C1357.2 27.0284 1358.6 25.6637 1360 24.2877C1361.18 23.1325 1362.34 21.9604 1363.54 20.8279C1363.74 20.641 1364.08 20.5164 1364.35 20.5051C1365.29 20.4655 1366.23 20.4881 1367.32 20.4881C1363.93 23.812 1360.64 27.051 1357.32 30.307C1360.81 33.8121 1364.27 37.2889 1367.83 40.8563C1366.66 40.8563 1365.61 40.8733 1364.56 40.8393C1364.4 40.8336 1364.23 40.6241 1364.09 40.4882C1361.42 37.8438 1358.75 35.1937 1356.08 32.5437C1355.99 32.4531 1355.89 32.3738 1355.72 32.2152C1355.72 35.1201 1355.72 37.9401 1355.72 40.9016C1354.86 40.9016 1354.06 40.9072 1353.26 40.9016C1352.34 40.8959 1351.42 40.9072 1350.51 40.8506C1350.22 40.8336 1349.86 40.6977 1349.66 40.4939C1347.08 37.9627 1344.52 35.4146 1341.95 32.8664C1341.75 32.6626 1341.58 32.4304 1341.4 32.2152C1341.34 32.2492 1341.28 32.2832 1341.23 32.3115C1341.23 35.1371 1341.23 37.9627 1341.23 40.828C1340.37 40.828 1339.58 40.828 1338.76 40.828C1338.76 34.0669 1338.76 27.3115 1338.76 20.5221C1339.55 20.5221 1340.35 20.5221 1341.21 20.5221C1341.21 23.1439 1341.21 25.7543 1341.21 28.5063C1342.3 27.4531 1343.28 26.5017 1344.25 25.5448C1345.87 23.9536 1347.49 22.3511 1349.12 20.7656C1349.26 20.6297 1349.48 20.4995 1349.68 20.4938C1350.69 20.4655 1351.7 20.4825 1352.85 20.4825C1349.47 23.8064 1346.17 27.0453 1342.91 30.256C1346.32 33.6762 1349.71 37.068 1353.14 40.5052C1353.14 33.8404 1353.14 27.2039 1353.14 20.5221C1354 20.5221 1354.8 20.5221 1355.66 20.5221C1355.66 23.1156 1355.66 25.7203 1355.66 28.3307C1355.7 28.3647 1355.76 28.3817 1355.8 28.3987Z" fill="black"/>
<path d="M1407.75 42.4361C1401.99 42.4474 1397.17 37.6796 1397.17 31.9774C1397.17 26.2979 1401.95 21.5697 1407.71 21.547C1413.51 21.5244 1418.33 26.2752 1418.33 32.017C1418.32 37.6852 1413.5 42.4248 1407.75 42.4361ZM1404.95 24.5085C1401.98 25.4712 1398.9 29.0272 1399.83 33.6026C1400.67 37.7249 1404.74 40.5618 1408.89 39.9389C1412.92 39.333 1416.15 35.6184 1415.79 31.2469C1415.53 28.1439 1412.4 24.3839 1409.98 24.3783C1411.54 26.6999 1411.52 28.5176 1409.91 29.8879C1408.5 31.0941 1406.43 31.0714 1405.08 29.8483C1403.86 28.7441 1403.23 26.5867 1404.95 24.5085Z" fill="black"/>
<path d="M1373.54 40.879C1375.11 33.3704 1376.65 25.9469 1378.2 18.5176C1378.24 18.5063 1378.28 18.495 1378.32 18.4836C1380.68 24.333 1383.05 30.1768 1385.48 36.1847C1387.92 30.1994 1390.29 24.35 1392.67 18.5063C1392.71 18.5063 1392.75 18.5063 1392.78 18.5006C1394.33 25.9299 1395.88 33.3591 1397.44 40.8393C1396.57 40.8393 1395.79 40.8393 1394.96 40.8393C1393.99 36.1338 1393.02 31.4395 1392.04 26.7453C1392 26.7396 1391.96 26.734 1391.92 26.7283C1389.79 31.9661 1387.66 37.1983 1385.47 42.5777C1383.3 37.204 1381.18 31.9718 1379.06 26.7396C1379.03 26.7396 1378.99 26.734 1378.95 26.734C1378.77 27.5777 1378.59 28.4157 1378.41 29.2594C1377.64 32.9854 1376.86 36.7113 1376.11 40.4373C1376.04 40.7827 1375.9 40.896 1375.57 40.8846C1374.92 40.8676 1374.26 40.879 1373.54 40.879Z" fill="black"/>
<path d="M1328.02 20.5447C1328.9 20.5447 1329.66 20.5447 1330.47 20.5447C1330.47 27.7701 1330.47 34.9785 1330.47 42.3568C1325.11 36.6773 1319.85 31.094 1314.47 25.3975C1314.47 30.6071 1314.47 35.6637 1314.47 40.777C1313.61 40.777 1312.82 40.777 1312 40.777C1312 33.6818 1312 26.615 1312 19.3839C1317.36 25.0238 1322.64 30.5787 1328.02 36.2413C1328.02 30.9411 1328.02 25.7712 1328.02 20.5447Z" fill="black"/>
<path d="M1428.35 40.8336C1428.35 34.0442 1428.35 27.3058 1428.35 20.5051C1430.25 20.5051 1432.14 20.5051 1434.18 20.5051C1433.72 19.9445 1433.34 19.5085 1433.01 19.0442C1432.88 18.863 1432.77 18.5572 1432.83 18.376C1433.54 16.2809 1434.29 14.1971 1435.03 12.1133C1435.04 12.0849 1435.08 12.0623 1435.15 12C1435.74 12.7248 1436.32 13.4439 1436.91 14.1631C1437.28 14.6161 1437.64 15.0861 1438.03 15.5278C1438.25 15.7826 1438.24 15.9694 1438.03 16.2356C1437.08 17.487 1436.14 18.7554 1435.2 20.0181C1435.1 20.1427 1435.02 20.2843 1434.9 20.4825C1436.19 20.4825 1437.42 20.4825 1438.69 20.4825C1438.69 21.2979 1438.69 22.0736 1438.69 22.9004C1436.09 22.9004 1433.49 22.9004 1430.85 22.9004C1430.84 23.1325 1430.82 23.3081 1430.81 23.4893C1430.81 24.9899 1430.83 26.4961 1430.8 27.9967C1430.79 28.495 1430.95 28.6082 1431.43 28.6026C1433.55 28.5799 1435.69 28.5912 1437.82 28.5912C1438.03 28.5912 1438.25 28.5912 1438.51 28.5912C1438.51 29.4066 1438.51 30.1654 1438.51 31.0035C1438.27 31.0035 1438.06 31.0035 1437.84 31.0035C1435.69 31.0035 1433.54 31.0148 1431.39 30.9921C1430.93 30.9865 1430.8 31.128 1430.8 31.581C1430.82 33.6875 1430.82 35.794 1430.8 37.9004C1430.79 38.3704 1430.95 38.478 1431.4 38.478C1433.57 38.4554 1435.73 38.4667 1437.9 38.4667C1438.16 38.4667 1438.41 38.4667 1438.7 38.4667C1438.7 39.2821 1438.7 40.0409 1438.7 40.8393C1435.26 40.8336 1431.84 40.8336 1428.35 40.8336Z" fill="black"/>
<path d="M1420.04 20.5221C1420.88 20.5221 1421.66 20.5221 1422.5 20.5221C1422.5 26.4961 1422.5 32.4417 1422.5 38.4553C1424.14 38.4553 1425.73 38.4553 1427.34 38.4553C1427.34 39.2877 1427.34 40.0465 1427.34 40.8393C1424.9 40.8393 1422.49 40.8393 1420.04 40.8393C1420.04 34.0612 1420.04 27.3115 1420.04 20.5221Z" fill="black"/>
<path d="M1333.42 20.5165C1334.23 20.5165 1335.02 20.5165 1335.83 20.5165C1335.83 27.2889 1335.83 34.0386 1335.83 40.8337C1335.04 40.8337 1334.24 40.8337 1333.42 40.8337C1333.42 34.0669 1333.42 27.3172 1333.42 20.5165Z" fill="black"/>
<g clip-path="url(#clip0_1146_18)">
<path d="M44.8006 28.3987C46.2026 27.0284 47.5988 25.6637 49.0008 24.2877C50.1814 23.1325 51.3449 21.9604 52.5425 20.8279C52.7412 20.641 53.076 20.5164 53.3542 20.5051C54.2907 20.4655 55.2272 20.4881 56.317 20.4881C52.9342 23.812 49.6365 27.051 46.3218 30.307C49.8124 33.8121 53.269 37.2889 56.8278 40.8563C55.6642 40.8563 54.6085 40.8733 53.5585 40.8393C53.3996 40.8336 53.2293 40.6241 53.0931 40.4882C50.4197 37.8438 47.7521 35.1937 45.0788 32.5437C44.9879 32.4531 44.8915 32.3738 44.7212 32.2152C44.7212 35.1201 44.7212 37.9401 44.7212 40.9016C43.8585 40.9016 43.0638 40.9072 42.2635 40.9016C41.344 40.8959 40.4246 40.9072 39.5107 40.8506C39.2156 40.8336 38.8637 40.6977 38.6594 40.4939C36.0769 37.9627 33.517 35.4146 30.9516 32.8664C30.7472 32.6626 30.5769 32.4304 30.3953 32.2152C30.3386 32.2492 30.2818 32.2832 30.225 32.3115C30.225 35.1371 30.225 37.9627 30.225 40.828C29.368 40.828 28.5847 40.828 27.7617 40.828C27.7617 34.0669 27.7617 27.3115 27.7617 20.5221C28.5507 20.5221 29.351 20.5221 30.2137 20.5221C30.2137 23.1439 30.2137 25.7543 30.2137 28.5063C31.2978 27.4531 32.2797 26.5017 33.2503 25.5448C34.8736 23.9536 36.4912 22.3511 38.1202 20.7656C38.2621 20.6297 38.4834 20.4995 38.6764 20.4938C39.6867 20.4655 40.697 20.4825 41.8549 20.4825C38.4721 23.8064 35.1744 27.0453 31.9051 30.256C35.322 33.6762 38.7105 37.068 42.1443 40.5052C42.1443 33.8404 42.1443 27.2039 42.1443 20.5221C43.0014 20.5221 43.796 20.5221 44.6588 20.5221C44.6588 23.1156 44.6588 25.7203 44.6588 28.3307C44.7042 28.3647 44.7552 28.3817 44.8006 28.3987Z" fill="black"/>
<path d="M96.7515 42.4361C90.9905 42.4474 86.166 37.6796 86.166 31.9774C86.166 26.2979 90.9451 21.5697 96.7118 21.547C102.512 21.5244 107.326 26.2752 107.326 32.017C107.32 37.6852 102.501 42.4248 96.7515 42.4361ZM93.9533 24.5085C90.9848 25.4712 87.9028 29.0272 88.828 33.6026C89.668 37.7249 93.7376 40.5618 97.8867 39.9389C101.922 39.333 105.152 35.6184 104.789 31.2469C104.533 28.1439 101.4 24.3839 98.9821 24.3783C100.543 26.6999 100.52 28.5176 98.9083 29.8879C97.495 31.0941 95.4347 31.0714 94.0782 29.8483C92.8578 28.7441 92.2278 26.5867 93.9533 24.5085Z" fill="black"/>
<path d="M62.543 40.879C64.1095 33.3704 65.6533 25.9469 67.2029 18.5176C67.2426 18.5063 67.2766 18.495 67.3164 18.4836C69.6832 24.333 72.05 30.1768 74.485 36.1847C76.9199 30.1994 79.2924 24.35 81.6706 18.5063C81.7103 18.5063 81.7501 18.5063 81.7841 18.5006C83.3336 25.9299 84.8831 33.3591 86.4383 40.8393C85.5699 40.8393 84.7923 40.8393 83.9637 40.8393C82.9874 36.1338 82.0168 31.4395 81.0406 26.7453C81.0009 26.7396 80.9611 26.734 80.9157 26.7283C78.7873 31.9661 76.6588 37.1983 74.4736 42.5777C72.2998 37.204 70.177 31.9718 68.0599 26.7396C68.0258 26.7396 67.9861 26.734 67.9521 26.734C67.7704 27.5777 67.5888 28.4157 67.4129 29.2594C66.6409 32.9854 65.8633 36.7113 65.1085 40.4373C65.0403 40.7827 64.9041 40.896 64.5692 40.8846C63.9165 40.8676 63.2581 40.879 62.543 40.879Z" fill="black"/>
<path d="M17.0173 20.5447C17.897 20.5447 18.6576 20.5447 19.4692 20.5447C19.4692 27.7701 19.4692 34.9785 19.4692 42.3568C14.1112 36.6773 8.84971 31.094 3.47467 25.3975C3.47467 30.6071 3.47467 35.6637 3.47467 40.777C2.61194 40.777 1.823 40.777 1 40.777C1 33.6818 1 26.615 1 19.3839C6.35801 25.0238 11.6366 30.5787 17.0173 36.2413C17.0173 30.9411 17.0173 25.7712 17.0173 20.5447Z" fill="black"/>
<path d="M117.355 40.8336C117.355 34.0442 117.355 27.3058 117.355 20.5051C119.251 20.5051 121.135 20.5051 123.178 20.5051C122.724 19.9445 122.344 19.5085 122.015 19.0442C121.884 18.863 121.765 18.5572 121.828 18.376C122.543 16.2809 123.292 14.1971 124.03 12.1133C124.041 12.0849 124.081 12.0623 124.149 12C124.739 12.7248 125.324 13.4439 125.914 14.1631C126.283 14.6161 126.635 15.0861 127.027 15.5278C127.254 15.7826 127.237 15.9694 127.032 16.2356C126.079 17.487 125.142 18.7554 124.2 20.0181C124.104 20.1427 124.024 20.2843 123.899 20.4825C125.193 20.4825 126.419 20.4825 127.691 20.4825C127.691 21.2979 127.691 22.0736 127.691 22.9004C125.091 22.9004 122.492 22.9004 119.847 22.9004C119.835 23.1325 119.818 23.3081 119.813 23.4893C119.813 24.9899 119.83 26.4961 119.801 27.9967C119.79 28.495 119.955 28.6082 120.426 28.6026C122.554 28.5799 124.688 28.5912 126.817 28.5912C127.032 28.5912 127.254 28.5912 127.509 28.5912C127.509 29.4066 127.509 30.1654 127.509 31.0035C127.271 31.0035 127.055 31.0035 126.839 31.0035C124.688 31.0035 122.543 31.0148 120.392 30.9921C119.932 30.9865 119.801 31.128 119.801 31.581C119.824 33.6875 119.824 35.794 119.796 37.9004C119.79 38.3704 119.949 38.478 120.397 38.478C122.565 38.4554 124.734 38.4667 126.902 38.4667C127.157 38.4667 127.407 38.4667 127.702 38.4667C127.702 39.2821 127.702 40.0409 127.702 40.8393C124.263 40.8336 120.84 40.8336 117.355 40.8336Z" fill="black"/>
<path d="M109.04 20.5221C109.88 20.5221 110.663 20.5221 111.503 20.5221C111.503 26.4961 111.503 32.4417 111.503 38.4553C113.144 38.4553 114.727 38.4553 116.345 38.4553C116.345 39.2877 116.345 40.0465 116.345 40.8393C113.899 40.8393 111.486 40.8393 109.04 40.8393C109.04 34.0612 109.04 27.3115 109.04 20.5221Z" fill="black"/>
<path d="M22.415 20.5165C23.2324 20.5165 24.0156 20.5165 24.833 20.5165C24.833 27.2889 24.833 34.0386 24.833 40.8337C24.0383 40.8337 23.2437 40.8337 22.415 40.8337C22.415 34.0669 22.415 27.3172 22.415 20.5165Z" fill="black"/>
</g>
<path d="M291.535 35.2911C289.951 37.4937 287.872 38.6689 285.178 38.6337C281.369 38.5915 278.166 35.453 278.103 31.6248C278.047 28.3878 278.082 25.1507 278.089 21.9207C278.089 21.1115 278.515 20.6189 279.171 20.6048C279.861 20.5907 280.322 21.0904 280.329 21.9419C280.343 24.8974 280.329 27.8459 280.343 30.8015C280.343 31.3363 280.343 31.8922 280.447 32.413C280.957 34.9182 283.315 36.5789 285.988 36.3467C288.353 36.1356 290.363 33.9611 290.391 31.4982C290.426 28.4159 290.405 25.3337 290.405 22.2515C290.405 21.9982 290.384 21.7237 290.454 21.4844C290.621 20.9004 291.012 20.5626 291.64 20.6119C292.261 20.6611 292.603 21.0411 292.672 21.6533C292.7 21.8785 292.686 22.1178 292.686 22.343C292.686 25.2704 292.679 28.1978 292.686 31.1252C292.693 34.0737 294.864 36.3467 297.676 36.3678C300.529 36.3889 302.734 34.2074 302.776 31.2378C302.818 28.3104 302.783 25.383 302.783 22.4556C302.783 22.2233 302.776 21.9911 302.79 21.7659C302.839 21.0059 303.251 20.5837 303.935 20.6048C304.556 20.6259 305.002 21.0693 305.002 21.7659C305.009 25.1789 305.128 28.6059 304.953 32.0119C304.793 35.0307 303.055 37.1489 300.25 38.1763C297.278 39.267 294.612 38.5352 292.379 36.2833C292.086 35.9878 291.842 35.657 291.535 35.2911Z" fill="black"/>
<path d="M217.515 23.6096C218.889 22.1881 220.348 21.3015 222.078 20.8722C225.658 19.9926 229.272 21.3296 231.498 24.3767C233.571 27.2056 233.731 31.2448 231.896 34.2567C229.97 37.4233 226.46 39.0841 222.86 38.5281C218.373 37.8456 215.233 34.1722 215.233 29.6052C215.233 24.7989 215.233 19.9996 215.24 15.1933C215.24 14.9893 215.219 14.7782 215.254 14.5811C215.352 13.9619 215.652 13.5256 216.349 13.5185C217.04 13.5115 217.368 13.9267 217.494 14.5389C217.543 14.7852 217.522 15.0526 217.522 15.3059C217.515 18.0081 217.515 20.7033 217.515 23.6096ZM217.501 29.6122C217.501 33.3559 220.438 36.3326 224.144 36.3396C227.891 36.3467 230.898 33.3559 230.898 29.6263C230.898 25.8896 227.898 22.8989 224.157 22.8989C220.445 22.9059 217.501 25.8756 217.501 29.6122Z" fill="black"/>
<path d="M274.111 29.5771C274.104 34.6085 270.204 38.5071 265.201 38.5071C260.177 38.5 256.248 34.5452 256.269 29.4996C256.29 24.5245 260.253 20.5908 265.243 20.6048C270.218 20.6048 274.125 24.5596 274.111 29.5771ZM265.222 36.2341C268.864 36.2271 271.871 33.2293 271.892 29.5771C271.913 25.9319 268.85 22.8637 265.194 22.8708C261.523 22.8778 258.558 25.8474 258.551 29.5278C258.544 33.2645 261.502 36.2411 265.222 36.2341Z" fill="black"/>
<path d="M345.731 34.0807C345.103 34.7915 344.65 35.3826 344.113 35.8822C341.454 38.3804 338.328 39.1474 334.888 38.0285C331.678 36.98 329.613 34.6789 328.978 31.3433C328.001 26.1781 331.392 21.5196 336.507 20.7948C341.649 20.063 346.276 23.6307 346.666 28.8944C346.911 32.2159 346.764 35.5655 346.708 38.9011C346.68 40.5337 345.913 41.9059 344.748 43.0459C342.843 44.9037 340.533 45.7974 337.895 45.8818C337.505 45.8959 337.044 45.9241 337.03 45.3822C337.016 44.8404 337.47 44.8404 337.861 44.8333C340.031 44.7911 341.984 44.1296 343.645 42.7011C345.02 41.5189 345.78 40.0481 345.738 38.1904C345.711 36.8885 345.731 35.5867 345.731 34.0807ZM337.721 37.4655C342.103 37.5078 345.683 34.0455 345.731 29.7389C345.78 25.3618 342.298 21.8292 337.881 21.7659C333.465 21.7026 329.878 25.1718 329.843 29.5418C329.808 33.933 333.276 37.4233 337.721 37.4655Z" fill="black"/>
<path d="M239.669 32.5818C239.669 34.2004 239.676 35.8189 239.662 37.4304C239.655 38.2396 239.23 38.7252 238.56 38.7322C237.939 38.7393 237.429 38.2607 237.429 37.5289C237.429 34.0385 237.325 30.5411 237.52 27.0648C237.736 23.2296 241.176 20.4641 245.217 20.6048C248.852 20.7315 251.999 23.9263 252.097 27.5926C252.118 28.4793 251.706 29.0422 251.008 29.0704C250.296 29.0985 249.871 28.5989 249.815 27.6841C249.64 24.9115 247.359 22.7793 244.644 22.8567C241.874 22.9341 239.711 25.1085 239.669 27.8881C239.648 29.4504 239.669 31.0196 239.669 32.5818Z" fill="black"/>
<path d="M359.708 38.5C354.844 38.5 350.818 34.4537 350.825 29.5629C350.832 24.6018 354.879 20.6118 359.882 20.64C364.802 20.6681 368.619 24.5666 368.605 29.57C368.591 34.4396 364.544 38.507 359.708 38.5ZM359.68 37.4092C363.985 37.4163 367.53 33.9048 367.53 29.6263C367.537 25.2703 364.174 21.78 359.959 21.7729C355.654 21.7589 351.935 25.3407 351.9 29.5278C351.865 33.7852 355.431 37.4022 359.68 37.4092Z" fill="black"/>
<path d="M315.281 27.8459C315.134 27.6489 315.029 27.5011 314.932 27.3533C314.373 26.5441 314.234 25.6855 314.757 24.827C315.288 23.9615 316.146 23.7363 317.095 23.8559C318.065 23.9826 318.686 24.5526 318.86 25.5166C318.937 25.9178 318.916 26.6989 318.832 26.72C318.093 26.8607 318.295 26.1711 318.169 25.7911C317.974 25.1789 317.667 24.7144 316.99 24.6229C316.369 24.5385 315.797 24.6652 315.434 25.2281C315.043 25.8333 315.211 26.4385 315.615 26.9452C316.676 28.2541 317.779 29.5348 318.972 30.9633C319.028 30.5763 319.028 30.3441 319.104 30.147C319.181 29.9711 319.356 29.8304 319.481 29.6755C319.607 29.8444 319.739 29.9992 319.851 30.1752C319.886 30.2315 319.872 30.33 319.851 30.4004C319.635 31.3011 319.697 32.1104 320.493 32.7507C320.584 32.8211 320.5 33.1026 320.5 33.2785C320.298 33.2574 320.06 33.2996 319.907 33.2081C319.697 33.0815 319.551 32.8492 319.383 32.6592C317.458 33.8485 315.406 33.947 314.401 32.7155C312.866 30.8437 313.906 29.2604 315.281 27.8459ZM318.783 31.9555C317.793 30.8015 316.83 29.6755 315.874 28.5566C314.792 29.2885 314.29 30.3652 314.513 31.4066C314.687 32.2229 315.301 32.61 316.034 32.7366C317.046 32.9196 318.03 32.8985 318.783 31.9555Z" fill="black"/>
<g clip-path="url(#clip1_1146_18)">
<path d="M703.376 42.5852C704.432 43.637 705.532 44.5333 706.764 45.2518C708.752 46.4148 710.878 47.1037 713.188 46.9556C716.224 46.763 718.622 45.4667 720.06 42.6518C720.793 41.2148 720.94 39.6741 720.764 38.0815C720.441 35.1852 718.857 33.0963 716.635 31.4074C714.978 30.1481 713.181 29.1259 711.414 28.037C709.808 27.0444 708.216 26.0148 706.867 24.6667C705.4 23.2074 704.352 21.5111 704.007 19.4296C703.648 17.2444 704.132 15.237 705.378 13.4296C706.882 11.2518 708.994 9.97037 711.524 9.36296C714.134 8.73333 716.716 8.97777 719.246 9.8C720.214 10.1185 721.145 10.5556 722.091 10.9407C722.15 10.963 722.208 11.0074 722.289 11.0518C721.981 11.7852 721.68 12.5111 721.372 13.2593C720.947 12.9852 720.558 12.7185 720.148 12.4741C717.999 11.2 715.696 10.4815 713.188 10.5259C711.436 10.563 709.771 10.963 708.312 12C706.42 13.3407 705.584 15.2 705.818 17.5333C706.046 19.8148 707.204 21.563 708.898 23.0074C710.358 24.2593 711.978 25.2667 713.599 26.2741C715.52 27.4667 717.464 28.637 719.209 30.0963C720.962 31.563 722.326 33.3037 723.015 35.5333C724.13 39.1407 722.971 42.963 720.008 45.4518C718.197 46.9704 716.114 47.837 713.79 48.1259C710.475 48.5407 707.388 47.7556 704.462 46.237C703.868 45.9259 703.296 45.5704 702.724 45.2222C702.65 45.1778 702.562 45.0518 702.584 44.9926C702.826 44.1926 703.098 43.4074 703.376 42.5852Z" fill="black"/>
<path d="M763.011 22.7704C761.009 28.6445 759.007 34.5185 756.991 40.4222C756.543 40.4222 756.023 40.4222 755.561 40.4222C753.573 34.6963 751.593 28.9852 749.613 23.2741C749.591 23.2741 749.569 23.2741 749.547 23.2741C748.616 28.9778 747.685 34.6815 746.746 40.4371C746.68 40.4371 746.526 40.4371 746.379 40.4371C746.24 40.4371 746.093 40.4371 745.991 40.4371C747.061 33.7926 748.132 27.1704 749.203 20.5037C749.628 20.5037 750.141 20.5037 750.633 20.5037C752.679 26.4741 754.717 32.4445 756.763 38.4148C756.785 38.4148 756.815 38.4148 756.837 38.4222C758.883 32.4593 760.929 26.4963 762.997 20.4889C762.975 20.4889 763.033 20.4815 763.085 20.4815C763.598 20.4815 764.119 20.4815 764.588 20.4815C765.571 27.1408 766.553 33.7704 767.536 40.4148C766.942 40.4148 766.304 40.4148 765.71 40.4148C764.837 34.526 763.965 28.6519 763.092 22.7778C763.063 22.7704 763.041 22.7704 763.011 22.7704Z" fill="black"/>
<path d="M736.875 21.0667C736.714 21.5037 736.56 21.9408 736.42 22.3259C735.753 22.0148 735.122 21.6667 734.448 21.4297C733.311 21.0297 732.138 20.8963 730.957 21.3037C728.823 22.0445 727.987 24.3111 728.889 26.1556C729.278 26.9556 729.96 27.4889 730.7 27.9334C731.83 28.6 733.003 29.2 734.132 29.8667C734.814 30.2667 735.526 30.6667 736.098 31.2074C738.914 33.8889 738.144 38.4297 734.624 40.0593C733.01 40.8074 731.331 40.8371 729.63 40.4445C728.662 40.2222 727.738 39.9037 726.894 39.3704C726.814 39.3185 726.733 39.2741 726.638 39.2148C726.806 38.6741 726.968 38.1408 727.144 37.563C727.342 37.7482 727.51 37.9185 727.686 38.0667C729.292 39.4 731.111 39.9852 733.142 39.4148C736.208 38.5482 736.765 35.1408 735.335 33.1852C734.778 32.4297 734.022 31.9259 733.223 31.4741C732.138 30.8593 731.03 30.2889 729.945 29.6741C729.182 29.2445 728.478 28.7334 727.87 28.0889C726.352 26.4815 726.447 23.5185 728.112 21.8445C729.131 20.8297 730.385 20.3185 731.778 20.1704C733.458 19.9852 735.078 20.2667 736.626 20.9408C736.706 20.9704 736.78 21.0148 736.875 21.0667Z" fill="black"/>
<path d="M672.056 21.3852C672.056 22.5482 672.056 23.6963 672.056 24.8444C672.056 26.4 672.056 27.9556 672.041 29.5185C672.041 29.7556 672.093 29.837 672.342 29.8296C674.278 29.8222 676.207 29.8296 678.143 29.8222C678.531 29.8222 678.92 29.7704 679.331 29.7407C679.331 30.0593 679.331 30.3704 679.331 30.6519C677.292 30.5037 675.261 30.6148 673.237 30.5778C672.855 30.5704 672.474 30.5778 672.078 30.5778C672.078 33.5482 672.078 36.4815 672.078 39.4741C674.491 39.4296 676.903 39.5407 679.345 39.4074C679.345 39.6889 679.353 39.9852 679.338 40.2815C679.338 40.3333 679.257 40.3926 679.199 40.4222C679.155 40.4444 679.089 40.4296 679.03 40.4296C676.17 40.4296 673.303 40.4296 670.443 40.4296C670.362 40.4296 670.274 40.4222 670.201 40.4148C670.201 33.763 670.201 27.1333 670.201 20.4889C673.229 20.4889 676.265 20.4889 679.323 20.4889C679.323 20.8 679.323 21.0963 679.323 21.3778C676.911 21.3852 674.505 21.3852 672.056 21.3852Z" fill="black"/>
<path d="M779.79 21.3852C777.355 21.3852 774.964 21.3852 772.537 21.3852C772.53 21.4593 772.522 21.563 772.522 21.6593C772.508 24.2593 772.508 26.8667 772.478 29.4667C772.478 29.7778 772.574 29.8296 772.852 29.8296C774.744 29.8222 776.644 29.8296 778.536 29.8222C778.939 29.8222 779.335 29.7704 779.76 29.7482C779.76 30.0519 779.76 30.363 779.76 30.6519C777.355 30.5111 774.957 30.6296 772.544 30.5778C772.544 33.5482 772.544 36.4963 772.544 39.4296C774.942 39.4296 777.34 39.4296 779.76 39.4296C779.76 39.7185 779.76 40.0593 779.76 40.4148C776.717 40.4148 773.681 40.4148 770.66 40.4148C770.66 33.7852 770.66 27.1556 770.66 20.4889C770.748 20.4815 770.85 20.4741 770.953 20.4741C773.798 20.4741 776.644 20.4741 779.482 20.4667C779.716 20.4667 779.812 20.5333 779.79 20.7778C779.775 20.9852 779.79 21.2 779.79 21.3852Z" fill="black"/>
<path d="M689.253 40.4222C688.769 40.4222 688.219 40.4222 687.698 40.4222C685.425 33.7704 683.151 27.1407 680.878 20.4741C681.157 20.4741 681.487 20.4741 681.809 20.4741C682.147 20.4741 682.477 20.4741 682.763 20.4741C684.838 26.5259 686.899 32.5333 688.989 38.6296C691.123 32.5407 693.235 26.5259 695.354 20.4889C695.633 20.4889 695.948 20.4889 696.249 20.4889C693.917 27.1259 691.592 33.7481 689.253 40.4222Z" fill="black"/>
<path d="M661.217 39.4666C663.571 39.4666 665.903 39.4666 668.257 39.4666C668.257 39.7704 668.257 40.0815 668.257 40.4148C665.273 40.4148 662.288 40.4148 659.311 40.4148C659.413 39.5037 659.391 21.2444 659.289 20.4963C659.934 20.4963 660.579 20.4963 661.225 20.4963C661.217 26.8222 661.217 33.1259 661.217 39.4666Z" fill="black"/>
<path d="M698.038 20.4889C698.625 20.4889 699.277 20.4889 699.879 20.4889C699.849 22.7111 699.871 24.9185 699.864 27.1259C699.864 29.3333 699.864 31.5333 699.864 33.7407C699.864 35.9556 699.864 38.1704 699.864 40.4074C699.27 40.4074 698.639 40.4074 698.038 40.4074C698.038 37.0889 698.038 33.763 698.038 30.4444C698.038 27.1333 698.038 23.8222 698.038 20.4889Z" fill="black"/>
<path d="M740.967 20.4889C741.598 20.4889 742.251 20.4889 742.852 20.4889C742.823 22.7037 742.845 24.9111 742.837 27.1185C742.83 29.3259 742.837 31.5259 742.837 33.7333C742.837 35.9481 742.837 38.163 742.837 40.4C742.243 40.4 741.613 40.4 740.967 40.4C740.967 33.7778 740.967 27.1407 740.967 20.4889Z" fill="black"/>
<path d="M759.088 44.6148C758.978 45.3482 758.86 46.0815 758.75 46.8148C758.728 46.9704 758.721 47.1259 758.677 47.2741C758.655 47.3481 758.567 47.4 758.508 47.4667C758.479 47.4444 758.457 47.4296 758.428 47.4074C758.618 46.2 758.802 44.9926 758.992 43.7778C759.139 43.7778 759.271 43.7778 759.432 43.7778C759.77 44.7778 760.114 45.7852 760.459 46.7926C760.481 46.7926 760.496 46.7926 760.518 46.7926C760.774 46.0444 761.031 45.2889 761.288 44.5407C761.332 44.4074 761.376 44.2667 761.427 44.1259C761.559 43.7407 761.559 43.7407 761.999 43.7926C762.175 44.9926 762.344 46.2 762.527 47.4296C762.344 47.4296 762.175 47.4296 761.999 47.4296C761.86 46.4593 761.728 45.5037 761.588 44.5556C761.566 44.5556 761.552 44.5481 761.53 44.5481C761.368 45.0074 761.214 45.4593 761.06 45.9185C760.914 46.3556 760.752 46.7926 760.62 47.237C760.576 47.3926 760.51 47.4593 760.342 47.4593C760.18 47.4593 760.107 47.4 760.063 47.2444C759.814 46.4815 759.55 45.7259 759.286 44.9704C759.249 44.8519 759.198 44.7407 759.161 44.6222C759.124 44.6148 759.11 44.6148 759.088 44.6148Z" fill="black"/>
<path d="M749.452 45.5704C749.459 44.8296 749.643 44.1629 750.391 43.8741C751.109 43.5926 751.85 43.5778 752.466 44.1333C753.038 44.6518 753.075 45.3629 752.979 46.0666C752.84 47.0666 752.143 47.5481 750.992 47.4889C750.105 47.4444 749.511 46.8148 749.452 45.8666C749.445 45.7629 749.452 45.6666 749.452 45.5704ZM749.965 45.5778C750.031 45.9037 750.061 46.2222 750.163 46.5185C750.339 47.0148 750.728 47.2518 751.227 47.2444C751.791 47.2296 752.165 46.9704 752.327 46.4444C752.51 45.8518 752.495 45.2592 752.29 44.6815C752.129 44.2074 751.769 43.9778 751.256 43.9629C750.735 43.9481 750.339 44.1852 750.171 44.6518C750.068 44.9407 750.031 45.2592 749.965 45.5778Z" fill="black"/>
<path d="M781 47.4445C780.853 47.4445 780.721 47.4593 780.589 47.4371C780.516 47.4222 780.428 47.3556 780.399 47.2889C780.289 47.0222 780.193 46.7482 780.113 46.4741C780.069 46.3259 779.995 46.2593 779.827 46.2667C779.482 46.2815 779.137 46.2593 778.793 46.2815C778.712 46.2889 778.587 46.3704 778.558 46.4519C778.441 46.7259 778.36 47.0148 778.243 47.2889C778.206 47.3704 778.111 47.4148 778.037 47.4815C778.015 47.4593 777.993 47.4371 777.971 47.4148C778.316 46.4371 778.661 45.4593 779.005 44.4815C779.057 44.3259 779.115 44.1704 779.167 44.0148C779.211 43.8667 779.255 43.763 779.453 43.7704C779.636 43.7778 779.717 43.8371 779.775 44.0074C780.171 45.1111 780.575 46.2148 780.971 47.3185C780.985 47.3408 780.985 47.3778 781 47.4445ZM779.343 44.3704C779.321 44.3704 779.299 44.3704 779.277 44.3704C779.086 44.9185 778.895 45.4593 778.697 46.0222C779.123 46.0222 779.511 46.0222 779.937 46.0222C779.731 45.4593 779.541 44.9111 779.343 44.3704Z" fill="black"/>
<path d="M727.173 47.4C727.584 46.2371 727.987 45.0741 728.413 43.9185C728.435 43.8519 728.559 43.7704 728.633 43.7704C728.735 43.7704 728.897 43.8222 728.926 43.8963C729.366 45.0593 729.784 46.2296 730.209 47.3926C729.703 47.5111 729.689 47.4963 729.527 47.0593C729.432 46.8 729.395 46.4445 729.205 46.3111C729.014 46.1778 728.669 46.2593 728.398 46.2593C727.826 46.2519 727.826 46.2593 727.635 46.8C727.577 46.9556 727.54 47.1111 727.467 47.2593C727.423 47.3408 727.335 47.4074 727.261 47.4741C727.225 47.4593 727.195 47.4296 727.173 47.4ZM727.899 46.0296C728.317 46.0296 728.706 46.0296 729.139 46.0296C728.933 45.4519 728.735 44.9111 728.508 44.2815C728.295 44.9111 728.105 45.4593 727.899 46.0296Z" fill="black"/>
<path d="M737.873 47.4C738.283 46.237 738.687 45.0741 739.105 43.9185C739.134 43.8444 739.266 43.7778 739.354 43.7778C739.442 43.7778 739.589 43.837 739.618 43.9037C740.043 45.0518 740.461 46.2 740.879 47.3481C740.887 47.363 740.879 47.3852 740.879 47.4074C740.432 47.5259 740.373 47.4963 740.219 47.0667C740.124 46.8074 740.087 46.4518 739.904 46.3185C739.713 46.1852 739.369 46.2667 739.097 46.2667C738.533 46.2667 738.533 46.2667 738.327 46.8074C738.269 46.9704 738.225 47.1407 738.151 47.2963C738.115 47.3704 738.019 47.4222 737.953 47.4815C737.917 47.4518 737.895 47.4222 737.873 47.4ZM738.599 46.0296C739.024 46.0296 739.413 46.0296 739.845 46.0296C739.64 45.4593 739.435 44.9111 739.237 44.363C739.215 44.3704 739.193 44.3704 739.171 44.3778C738.98 44.9185 738.797 45.4667 738.599 46.0296Z" fill="black"/>
<path d="M754.629 47.2148C754.666 47.0889 754.695 46.9852 754.739 46.8518C755.055 47.1111 755.377 47.2815 755.781 47.2C756.074 47.1407 756.265 46.9629 756.323 46.6741C756.382 46.3926 756.287 46.1481 756.045 46C755.744 45.8148 755.421 45.6592 755.121 45.4741C754.857 45.3111 754.681 45.0815 754.659 44.7481C754.637 44.3111 754.835 43.9778 755.238 43.8074C755.707 43.6148 756.169 43.6592 756.639 43.8741C756.609 43.9852 756.587 44.0741 756.558 44.1629C756.338 44.0889 756.125 44 755.913 43.9555C755.568 43.8815 755.275 44.0592 755.179 44.3555C755.084 44.637 755.194 44.8889 755.517 45.0741C755.766 45.2148 756.03 45.3333 756.279 45.4741C756.741 45.7481 756.925 46.1778 756.8 46.6741C756.69 47.1259 756.294 47.437 755.788 47.4741C755.385 47.5111 755.003 47.4444 754.629 47.2148Z" fill="black"/>
<path d="M776.556 44.237C776.38 44.1555 776.233 44.0592 776.072 44.0074C775.434 43.8148 774.84 44.1111 774.598 44.7629C774.407 45.2666 774.4 45.7852 774.568 46.2963C774.876 47.2518 775.734 47.5185 776.534 46.9259C776.636 47.2296 776.614 47.3037 776.343 47.3926C775.852 47.5481 775.368 47.5481 774.884 47.3704C774.788 47.3333 774.693 47.2815 774.605 47.2296C774.018 46.837 773.732 45.8741 773.945 45C774.121 44.2741 774.642 43.8074 775.404 43.7333C775.683 43.7037 775.976 43.7481 776.255 43.7704C776.534 43.7852 776.658 43.9333 776.556 44.237Z" fill="black"/>
<path d="M747.787 44.2444C747.597 44.1555 747.45 44.0592 747.289 44.0148C746.636 43.8148 746.035 44.1259 745.8 44.7926C745.609 45.3407 745.617 45.8963 745.822 46.437C746.137 47.237 746.944 47.4815 747.655 46.9926C747.685 46.9704 747.714 46.9555 747.751 46.9333C747.853 47.2074 747.758 47.3481 747.501 47.4074C746.101 47.7481 744.979 47.1185 745.103 45.3629C745.191 44.0592 746.372 43.3555 747.604 43.7852C747.861 43.8815 747.773 44.0444 747.787 44.2444Z" fill="black"/>
<path d="M766.128 45.6815C765.695 45.6815 765.292 45.6815 764.866 45.6815C764.866 46.1778 764.866 46.6667 764.866 47.2C765.226 47.2 765.57 47.1926 765.922 47.2074C765.996 47.2074 766.062 47.2815 766.135 47.3185C766.069 47.363 766.003 47.4445 765.93 47.4445C765.409 47.4519 764.881 47.4519 764.338 47.4519C764.338 46.2148 764.338 45.0148 764.338 43.7704C764.896 43.7704 765.446 43.7704 765.996 43.7778C766.04 43.7778 766.084 43.8519 766.12 43.8889C766.069 43.9259 766.018 43.9926 765.966 44C765.607 44.0074 765.24 44.0074 764.859 44.0074C764.859 44.4889 764.859 44.9556 764.859 45.4371C765.284 45.4667 765.702 45.4963 766.12 45.5333C766.128 45.5185 766.128 45.6 766.128 45.6815Z" fill="black"/>
<path d="M735.944 44.0074C735.944 45.163 735.944 46.2741 735.944 47.4148C735.768 47.4148 735.607 47.4148 735.431 47.4148C735.431 46.3037 735.431 45.1926 735.431 44.0519C735.079 44.0519 734.749 44.0519 734.397 44.0519C734.389 43.9407 734.382 43.8593 734.375 43.7556C735.211 43.7556 736.025 43.7556 736.839 43.763C736.89 43.763 736.934 43.8444 736.978 43.8889C736.927 43.9259 736.875 44 736.824 44C736.538 44.0148 736.259 44.0074 735.944 44.0074Z" fill="black"/>
<path d="M768.981 47.4296C768.79 47.4296 768.643 47.4296 768.46 47.4296C768.46 46.2963 768.46 45.1778 768.46 44.0444C768.108 44.0444 767.785 44.0444 767.455 44.0444C767.404 43.8592 767.404 43.7629 767.624 43.7629C768.357 43.7703 769.098 43.7629 769.831 43.7703C769.897 43.7703 769.963 43.8592 770.029 43.9037C769.963 43.9407 769.905 44.0074 769.839 44.0074C769.641 44.0222 769.435 44.0222 769.237 44.0074C769.039 43.9926 768.973 44.0666 768.981 44.274C768.988 45.2296 768.981 46.1852 768.981 47.1407C768.981 47.2296 768.981 47.3111 768.981 47.4296Z" fill="black"/>
<path d="M732.321 47.1926C732.769 47.1926 733.157 47.1926 733.546 47.1926C733.568 47.2148 733.59 47.237 733.605 47.2592C733.546 47.3185 733.495 47.437 733.436 47.437C732.901 47.4518 732.373 47.4444 731.823 47.4444C731.823 46.2074 731.823 45.0074 731.823 43.7852C731.977 43.7852 732.131 43.7852 732.314 43.7852C732.321 44.9037 732.321 46.0296 732.321 47.1926Z" fill="black"/>
<path d="M771.995 47.4296C771.833 47.4296 771.679 47.4296 771.518 47.4296C771.518 46.2074 771.518 45.0074 771.518 43.7852C771.679 43.7852 771.826 43.7852 771.995 43.7852C771.995 44.9852 771.995 46.1852 771.995 47.4296Z" fill="black"/>
<path d="M765.732 42.5777C765.453 42.8444 765.38 43.2222 764.984 43.3703C765.116 42.7259 765.285 42.5407 765.732 42.5777Z" fill="black"/>
</g>
<g clip-path="url(#clip2_1146_18)">
<path d="M1152.01 26.7685C1149.66 32.7407 1147.32 38.713 1144.95 44.7685C1141.58 34.6111 1138.43 24.4537 1134.28 14.5093C1136.53 17.9444 1138.48 21.3981 1140.23 24.9815C1141.98 28.5648 1143.5 32.25 1144.79 36.0278C1144.85 36.037 1144.9 36.0463 1144.97 36.0556C1147.33 31.6389 1149.7 27.2222 1152.12 22.6944C1154.56 27.2037 1156.96 31.6296 1159.36 36.0648C1159.4 36.0556 1159.46 36.0556 1159.5 36.0463C1159.77 35.3889 1160.03 34.7315 1160.3 34.0741C1161.81 30.4907 1163.28 26.8889 1164.84 23.3426C1166.71 19.1111 1168.83 15.0093 1171.14 11C1174.36 5.41667 1177.93 0.0833335 1182.26 -4.7037C1182.37 -4.82407 1182.49 -4.93519 1182.68 -5C1182.05 -4.15741 1181.4 -3.32407 1180.8 -2.46296C1178.4 0.972222 1176.25 4.56481 1174.42 8.33333C1172.22 12.8519 1170.02 17.3704 1168.02 21.9722C1166.08 26.4444 1164.35 31.0185 1162.59 35.5741C1161.45 38.5278 1160.44 41.5278 1159.37 44.5093C1159.36 44.5648 1159.34 44.6296 1159.28 44.787C1156.9 38.713 1154.55 32.7315 1152.21 26.75C1152.13 26.7593 1152.07 26.7685 1152.01 26.7685Z" fill="black"/>
<path d="M1183.97 28.6574C1183.97 27.6019 1183.97 26.537 1183.97 25.4537C1184.58 25.4537 1185.15 25.4537 1185.74 25.4537C1185.74 31.8333 1185.74 38.1852 1185.74 44.5741C1185.17 44.5741 1184.61 44.5741 1183.99 44.5741C1183.99 43.4722 1183.99 42.3796 1183.99 41.1204C1183.8 41.3241 1183.71 41.3981 1183.64 41.5C1181.71 44.1111 1179.05 45.1481 1175.92 44.9815C1170.21 44.6759 1166.94 39.8426 1167.19 34.3426C1167.31 31.5833 1168.2 29.1574 1170.26 27.2593C1173.83 23.9722 1180.57 24.1852 1183.67 28.5C1183.72 28.5648 1183.77 28.6296 1183.83 28.6944C1183.88 28.6852 1183.92 28.6759 1183.97 28.6574ZM1169 34.1481C1169.01 36.6296 1169.37 38.0648 1170.14 39.4722C1172.64 44.0278 1178.86 44.7315 1182.11 40.7593C1184.05 38.3889 1184.52 35.5556 1183.86 32.6111C1182.58 26.8981 1176.66 25.5648 1173.2 27.5C1170.32 29.1111 1169.09 31.713 1169 34.1481Z" fill="black"/>
<path d="M1123.83 41.2315C1123.76 41.3055 1123.69 41.3704 1123.62 41.4444C1121.65 44.1481 1118.92 45.1852 1115.67 44.963C1110.68 44.6296 1107.49 40.6389 1107.16 35.8333C1107 33.4074 1107.39 31.1018 1108.72 29.037C1110.34 26.5092 1112.72 25.25 1115.67 25.037C1118.2 24.8518 1120.51 25.5 1122.46 27.213C1122.96 27.6574 1123.38 28.1944 1123.92 28.7592C1123.92 27.6204 1123.92 26.5555 1123.92 25.4537C1124.54 25.4537 1125.1 25.4537 1125.69 25.4537C1125.69 31.8148 1125.69 38.1759 1125.69 44.5741C1125.13 44.5741 1124.57 44.5741 1123.95 44.5741C1123.95 43.463 1123.95 42.3704 1123.95 41.2778C1123.9 41.2592 1123.86 41.2407 1123.83 41.2315ZM1124.17 34.713C1123.98 33.75 1123.89 32.7685 1123.6 31.8426C1121.87 26.3981 1114.92 24.8981 1111.09 29.1204C1108.12 32.3889 1108.24 37.9907 1111.34 41.1759C1114.34 44.25 1119.46 44.0278 1122.14 40.6852C1123.52 38.9537 1124.02 36.9167 1124.17 34.713Z" fill="black"/>
<path d="M1189.88 25.4259C1190.61 25.4259 1191.25 25.3982 1191.89 25.4444C1192.06 25.4537 1192.26 25.6759 1192.38 25.8519C1194.22 28.1944 1196.06 30.5463 1197.89 32.8889C1197.95 32.9722 1198.02 33.0463 1198.14 33.1852C1198.73 32.4444 1199.3 31.7315 1199.87 31.0093C1201.25 29.2593 1202.63 27.5185 1204 25.7593C1204.19 25.5093 1204.39 25.4074 1204.69 25.4259C1205.25 25.4444 1205.8 25.4352 1206.45 25.4352C1205.45 26.713 1204.52 27.9074 1203.58 29.1019C1202.27 30.787 1200.95 32.4722 1199.62 34.1389C1199.39 34.4259 1199.43 34.5926 1199.63 34.8519C1202.04 37.9907 1204.46 41.1296 1206.86 44.2778C1206.92 44.3611 1206.98 44.4444 1207.11 44.6296C1206.39 44.6296 1205.73 44.6482 1205.09 44.6111C1204.96 44.6019 1204.82 44.4074 1204.72 44.2778C1202.61 41.5556 1200.5 38.8241 1198.38 36.1019C1198.32 36.0185 1198.25 35.9444 1198.14 35.8241C1197.9 36.1296 1197.67 36.4074 1197.44 36.6944C1195.51 39.2037 1193.58 41.7222 1191.66 44.2407C1191.43 44.537 1191.2 44.6574 1190.83 44.6389C1190.33 44.6111 1189.83 44.6296 1189.21 44.6296C1189.82 43.8333 1190.36 43.1204 1190.9 42.3981C1192.81 39.9074 1194.71 37.4167 1196.64 34.9444C1196.88 34.6296 1196.94 34.4259 1196.65 34.0648C1194.47 31.3241 1192.32 28.5648 1190.16 25.8056C1190.08 25.6944 1190 25.6019 1189.88 25.4259Z" fill="black"/>
<path d="M1100.57 27.1111C1099.81 27.1111 1099.14 27.1111 1098.46 27.1111C1098.46 26.5463 1098.46 26.0185 1098.46 25.4259C1098.99 25.4259 1099.52 25.4074 1100.05 25.4352C1100.44 25.4537 1100.56 25.3241 1100.56 24.9259C1100.54 22.8056 1100.55 20.6759 1100.55 18.5556C1100.55 18.3426 1100.55 18.1389 1100.55 17.8796C1101.14 17.8796 1101.7 17.8796 1102.34 17.8796C1102.34 18.0556 1102.34 18.2407 1102.34 18.4259C1102.34 20.5833 1102.35 22.7407 1102.34 24.9074C1102.34 25.3241 1102.45 25.4537 1102.87 25.4352C1103.79 25.4074 1104.71 25.4259 1105.67 25.4259C1105.67 26 1105.67 26.5278 1105.67 27.1111C1104.57 27.1111 1103.5 27.1111 1102.36 27.1111C1102.36 32.9537 1102.36 38.7593 1102.36 44.5833C1101.75 44.5833 1101.19 44.5833 1100.57 44.5833C1100.57 38.787 1100.57 32.9908 1100.57 27.1111Z" fill="black"/>
<path d="M1094.55 44.5833C1093.9 44.5833 1093.29 44.5833 1092.66 44.5833C1092.66 35.6759 1092.66 26.7963 1092.66 17.8796C1093.27 17.8796 1093.89 17.8796 1094.55 17.8796C1094.55 26.7593 1094.55 35.6574 1094.55 44.5833Z" fill="black"/>
<path d="M1132.28 44.5926C1131.68 44.5926 1131.12 44.5926 1130.53 44.5926C1130.53 35.6852 1130.53 26.787 1130.53 17.8704C1131.1 17.8704 1131.67 17.8704 1132.28 17.8704C1132.28 26.7593 1132.28 35.6574 1132.28 44.5926Z" fill="black"/>
<path d="M1152.12 16.5741C1153.36 16.5834 1154.33 17.5741 1154.32 18.8148C1154.31 20.0556 1153.31 21.0278 1152.07 21.0093C1150.85 21 1149.91 20.0278 1149.91 18.7871C1149.9 17.5093 1150.85 16.5648 1152.12 16.5741Z" fill="black"/>
</g>
<g clip-path="url(#clip3_1146_18)">
<path d="M874.738 34.9852C874.738 37.7466 874.738 40.4844 874.738 43.2755C873.195 43.2755 871.733 43.2755 870.202 43.2755C870.202 36.1229 870.202 28.9703 870.202 21.7348C870.479 21.717 870.774 21.6874 871.063 21.6874C874.553 21.6815 878.048 21.6755 881.538 21.6874C885.496 21.6992 888.009 24.5496 887.628 28.5852C887.431 30.6652 886.374 32.1348 884.427 33.0829C887.01 34.2029 887.287 36.4548 887.455 38.8015C887.559 40.2948 887.79 41.7822 887.975 43.3229C886.755 43.3229 885.409 43.3526 884.063 43.2933C883.855 43.2874 883.52 42.9081 883.485 42.6652C883.271 41.2963 883.15 39.9096 882.965 38.5348C882.884 37.9244 882.763 37.314 882.578 36.7333C882.255 35.7437 881.55 35.0503 880.544 34.997C878.661 34.92 876.771 34.9852 874.738 34.9852ZM874.79 31.3407C876.945 31.3407 879.013 31.4711 881.059 31.2933C882.439 31.1748 883.063 30.0015 883.04 28.3363C883.017 26.7363 882.37 25.6874 880.983 25.5274C879.412 25.3437 877.811 25.4089 876.223 25.3733C875.755 25.3615 875.287 25.3733 874.79 25.3733C874.79 27.4652 874.79 29.397 874.79 31.3407Z" fill="black"/>
<path d="M988.213 28.9466C986.873 28.9466 985.527 28.9644 984.18 28.9289C984.024 28.9229 983.799 28.674 983.735 28.4844C983.077 26.517 981.696 25.4385 979.743 25.2074C977.675 24.9585 975.837 25.6281 974.763 27.5126C972.931 30.7422 972.879 34.1259 974.67 37.3911C975.82 39.4829 977.807 40.1111 980.038 39.7852C982.175 39.4711 983.302 37.9837 983.816 35.9333C983.886 35.6666 983.943 35.394 984.024 35.0681C985.48 35.0681 986.936 35.0681 988.392 35.0681C988.479 39.2459 985.139 43.1096 980.962 43.714C973.283 44.8222 968.309 39.1274 968.858 31.4652C969.019 29.237 969.626 27.157 970.897 25.32C974.011 20.8163 980.979 19.7615 985.238 23.1511C986.983 24.5377 988.202 26.8548 988.213 28.9466Z" fill="black"/>
<path d="M916.505 36.5318C916.413 38.3866 917.187 39.7377 918.573 40.2711C920.226 40.9051 922.237 40.4311 923.155 39.0859C923.49 38.594 923.825 38.4933 924.34 38.5111C925.241 38.5407 926.142 38.517 927.153 38.517C926.691 40.0518 925.963 41.2903 924.808 42.2503C921.526 44.9763 915.696 43.9866 913.46 40.3303C911.64 37.3555 911.831 32.917 913.893 30.1851C915.771 27.7022 919.099 26.6355 922.185 27.5244C925.01 28.3363 926.992 30.8844 927.367 34.2148C927.431 34.7955 927.454 35.3822 927.477 35.9688C927.483 36.117 927.431 36.2651 927.385 36.5259C923.745 36.5318 920.122 36.5318 916.505 36.5318ZM916.493 33.794C918.758 33.794 920.954 33.794 923.161 33.794C922.965 31.5422 921.786 30.434 919.712 30.4933C917.834 30.5525 916.557 31.8385 916.493 33.794Z" fill="black"/>
<path d="M903.927 36.5437C900.125 36.5437 896.52 36.5437 892.932 36.5437C892.741 38.2325 893.515 39.6607 894.862 40.2355C896.497 40.9288 898.588 40.4666 899.536 39.1096C899.865 38.6355 900.189 38.4933 900.715 38.517C901.616 38.5525 902.517 38.5288 903.424 38.5288C903.135 40.8992 900.934 43.0562 898.294 43.6014C894.763 44.3303 891.459 43.0385 889.818 40.2948C888.027 37.2962 888.211 32.8459 890.332 30.1674C892.452 27.4829 895.283 26.7303 898.45 27.5303C901.593 28.3244 903.112 30.7244 903.684 33.8355C903.84 34.6533 903.84 35.5185 903.927 36.5437ZM899.536 33.8118C899.397 31.5185 898.08 30.357 895.89 30.5051C894.116 30.6296 892.805 32.0696 892.932 33.8118C895.11 33.8118 897.294 33.8118 899.536 33.8118Z" fill="black"/>
<path d="M960.22 43.7614C955.419 43.7555 952.316 40.5199 952.322 35.5125C952.328 30.4933 955.424 27.2399 960.197 27.234C965.021 27.2281 968.176 30.5111 968.164 35.5362C968.159 40.514 965.016 43.7673 960.22 43.7614ZM964.091 35.5718C963.866 34.5407 963.756 33.5511 963.427 32.6444C962.895 31.2044 961.792 30.5051 960.272 30.4933C958.758 30.4814 957.637 31.1333 957.06 32.5614C956.285 34.4933 956.285 36.4785 957.042 38.4222C957.591 39.8325 958.7 40.5199 960.145 40.5377C961.618 40.5614 962.82 39.9511 963.369 38.4873C963.721 37.557 963.86 36.5377 964.091 35.5718Z" fill="black"/>
<path d="M942.904 33.1244C941.546 33.1244 940.229 33.1244 938.854 33.1244C938.467 31.4296 937.473 30.4696 935.688 30.4933C934.336 30.5111 933.382 31.1689 932.816 32.3778C931.892 34.3452 931.869 36.3837 932.649 38.3985C933.192 39.8148 934.376 40.597 935.722 40.5496C937.23 40.5022 938.299 39.6548 938.785 38.1259C938.86 37.8948 938.929 37.6637 939.004 37.4148C940.316 37.4148 941.598 37.4148 942.881 37.4148C942.927 39.797 941.234 42.3155 938.854 43.1689C935.861 44.2415 932.926 44.0933 930.447 41.8652C927.859 39.5363 927.489 36.437 928.229 33.1896C929.517 27.5363 936.45 25.2192 940.841 28.917C942.124 29.9837 942.789 31.3822 942.904 33.1244Z" fill="black"/>
<path d="M905.741 30.5348C904.817 30.5348 904.054 30.5348 903.239 30.5348C903.239 29.5452 903.239 28.6681 903.239 27.6785C904.025 27.6785 904.793 27.6785 905.689 27.6785C905.654 25.6103 905.793 23.6489 907.671 22.4755C909.323 21.4444 911.126 21.6281 912.986 21.8237C912.986 22.8785 912.986 23.8741 912.986 24.7096C912.016 24.9644 911.01 25.0118 910.277 25.4978C909.872 25.7644 909.924 26.7659 909.728 27.6074C910.849 27.6074 911.756 27.6074 912.732 27.6074C912.732 28.6385 912.732 29.5392 912.732 30.5348C911.796 30.5348 910.901 30.5348 909.924 30.5348C909.924 34.8133 909.924 38.997 909.924 43.2578C908.503 43.2578 907.168 43.2578 905.735 43.2578C905.741 39.0741 905.741 34.8903 905.741 30.5348Z" fill="black"/>
<path d="M945.232 23.0029C946.648 23.0029 947.96 23.0029 949.381 23.0029C949.381 24.5081 949.381 26.0014 949.381 27.6252C950.456 27.6252 951.426 27.6252 952.443 27.6252C952.443 28.6385 952.443 29.5215 952.443 30.4992C951.478 30.4992 950.531 30.4992 949.473 30.4992C949.45 30.8844 949.421 31.1748 949.416 31.4711C949.41 33.6933 949.41 35.9155 949.416 38.1377C949.421 39.8089 949.82 40.194 951.472 40.1289C951.773 40.117 952.068 40.0874 952.426 40.0577C952.426 41.1481 952.426 42.2148 952.426 43.3822C950.6 43.5659 948.78 43.7496 947.024 43.0089C945.672 42.44 945.238 41.2607 945.232 39.8622C945.221 37.1126 945.227 34.3689 945.227 31.6192C945.227 31.2874 945.227 30.9615 945.227 30.5348C944.337 30.5348 943.568 30.5348 942.742 30.5348C942.742 29.557 942.742 28.674 942.742 27.6607C943.54 27.6607 944.331 27.6607 945.227 27.6607C945.232 26.0429 945.232 24.5437 945.232 23.0029Z" fill="black"/>
<path d="M995.961 21.7348C997.313 21.7348 998.625 21.7348 1000 21.7348C1000 28.923 1000 36.0696 1000 43.2696C998.665 43.2696 997.354 43.2696 995.961 43.2696C995.961 36.1407 995.961 28.9941 995.961 21.7348Z" fill="black"/>
<path d="M993.893 43.2814C992.489 43.2814 991.177 43.2814 989.813 43.2814C989.813 38.0903 989.813 32.9466 989.813 27.7259C991.154 27.7259 992.489 27.7259 993.893 27.7259C993.893 32.8933 993.893 38.0548 993.893 43.2814Z" fill="black"/>
<path d="M989.831 21.7348C991.229 21.7348 992.535 21.7348 993.904 21.7348C993.904 22.8726 993.904 23.9689 993.904 25.1363C992.558 25.1363 991.229 25.1363 989.831 25.1363C989.831 24.0341 989.831 22.92 989.831 21.7348Z" fill="black"/>
</g>
<defs>
<clipPath id="clip0_1146_18">
<rect width="213" height="51" fill="white" transform="translate(0 13)"/>
</clipPath>
<clipPath id="clip1_1146_18">
<rect width="165" height="40" fill="white" transform="translate(648 14)"/>
</clipPath>
<clipPath id="clip2_1146_18">
<rect width="207" height="50" fill="white" transform="translate(1048)"/>
</clipPath>
<clipPath id="clip3_1146_18">
<rect width="130" height="32" fill="white" transform="translate(870 22)"/>
</clipPath>
</defs>
</svg>
